<?xml version="1.0" encoding="utf-8"?>
<!-- Generator: Adobe Illustrator 24.2.3, SVG Export Plug-In . SVG Version: 6.00 Build 0)  -->
<svg version="1.1" id="Ebene_1" xmlns="http://www.w3.org/2000/svg" xmlns:xlink="http://www.w3.org/1999/xlink" x="0px" y="0px"
	 viewBox="0 0 40 40" style="enable-background:new 0 0 40 40;" xml:space="preserve">
<style type="text/css">
	.st0{fill:#FFE500;}
	.st1{fill:#FCC202;}
	.st2{fill:#EE7B53;}
	.st3{fill:#272724;}
	.st4{fill:#6F7072;}
	.st5{fill:#F39209;}
	.st6{fill:#FFFFFF;}
	.st7{fill:#CCCCCC;}
	.st8{fill:#F2F2F2;}
	.st9{fill:#549D4C;}
	.st10{fill:#355A2D;}
	.st11{fill:#A9CA54;}
	.st12{fill:#507F3A;}
	.st13{fill:#E6E6E6;}
</style>
<path class="st0" d="M16.008,6.278c2.496-1.668,5.525-2.524,8.524-2.408c0.868,0.033,1.73,0.145,2.59,0.264
	c1.004,0.138,2.032,0.294,2.92,0.782c0.655,0.36,1.201,0.883,1.787,1.347c1.573,1.244,3.535,2.162,4.478,3.932
	c0.304,0.57,0.484,1.204,0.827,1.751c0.334,0.533,0.81,0.964,1.151,1.492c0.798,1.238,0.751,2.819,0.676,4.291
	c-0.081,1.587-0.166,3.198-0.677,4.702c-0.279,0.822-0.681,1.596-1.081,2.366c-0.532,1.024-1.072,2.059-1.84,2.92
	c-0.8,0.895-1.815,1.565-2.833,2.202c-1.656,1.036-3.367,2.018-5.227,2.615c-1.86,0.597-3.894,0.791-5.768,0.24
	c-0.815-0.239-1.585-0.614-2.402-0.845c-1.222-0.346-2.584-0.389-3.604-1.146c-0.778-0.578-1.227-1.483-1.765-2.289
	c-0.882-1.323-2.055-2.439-2.88-3.798c-1.126-1.855-1.541-4.129-1.144-6.263c0.187-1.002,0.54-1.962,0.748-2.959
	c0.18-0.857-0.059-1.811,0.178-2.611c0.498-1.68,1.774-3.34,2.966-4.586C14.348,7.528,15.146,6.855,16.008,6.278z"/>
<path class="st1" d="M26.014,10.74h-9.289v5.216h16.229v-0.302C32.954,12.981,28.924,10.74,26.014,10.74z"/>
<path class="st2" d="M19.419,15.762c0.754,0.603,1.832,1.207,3.147,1.638c3.793,1.25,6.121,0.905,6.164,0.905
	c0.043,0,0.043,0.043,0,0.129c-0.216,0.453-1.25,2.004-4.871,1.81c-2.177-0.108-3.836-0.819-4.849-1.487
	C18.104,18.197,18.47,15.007,19.419,15.762z"/>
<path class="st3" d="M4.677,29.965c-0.022,0.991,1.789,1.121,4.332,0.388c2.543-0.733,4.914-2.069,4.914-2.069l-0.927-1.444
	c0,0-2.026,0.043-4.44,0.668C6.121,28.133,4.698,28.974,4.677,29.965z"/>
<path class="st4" d="M5.927,32.228c0.194,0.97,2.004,0.668,4.289-0.625c2.285-1.293,4.311-3.168,4.311-3.168l-1.25-1.207
	c0,0-1.961,0.517-4.16,1.681S5.711,31.258,5.927,32.228z"/>
<path class="st3" d="M18.643,13.714l0.991-2.974h-3.017c-3.556,0-6.487,2.651-6.94,6.078L9.526,27.4
	c0,0.819,2.112,1.918,3.319,2.048c3.319,0.345,6.66-1.961,6.66-5.065C19.505,24.21,18.643,13.714,18.643,13.714z"/>
<path class="st5" d="M29.118,15.913l0.151-1.401l-1.056,1.272l0.172-1.724l-1.336,1.832l-0.69-2.306l-0.582,2.328h0.388H29.118z
	 M25.109,14.77c-0.086-0.388-0.129-1.703-0.129-1.703s-0.603,0.711-0.668,1.336c-0.043,0.517-0.259,1.272-0.345,1.509h1.293
	C25.26,15.74,25.195,15.094,25.109,14.77z M22.544,13.757l-0.56,2.048c0,0-0.69-1.53-1.013-2.198
	c-0.28-0.603-1.336-2.22-1.724-2.522c-0.022-0.022-0.086,4.72-0.086,4.72l0.022,0.129h4.332L22.544,13.757z"/>
<path class="st6" d="M19.634,10.783V24.62h-0.043c-3.815,0-6.918-3.103-6.918-6.918s3.103-6.919,6.918-6.919H19.634z"/>
<path class="st3" d="M18.19,14.512c0,0.711-0.582,1.293-1.293,1.293c-0.711,0-1.293-0.582-1.293-1.293s0.582-1.293,1.293-1.293
	C17.608,13.218,18.19,13.8,18.19,14.512z"/>
<path class="st3" d="M28.773,11.3v4.655h4.16v-0.302C32.954,13.779,30.971,12.119,28.773,11.3z"/>
<rect x="24.851" y="16.122" transform="matrix(0.9985 0.0544 -0.0544 0.9985 1.0951 -1.4864)" class="st7" width="5.958" height="6.47"/>
<ellipse transform="matrix(0.0544 -0.9985 0.9985 0.0544 4.3364 42.9689)" class="st8" cx="24.856" cy="19.195" rx="3.235" ry="1.617"/>
<ellipse transform="matrix(0.0544 -0.9985 0.9985 0.0544 9.5596 49.0754)" class="st7" cx="30.692" cy="19.49" rx="3.235" ry="1.617"/>
<ellipse transform="matrix(0.0544 -0.9985 0.9985 0.0544 4.3364 42.9689)" cx="24.856" cy="19.195" rx="1.31" ry="0.409"/>
<path class="st2" d="M25.265,19.217c-0.023,0.421-0.106,0.793-0.215,1.027c-0.082,0.005-0.165,0.009-0.251,0.011
	c-0.076,0.003-0.153,0.005-0.232,0.005c-0.224,0.002-0.459-0.003-0.707-0.016c-0.199-0.01-0.393-0.024-0.583-0.044
	c-1.509-0.154-2.738-0.594-3.642-1.073v-3.2c0.738,0.548,1.737,1.081,2.931,1.473c0.317,0.105,0.625,0.198,0.921,0.281
	c0.447,0.126,0.87,0.229,1.266,0.313c0.057,0.012,0.112,0.023,0.167,0.034c0.067,0.014,0.134,0.027,0.199,0.039
	C25.231,18.299,25.292,18.729,25.265,19.217z"/>
<path class="st3" d="M7.996,33.888c0.496,0.862,2.112,0,3.88-1.961s3.082-4.375,3.082-4.375l-1.552-0.733
	c0,0-1.703,1.099-3.405,2.931C8.298,31.581,7.5,33.047,7.996,33.888z"/>
<g>
	<path class="st9" d="M14.594,33.58c0.552-1.372,2.114-2.057,3.486-1.505c1.391,0.552,4.477,3.772,4.153,4.553
		c-0.286,0.705-4.762,1.01-6.153,0.457C14.727,36.533,14.06,34.971,14.594,33.58z"/>
	<path class="st10" d="M20.404,36.133c-0.038,0-0.057,0-0.095-0.019l-4.324-1.714c-0.114-0.057-0.171-0.19-0.133-0.305
		c0.057-0.114,0.19-0.171,0.305-0.133l4.343,1.733c0.114,0.057,0.171,0.19,0.133,0.305C20.594,36.076,20.499,36.133,20.404,36.133z"
		/>
	<path class="st10" d="M16.308,36.209c-0.114,0-0.21-0.076-0.229-0.19l-0.362-1.848c-0.019-0.095,0.019-0.19,0.114-0.248
		l1.695-1.029c0.114-0.076,0.248-0.038,0.324,0.076c0.076,0.114,0.038,0.248-0.076,0.324l-1.543,0.933l0.324,1.676
		c0.019,0.133-0.057,0.248-0.19,0.267C16.346,36.209,16.327,36.209,16.308,36.209z"/>
	<path class="st10" d="M17.642,36.399c-0.114,0-0.21-0.076-0.229-0.19l-0.305-1.486c-0.019-0.095,0.019-0.19,0.114-0.248
		l1.391-0.819c0.114-0.057,0.248-0.019,0.324,0.076c0.057,0.114,0.019,0.248-0.076,0.324l-1.238,0.724l0.267,1.333
		c0.019,0.133-0.057,0.248-0.19,0.286H17.642z M18.975,36.533c-0.114,0-0.21-0.076-0.229-0.171l-0.286-1.086
		c-0.019-0.114,0.019-0.21,0.114-0.267l1.067-0.552c0.114-0.057,0.267-0.019,0.324,0.095c0.057,0.114,0.019,0.248-0.095,0.324
		l-0.895,0.476l0.229,0.895c0.038,0.133-0.038,0.248-0.171,0.286C19.032,36.533,18.975,36.533,18.975,36.533z"/>
</g>
<g>
	<path class="st11" d="M18.785,30.685c-0.343-0.857,0.076-1.829,0.952-2.172c0.857-0.343,3.638-0.19,3.829,0.305
		c0.171,0.438-1.733,2.476-2.61,2.819C20.099,31.961,19.127,31.542,18.785,30.685z"/>
	<path class="st12" d="M19.699,30.456c-0.057,0-0.114-0.038-0.133-0.095c-0.019-0.076,0-0.152,0.076-0.171l2.705-1.067
		c0.076-0.019,0.152,0,0.171,0.076c0.019,0.076,0,0.152-0.076,0.171l-2.705,1.067C19.737,30.456,19.718,30.456,19.699,30.456z"/>
	<path class="st12" d="M20.575,31.161c-0.019,0-0.057,0-0.076-0.019l-0.952-0.686c-0.038-0.038-0.076-0.095-0.057-0.152l0.324-1.181
		c0.019-0.076,0.095-0.114,0.171-0.095c0.076,0.019,0.114,0.095,0.095,0.171l-0.305,1.086l0.857,0.629
		c0.057,0.038,0.076,0.133,0.038,0.19C20.651,31.142,20.613,31.161,20.575,31.161z"/>
	<path class="st12" d="M21.261,30.685c-0.019,0-0.057,0-0.076-0.019l-0.781-0.552c-0.057-0.038-0.076-0.095-0.057-0.152l0.286-0.972
		c0.019-0.076,0.095-0.114,0.171-0.095s0.114,0.095,0.095,0.171l-0.267,0.857l0.686,0.495c0.057,0.038,0.076,0.133,0.038,0.19
		C21.356,30.666,21.318,30.685,21.261,30.685z M21.928,30.189c-0.019,0-0.057,0-0.076-0.019l-0.591-0.381
		c-0.057-0.038-0.076-0.095-0.057-0.171l0.248-0.705c0.019-0.076,0.095-0.114,0.171-0.076c0.076,0.019,0.114,0.095,0.076,0.171
		l-0.21,0.591l0.495,0.324c0.057,0.038,0.076,0.133,0.038,0.19C22.023,30.17,21.985,30.189,21.928,30.189z"/>
</g>
<path class="st3" d="M1.25,13.714c-0.022,0.022-0.022,0.043-0.043,0.086c-1.099,2.586,1.875,6.315,6.638,8.319
	c4.763,1.983,9.505,1.509,10.604-1.078c0.022-0.022,0.022-0.043,0.022-0.086L1.25,13.714z"/>
<path class="st3" d="M9.591,17.227l-5.798,0.496l0.625,1.832l-2.845,0.323c1.013,1.961,2.845,3.707,5.237,4.72
	c4.763,2.004,9.979,0.431,11.639-3.492c0.022-0.043,0.043-0.086,0.043-0.129L9.591,17.227z"/>
<path class="st3" d="M11.768,18.132l0.388,4.461l-6.099,0.517c0.453,0.388,0.841,0.797,0.841,0.797s-1.789,0.754-2.953,1.25
	c0.625,0.496,1.315,0.905,2.091,1.229c4.763,2.004,10.324-0.366,12.393-5.28c0.022-0.043,0.043-0.108,0.065-0.151L11.768,18.132z"/>
<path class="st13" d="M28.866,23.992c-0.278,0.635-2.071,4.974-7.529,3.192h-0.001c-0.535-0.252-1.085-0.532-1.653-0.842
	c-2.988-1.628-5.624-2.122-8.033-1.501l0.339-0.411l-0.478-0.185l0.418-0.323l-0.657-0.185l0.358-0.508l-0.657-0.185l0.299-0.415
	l-0.597-0.231l0.299-0.415l-0.478-0.185l0.239-0.415l-0.538-0.138l0.239-0.369l-0.474-0.15c3.096-0.777,7.561-0.842,12.94,2.087
	c2.097,1.142,3.461,1.557,4.236,1.704c0.547,0.104,0.991,0.111,1.218,0.02C28.556,24.457,28.728,24.254,28.866,23.992z"/>
<path class="st6" d="M32.421,19.684c0.001,0.51-0.053,1.195-0.129,1.899c-0.14,0.846-0.401,1.868-0.89,2.854l-4.544-4.227
	l0.004-0.067c0,0,0.007-0.14,0.01-0.364c0.013-0.733-0.002-2.363-0.368-2.867c-0.478-0.657,0-0.06,0-0.06s0.896,0.538,1.075,1.195
	c0,0,0.239-0.776,0-1.195c-0.239-0.418,0.836,0.418,0.956,1.135c0,0,0.239-0.776-0.119-1.194c0.025,0.014,0.83,0.483,0.922,1.221
	c0,0,0.392-0.684,0.213-0.983c-0.179-0.299,0.597,0.478,0.657,1.075c0,0,0.299-0.657,0-0.896c0,0,0.717,0.179,0.836,0.956
	c0,0,0.239-0.597,0.119-0.776c0,0,0.657,0.299,0.776,0.836c0,0,0.238-0.297,0.061-0.417c0.021,0.008,0.359,0.167,0.417,1.672
	C32.419,19.544,32.421,19.612,32.421,19.684z"/>
<g>
	<path class="st6" d="M32.421,19.684c0.001,0.51-0.053,1.195-0.129,1.899c-0.14,0.846-0.401,1.868-0.89,2.854
		c-0.572,1.156-1.455,2.263-2.817,2.984c-0.924,0.489-1.947,0.735-3.057,0.735c-0.665,0-1.361-0.088-2.086-0.264
		c-1.384-0.336-2.866-0.988-4.494-1.981c5.457,2.306,7.251-3.309,7.529-4.131c0.001-0.001,0.001-0.002,0.001-0.004
		c0.243-0.593,0.383-1.413,0.383-1.998h0.06L32.421,19.684z"/>
</g>
</svg>
