<?xml version="1.0" encoding="utf-8"?>
<!-- Generator: Adobe Illustrator 24.2.3, SVG Export Plug-In . SVG Version: 6.00 Build 0)  -->
<svg version="1.1" id="Ebene_1" xmlns="http://www.w3.org/2000/svg" xmlns:xlink="http://www.w3.org/1999/xlink" x="0px" y="0px"
	 viewBox="0 0 960 960" style="enable-background:new 0 0 960 960;" xml:space="preserve">
<style type="text/css">
	.st0{fill:url(#SVGID_1_);}
	.st1{fill:url(#SVGID_2_);}
	.st2{fill:url(#SVGID_3_);}
	.st3{fill:url(#SVGID_4_);}
	.st4{fill:url(#SVGID_5_);}
	.st5{fill:url(#SVGID_6_);}
	.st6{fill:url(#SVGID_7_);}
	.st7{fill:url(#SVGID_8_);}
	.st8{fill:url(#SVGID_9_);}
	.st9{fill:url(#SVGID_10_);}
	.st10{fill:url(#SVGID_11_);}
	.st11{fill:url(#SVGID_12_);}
	.st12{fill:url(#SVGID_13_);}
	.st13{fill:url(#SVGID_14_);}
	.st14{fill:url(#SVGID_15_);}
	.st15{fill:url(#SVGID_16_);}
	.st16{fill:url(#SVGID_17_);}
	.st17{fill:url(#SVGID_18_);}
	.st18{fill:url(#SVGID_19_);}
	.st19{fill:url(#SVGID_20_);}
	.st20{fill:url(#SVGID_21_);}
	.st21{fill:url(#SVGID_22_);}
	.st22{fill:url(#SVGID_23_);}
	.st23{fill:url(#SVGID_24_);}
	.st24{fill:url(#SVGID_25_);}
	.st25{fill:url(#SVGID_26_);}
	.st26{fill:url(#SVGID_27_);}
	.st27{fill:url(#SVGID_28_);}
	.st28{fill:url(#SVGID_29_);}
	.st29{fill:url(#SVGID_30_);}
	.st30{fill:url(#SVGID_31_);}
	.st31{fill:url(#SVGID_32_);}
	.st32{fill:url(#SVGID_33_);}
	.st33{fill:url(#SVGID_34_);}
	.st34{fill:url(#SVGID_35_);}
	.st35{fill:url(#SVGID_36_);}
	.st36{fill:url(#SVGID_37_);}
	.st37{fill:url(#SVGID_38_);}
	.st38{fill:url(#SVGID_39_);}
	.st39{clip-path:url(#SVGID_42_);fill:url(#SVGID_43_);}
	.st40{clip-path:url(#SVGID_42_);fill:url(#SVGID_44_);}
	.st41{fill:url(#SVGID_45_);}
	.st42{fill:url(#SVGID_46_);}
	.st43{fill:none;stroke:#53AFA8;stroke-width:0.9921;stroke-linecap:round;stroke-linejoin:round;stroke-miterlimit:10;}
	.st44{fill:url(#SVGID_47_);}
	.st45{fill:url(#SVGID_48_);}
	.st46{fill:url(#SVGID_49_);}
	.st47{fill:url(#SVGID_50_);}
	.st48{fill:url(#SVGID_51_);}
	.st49{fill:url(#SVGID_52_);}
	.st50{fill:url(#SVGID_53_);}
	.st51{fill:url(#SVGID_54_);}
	.st52{fill:url(#SVGID_55_);}
	.st53{fill:url(#SVGID_56_);}
	.st54{fill:url(#SVGID_57_);}
	.st55{fill:url(#SVGID_58_);}
	.st56{fill:url(#SVGID_59_);}
	.st57{fill:url(#SVGID_60_);}
	.st58{fill:url(#SVGID_61_);}
	.st59{fill:url(#SVGID_62_);}
	.st60{fill:url(#SVGID_63_);}
	.st61{fill:url(#SVGID_64_);}
	.st62{fill:url(#SVGID_65_);}
	.st63{fill:url(#SVGID_66_);}
	.st64{fill:url(#SVGID_67_);}
	.st65{fill:url(#SVGID_68_);}
	.st66{fill:url(#SVGID_69_);}
	.st67{fill:url(#SVGID_70_);}
	.st68{fill:url(#SVGID_71_);}
	.st69{fill:url(#SVGID_72_);}
	.st70{fill:url(#SVGID_73_);}
	.st71{fill:url(#SVGID_74_);}
	.st72{fill:url(#SVGID_75_);}
	.st73{fill:url(#SVGID_76_);}
	.st74{fill:url(#SVGID_77_);}
	.st75{fill:url(#SVGID_78_);}
	.st76{fill:url(#SVGID_79_);}
	.st77{clip-path:url(#SVGID_81_);fill:url(#SVGID_82_);}
	.st78{clip-path:url(#SVGID_81_);fill:url(#SVGID_83_);}
	.st79{clip-path:url(#SVGID_85_);fill:url(#SVGID_86_);}
	.st80{clip-path:url(#SVGID_85_);fill:url(#SVGID_87_);}
	.st81{fill:url(#SVGID_88_);}
	.st82{fill:url(#SVGID_89_);}
	.st83{fill:url(#SVGID_90_);}
	.st84{fill:url(#SVGID_91_);}
	.st85{fill:url(#SVGID_92_);}
	.st86{fill:url(#SVGID_93_);}
	.st87{fill:url(#SVGID_94_);}
	.st88{fill:url(#SVGID_95_);}
	.st89{fill:url(#SVGID_96_);}
	.st90{clip-path:url(#SVGID_98_);fill:url(#SVGID_99_);}
	.st91{clip-path:url(#SVGID_98_);fill:url(#SVGID_100_);}
	.st92{fill:url(#SVGID_101_);}
	.st93{fill:url(#SVGID_102_);}
	.st94{fill:url(#SVGID_103_);}
	.st95{fill:url(#SVGID_104_);}
	.st96{fill:url(#SVGID_105_);}
	.st97{fill:url(#SVGID_106_);}
	.st98{fill:url(#SVGID_107_);}
	.st99{fill:url(#SVGID_108_);}
	.st100{fill:url(#SVGID_109_);}
	.st101{fill:url(#SVGID_110_);}
	.st102{fill:url(#SVGID_111_);}
	.st103{fill:url(#SVGID_112_);}
	.st104{fill:url(#SVGID_113_);}
	.st105{fill:url(#SVGID_114_);}
	.st106{fill:url(#SVGID_115_);}
	.st107{fill:url(#SVGID_116_);}
	.st108{fill:url(#SVGID_117_);}
	.st109{fill:url(#SVGID_118_);}
	.st110{fill:url(#SVGID_119_);}
	.st111{fill:url(#SVGID_120_);}
	.st112{fill:url(#SVGID_121_);}
	.st113{fill:url(#SVGID_122_);}
	.st114{fill:none;stroke:#53AFA8;stroke-width:0.7087;stroke-linecap:round;stroke-linejoin:round;stroke-miterlimit:10;}
	.st115{fill:url(#SVGID_123_);}
	.st116{fill:url(#SVGID_124_);}
	.st117{clip-path:url(#SVGID_126_);fill:url(#SVGID_127_);}
	.st118{clip-path:url(#SVGID_126_);fill:url(#SVGID_128_);}
	.st119{fill:url(#SVGID_129_);}
</style>
<linearGradient id="SVGID_1_" gradientUnits="userSpaceOnUse" x1="465.0807" y1="1079.8845" x2="465.0807" y2="587.7073">
	<stop  offset="0" style="stop-color:#FFFFFF"/>
	<stop  offset="1" style="stop-color:#FFFFFF;stop-opacity:0"/>
</linearGradient>
<path class="st0" d="M951,924c2.171-36.187-12.477-191.836-42.257-212.51c-26.944-18.705-60.902-23.978-90.148-38.828
	c-21.206-10.768-39.801-26.634-53.772-45.881c-9.086-12.518-17.215-27.267-31.553-33.072c-6.539-2.647-13.727-3.101-20.769-3.524
	c-50.733-3.042-102.708-5.951-151.392,8.642c-12.094,3.625-23.975,8.329-36.502,9.906c-22.38,2.818-44.597-4.517-66.637-9.315
	c-80.104-17.437-165.586-0.884-237.896,37.741c-28.537,15.244-57.226,34.377-89.58,34.384c-16.337,0.003-33.211-4.922-48.669,0.367
	c-11.358,3.886-20.186,12.756-28.575,21.343c-17.376,17.784-34.752,35.567-52.128,53.351c-9.631,9.856-19.75,20.662-21.786,34.291
	c-1.476,9.878,1.56,19.811,4.56,29.337c15.075,47.878,31.303,97.713,66.673,133.33c42.79,43.088,105.527,57.68,163.895,74.435
	c109.018,31.295,220.331,76.919,331.995,57.034c17.296-3.08,34.826-7.971,48.68-18.774c18.735-14.608,28.558-38.245,46.795-53.47
	c27.233-22.736,66.684-22.104,99.227-36.229c25.658-11.137,46.328-31.172,70.461-45.313c15.314-8.974,32.068-15.47,49.389-19.318
	c15.902-3.533,39.915,1.552,54.02-4.486C938.878,887.232,949.608,947.203,951,924z"/>
<g>
	<linearGradient id="SVGID_2_" gradientUnits="userSpaceOnUse" x1="133.9137" y1="634.5998" x2="506.323" y2="634.5998">
		<stop  offset="0" style="stop-color:#9DCF5B"/>
		<stop  offset="0.1921" style="stop-color:#94CA60"/>
		<stop  offset="0.5054" style="stop-color:#7CBD6C"/>
		<stop  offset="0.8987" style="stop-color:#54A781"/>
		<stop  offset="1" style="stop-color:#49A187"/>
	</linearGradient>
	<path class="st1" d="M446.797,624.507c0.733,4.343,2.629,8.485,5.438,11.878c-5.638-0.512-11.382-2.424-15.269-6.54
		s-5.405-10.747-2.529-15.623c-2.313,3.855-8.53,1.883-11.344-1.623c-2.814-3.506-4.522-8.231-8.552-10.223
		c-2.362-1.168-5.17-1.173-7.525-2.356c-5.834-2.931-8.571-12.563-14.972-11.276c-1.388,0.279-2.618,1.103-4.002,1.399
		c-6.55,1.397-9.111-8.018-13.464-13.108c-5.264-6.155-14.732-6.15-21.763-10.169c-4.102-2.344-7.607-6.173-12.293-6.78
		c-8.868-1.148-15.033,9.57-23.859,11.007c-3.635,0.592-7.327-0.477-11.009-0.456c-3.682,0.021-7.91,1.737-8.72,5.33
		c-0.526,2.334,0.545,4.911-0.399,7.109c-0.844,1.967-3.013,2.964-5.032,3.674c-13.911,4.895-31.112,5.557-39.534,17.663
		c-1.645,2.364-2.998,5.206-5.617,6.404c-1.707,0.78-3.671,0.708-5.538,0.52c-6.147-0.619-12.238-2.328-18.401-1.886
		c-6.162,0.442-12.732,3.782-14.407,9.729c-0.8,2.839-0.479,6.143-2.344,8.428c-3.572,4.375-10.858,0.937-16.171,2.853
		c-2.324,0.838-4.126,2.675-5.808,4.486c-5.052,5.439-10.05,11.344-16.883,14.245c-6.428,2.729-13.727,2.46-20.43,4.42
		c-6.703,1.96-13.421,7.746-12.342,14.645c3.245,0.949,3.302,5.397,3.474,8.773c0.41,8.097,5.23,15.214,9.879,21.856
		c1.504,2.149,3.083,4.368,5.363,5.666c4.192,2.386,10.219,0.545,12.362-3.776c21.493,10.787,50.845-5.785,70.246,8.425
		c0.106-4.955-0.568-9.925-1.99-14.672c16.807,12.287,40.372,14.609,59.254,5.839c3.094-1.437,6.337-3.194,9.71-2.682
		c2.225,0.338,4.167,1.629,6.114,2.755c20.844,12.053,46.902,6.996,70.545,2.441c22.464-4.328,45.07-7.878,67.67-11.427
		c15.607-2.451,69.014-2.772,58.246-32.997c-1.843-5.174-5.037-6.202-9.23-8.918c-7.796-5.05-7.919-7.212-13.766-14.534
		C473.701,624.73,458.888,624.221,446.797,624.507z"/>
	<g>
		<linearGradient id="SVGID_3_" gradientUnits="userSpaceOnUse" x1="158.1096" y1="668.2825" x2="428.3756" y2="668.2825">
			<stop  offset="0" style="stop-color:#9DCF5B"/>
			<stop  offset="0.1921" style="stop-color:#94CA60"/>
			<stop  offset="0.5054" style="stop-color:#7CBD6C"/>
			<stop  offset="0.8987" style="stop-color:#54A781"/>
			<stop  offset="1" style="stop-color:#49A187"/>
		</linearGradient>
		<path class="st2" d="M338.418,705.267c4.267,1.011,8.582,5.888,12.033,3.183c1.368-1.072,1.755-2.937,2.506-4.504
			c2.448-5.109,8.719-6.957,14.329-7.749c5.61-0.792,11.77-1.292,15.853-5.219c3.331-3.204,5.064-8.501,9.514-9.75
			c1.805-0.507,3.729-0.207,5.598-0.363c8.265-0.69,13.783-9.883,22.013-10.902c1.517-0.188,3.093-0.088,4.533-0.602
			c3.179-1.135,4.625-5.55,2.734-8.345c-1.892-2.796-6.528-3.095-8.764-0.566c1.622-2.699-0.52-6.233-3.217-7.859
			c-2.696-1.626-5.951-2.24-8.476-4.121c-2.125-1.583-3.784-4.07-6.389-4.555c-3.05-0.567-5.85,1.898-8.939,2.189
			c-2.008,0.189-3.973-0.556-5.853-1.287c-7.886-3.069-15.871-6.192-22.709-11.178c-3.37-2.457-6.584-5.424-10.636-6.411
			c-3.688-0.898-7.565-0.022-11.35-0.295c-8.049-0.581-14.698-6.151-21.333-10.745c-6.635-4.594-15.06-8.529-22.535-5.487
			c-6.691,2.724-10.44,10.266-17.089,13.093c-2.469,1.05-5.186,1.374-7.715,2.271c-4.975,1.766-8.88,5.6-12.752,9.187
			c-5.661,5.246-11.603,10.188-17.792,14.799c-2.151,1.602-4.407,3.2-7.017,3.813c-1.748,0.411-3.619,0.369-5.256,1.109
			c-2.793,1.263-4.144,4.391-6.237,6.63c-4.838,5.177-13.342,5.314-18.415,10.261c-1.649,1.608-2.887,3.686-4.863,4.868
			c-2.328,1.393-5.214,1.279-7.927,1.331c-12.475,0.238-24.814,5.048-34.158,13.318c1.796,2.91,2.99,6.19,3.485,9.573
			c10.122-0.561,20.129,4.127,30.174,2.756c1.827-0.249,3.658-0.699,5.491-0.502c2.944,0.316,5.429,2.229,7.805,3.996
			c4.727,3.514,9.914,6.81,15.76,7.526c7.976,0.976,16.816-2.845,23.718,1.269c3.582,2.135,5.81,6.044,9.337,8.27
			c3.766,2.377,8.473,2.526,12.926,2.601c11.035,0.186,22.444,0.204,33.089-3.096c4.867-1.509,9.331-3.591,13.026-7.126
			c3.889-3.721,6.173-3.869,11.289-4.375C328.967,711.803,331.699,703.675,338.418,705.267z"/>
		
			<linearGradient id="SVGID_4_" gradientUnits="userSpaceOnUse" x1="304.5498" y1="716.1423" x2="310.4909" y2="799.0881" gradientTransform="matrix(0.9974 0.0714 -0.0714 0.9974 50.1682 -101.1298)">
			<stop  offset="0" style="stop-color:#4FA484"/>
			<stop  offset="0.4905" style="stop-color:#49A187"/>
			<stop  offset="0.9877" style="stop-color:#9DCF5B"/>
		</linearGradient>
		<path class="st3" d="M374.218,665.554c-2.072-0.738-4.307-0.836-6.486-1.144c-14.143-2-26.241-14.108-28.23-28.252
			c-9.194-2.948-19.924-0.423-26.838,6.318c-3.895,3.797-6.573,8.72-10.589,12.389c-4.353,3.978-10.61,7.093-11.392,12.938
			c-0.497,3.713,0.904,8.77-2.52,10.291c-0.898,0.399-1.918,0.38-2.901,0.375c-13.998-0.065-27.981,4.407-39.343,12.582
			c-1.676,1.206-3.472,2.55-5.537,2.509c-2.074-0.041-4.122-1.499-6.084-0.827c-1.189,0.408-1.988,1.502-2.676,2.554
			c-3.098,4.737-5.566,9.886-7.319,15.268c6.462,4.034,13.562,8.226,21.14,7.45c1.906-0.195,3.764-0.705,5.646-1.064
			c2.847-0.543,5.746-0.743,8.638-0.941c23.283-1.597,46.566-3.195,69.85-4.792c2.106-0.144,4.248-0.297,6.22-1.051
			c6.016-2.303,8.474-9.028,13.846-12.19c6.18-3.637,13.905-1.738,20.211-4.86C378.994,688.583,387.867,670.416,374.218,665.554z"/>
		
			<linearGradient id="SVGID_5_" gradientUnits="userSpaceOnUse" x1="663.1804" y1="1486.729" x2="663.1804" y2="1443.9937" gradientTransform="matrix(-0.7309 0.6825 0.6825 0.7309 -190.6958 -816.2258)">
			<stop  offset="0" style="stop-color:#80552E"/>
			<stop  offset="0.7396" style="stop-color:#A3693F"/>
			<stop  offset="1" style="stop-color:#B07145"/>
		</linearGradient>
		<path class="st4" d="M312.357,728.172c0,0-6.28-9-5.563-13.917c0.718-4.917,9.338-16.151,9.981-18.875
			c0.642-2.723-4.011-11.118-3.407-12.745c0.605-1.626,7.449-9.079,7.524-11.272c0.075-2.194-2.043-4.462-2.61-3.933
			s0.492,1.664,0.454,2.761c-0.038,1.097-3.478,5.371-3.478,5.371s-2.761,0.454-3.29-0.113c-0.53-0.567-0.038,1.097,0.492,1.664
			s1.805,0.167,1.805,0.167s-3.582,3.615-4.187,5.242c-0.605,1.626,4.541,11.686,3.407,12.745s-9.759-3.629-10.251-5.293
			s-2.385-10.514-2.99-8.887c-0.605,1.626,0.796,8.812,1.855,9.947c1.059,1.134,6.923,6.277,8.549,6.882
			c1.626,0.605-4.688,8.624-5.255,9.154s-4.239,8.918-8.644,2.588c-4.405-6.329,3.996,5.889,3.996,5.889L312.357,728.172z"/>
		
			<linearGradient id="SVGID_6_" gradientUnits="userSpaceOnUse" x1="392.0614" y1="774.7147" x2="388.7407" y2="704.3083" gradientTransform="matrix(-1 0 0 1 683.9319 0)">
			<stop  offset="0" style="stop-color:#80552E"/>
			<stop  offset="0.7396" style="stop-color:#A3693F"/>
			<stop  offset="1" style="stop-color:#B07145"/>
		</linearGradient>
		<path class="st5" d="M318.284,743.761c0,0,1.235-13.587-2.47-18.528s-35.821-28.41-39.527-33.351
			c-3.706-4.941-2.47-11.117-2.47-11.117s-2.47-3.706-2.47,0s-1.235,9.882,1.235,12.352s38.292,32.115,39.527,35.821
			s2.482,14.839,1.859,21.007C313.343,756.113,318.284,743.761,318.284,743.761z"/>
		<linearGradient id="SVGID_7_" gradientUnits="userSpaceOnUse" x1="284.0609" y1="754.363" x2="284.0609" y2="706.5632">
			<stop  offset="0" style="stop-color:#80552E"/>
			<stop  offset="0.7396" style="stop-color:#A3693F"/>
			<stop  offset="1" style="stop-color:#B07145"/>
		</linearGradient>
		<path class="st6" d="M313.271,754.26c0,0-48.751-10.118-51.511-15.637s-10.118-9.198-11.038-24.836
			c-0.92-15.637,2.76-1.84,4.599,3.679c1.84,5.519,8.279,15.637,11.958,17.477s47.832,11.038,49.671,12.878
			C318.79,749.661,316.03,755.18,313.271,754.26z"/>
		<linearGradient id="SVGID_8_" gradientUnits="userSpaceOnUse" x1="269.3737" y1="738.8807" x2="269.3737" y2="715.5246">
			<stop  offset="0" style="stop-color:#80552E"/>
			<stop  offset="0.7396" style="stop-color:#A3693F"/>
			<stop  offset="1" style="stop-color:#B07145"/>
		</linearGradient>
		<path class="st7" d="M270.038,737.703c0,0,1.84-6.439,0.92-7.359s-6.439-6.439-6.439-8.279s-1.84-7.359,0-6.439
			c1.84,0.92,1.84,5.519,2.76,7.359c0.92,1.84,7.359,3.679,7.359,5.519c0,1.84,0.92,9.198,0,10.118
			C273.717,739.543,270.038,737.703,270.038,737.703z"/>
		<linearGradient id="SVGID_9_" gradientUnits="userSpaceOnUse" x1="269.7686" y1="725.7454" x2="269.7686" y2="719.4046">
			<stop  offset="0" style="stop-color:#80552E"/>
			<stop  offset="0.7396" style="stop-color:#A3693F"/>
			<stop  offset="1" style="stop-color:#B07145"/>
		</linearGradient>
		<path class="st8" d="M268.198,724.826c0,0,0.92-0.92,1.84-3.679c0.92-2.76,1.84-1.84,0.92,0c-0.92,1.84-1.84,4.599-1.84,4.599
			L268.198,724.826z"/>
		
			<linearGradient id="SVGID_10_" gradientUnits="userSpaceOnUse" x1="264.013" y1="738.6351" x2="264.013" y2="694.2023" gradientTransform="matrix(-1 0 0 1 598.026 0)">
			<stop  offset="0" style="stop-color:#80552E"/>
			<stop  offset="0.7396" style="stop-color:#A3693F"/>
			<stop  offset="1" style="stop-color:#B07145"/>
		</linearGradient>
		<path class="st9" d="M325.275,736.822c0,0,15.637-12.878,25.756-28.515c0,0,2.759-3.679,3.679-12.878c0,0-2.76-2.76-3.679,0
			c-0.92,2.76-1.84,10.118-3.679,11.958c-1.84,1.84-9.198,11.958-10.118,11.038c-0.92-0.92-5.519-7.359-5.519-10.118
			s-1.84-3.679-1.84-1.84s0,6.439,1.84,11.038c1.84,4.599,1.84,3.679-0.92,6.439s-17.477,10.118-17.477,11.958
			C313.317,737.741,320.675,740.501,325.275,736.822z"/>
		
			<linearGradient id="SVGID_11_" gradientUnits="userSpaceOnUse" x1="225.6457" y1="131.9494" x2="225.6457" y2="-98.7577" gradientTransform="matrix(-0.6735 0.2107 0.1129 0.3608 471.959 717.7254)">
			<stop  offset="0" style="stop-color:#80552E"/>
			<stop  offset="0.7396" style="stop-color:#A3693F"/>
			<stop  offset="1" style="stop-color:#B07145"/>
		</linearGradient>
		<path class="st10" d="M325.562,780.543c0,0,1.567-44.019-4.891-52.551c-6.457-8.532-12.528-21.049-14.652-24.435
			c-3.778-6.022-5.181-2.032-4.4,0.464c0.781,2.495,8.753,22.527,10.743,25.861c1.99,3.335,4.048,47.437,1.471,54.332
			C311.255,791.107,325.513,785.226,325.562,780.543z"/>
		
			<linearGradient id="SVGID_12_" gradientUnits="userSpaceOnUse" x1="893.9098" y1="1497.0367" x2="893.0847" y2="1479.5427" gradientTransform="matrix(-0.5043 0.8635 0.8635 0.5043 -550.7842 -830.7172)">
			<stop  offset="0" style="stop-color:#80552E"/>
			<stop  offset="0.7396" style="stop-color:#A3693F"/>
			<stop  offset="1" style="stop-color:#B07145"/>
		</linearGradient>
		<path class="st11" d="M282.706,698.19c0,0-2.264-2.417-2.39-4.531c-0.126-2.114-0.248-12.388-0.966-13.488
			c-0.718-1.1-4.776-3.469-4.058-2.37s3.043,1.777,2.958,3.088s0.037,11.585,0.248,12.388c0.211,0.803,1.055,4.017,1.055,4.017
			L282.706,698.19z"/>
		<linearGradient id="SVGID_13_" gradientUnits="userSpaceOnUse" x1="246.5821" y1="723.0056" x2="246.5821" y2="708.3665">
			<stop  offset="0" style="stop-color:#80552E"/>
			<stop  offset="0.7396" style="stop-color:#A3693F"/>
			<stop  offset="1" style="stop-color:#B07145"/>
		</linearGradient>
		<path class="st12" d="M252.561,720.226c0,0-9.198,0-11.038-1.84c-1.84-1.84-2.76-5.519-2.76-8.279s-1.84-1.84-1.84,0
			c0,1.84,0,9.198,1.84,10.118c1.84,0.92,5.519,2.799,13.798,2.779C260.84,722.986,252.561,720.226,252.561,720.226z"/>
	</g>
</g>
<linearGradient id="SVGID_14_" gradientUnits="userSpaceOnUse" x1="376.9177" y1="508.9152" x2="664.2253" y2="508.9152">
	<stop  offset="0" style="stop-color:#9DCF5B"/>
	<stop  offset="0.1921" style="stop-color:#94CA60"/>
	<stop  offset="0.5054" style="stop-color:#7CBD6C"/>
	<stop  offset="0.8987" style="stop-color:#54A781"/>
	<stop  offset="1" style="stop-color:#49A187"/>
</linearGradient>
<path class="st13" d="M457.979,603.464c6.114-4.449,10.712-11.305,17.889-13.686c5.609-1.861,11.999-0.652,17.376-3.105
	c2.501-1.141,4.599-3.001,6.975-4.385c3.559-2.073,7.674-3.03,11.776-3.407c20.099-1.844,40.483,9.551,59.948,4.213
	c12.007-3.293,22.115-12.687,34.523-13.701c9.389-0.767,20.367,3.014,27.324-3.337c3.288-3.001,4.607-7.52,6.619-11.491
	c4.242-8.368,12.178-14.777,21.252-17.161c1.581-6.169,3.174-12.525,2.33-18.837c-0.844-6.312-4.722-12.652-10.831-14.453
	c-5.069-1.494-10.795,0.296-15.661-1.764c-4.262-1.804-6.825-6.106-9.096-10.139c-3.658-6.496-7.316-12.991-10.975-19.487
	c-2.213-3.929-4.744-8.142-8.955-9.753c-3.469-1.327-7.348-0.588-11.046-0.94c-10.552-1.002-17.953-10.342-25.707-17.568
	c-9.649-8.992-21.565-15.533-34.332-18.844c-2.425-0.629-5.026-1.137-7.399-0.334c-4.767,1.613-7.266,8.016-12.293,8.253
	c-2.572,0.122-4.863-1.498-6.923-3.043c-8.409-6.304-16.818-12.608-25.227-18.912c-5.174,3.924-9.618,8.807-13.037,14.328
	c-1.256,2.028-2.488,4.253-4.602,5.359c-1.592,0.833-3.467,0.902-5.262,0.826c-16.423-0.695-34.62-11.433-47.821-1.64
	c-13.064,9.691-9.183,31.879-20.966,43.094c-2.213,2.106-4.913,3.736-6.72,6.198c-5.926,8.076,0.428,20.296-4.11,29.226
	c-1.563,3.074-4.321,5.493-5.468,8.745c-1.099,3.115-0.566,6.539-0.02,9.797c2.301,13.732,4.602,27.465,6.902,41.197
	c1.614,9.633,4.622,20.989,13.883,24.095c4.069,1.365,8.565,0.741,12.71,1.854c5.073,1.362,9.09,5.154,13.753,7.573
	c4.666,2.421,11.953,2.107,16.193,2.636C447.481,605.685,451.551,608.141,457.979,603.464z"/>
<g>
	
		<linearGradient id="SVGID_15_" gradientUnits="userSpaceOnUse" x1="600.3613" y1="741.1576" x2="606.3953" y2="825.3989" gradientTransform="matrix(0.9974 0.0714 -0.0714 0.9974 50.1682 -101.1298)">
		<stop  offset="0" style="stop-color:#4FA484"/>
		<stop  offset="0.4905" style="stop-color:#49A187"/>
		<stop  offset="0.9877" style="stop-color:#9DCF5B"/>
	</linearGradient>
	<path class="st14" d="M668.602,712.117c-2.105-0.75-4.375-0.849-6.587-1.161c-14.364-2.031-26.651-14.328-28.671-28.694
		c-9.338-2.995-20.236-0.429-27.257,6.416c-3.955,3.856-6.676,8.857-10.754,12.583c-4.421,4.04-10.776,7.203-11.57,13.14
		c-0.504,3.771,0.918,8.907-2.559,10.451c-0.912,0.405-1.948,0.386-2.947,0.381c-14.216-0.066-28.418,4.475-39.957,12.779
		c-1.702,1.225-3.527,2.59-5.623,2.548c-2.106-0.042-4.186-1.523-6.179-0.84c-1.208,0.414-2.019,1.525-2.717,2.594
		c-3.146,4.811-5.653,10.04-7.433,15.507c6.563,4.097,13.773,8.355,21.47,7.567c1.936-0.198,3.822-0.716,5.734-1.081
		c2.891-0.552,5.836-0.755,8.773-0.956c23.647-1.622,47.294-3.245,70.941-4.867c2.139-0.147,4.315-0.301,6.317-1.068
		c6.11-2.339,8.606-9.169,14.063-12.38c6.277-3.694,14.122-1.765,20.526-4.935C673.453,735.506,682.465,717.055,668.602,712.117z"/>
	<linearGradient id="SVGID_16_" gradientUnits="userSpaceOnUse" x1="640.006" y1="823.9988" x2="636.6333" y2="752.4926">
		<stop  offset="0" style="stop-color:#80552E"/>
		<stop  offset="0.7396" style="stop-color:#A3693F"/>
		<stop  offset="1" style="stop-color:#B07145"/>
	</linearGradient>
	<path class="st15" d="M613.18,792.561c0,0-1.254-13.799,2.509-18.818c3.763-5.018,36.381-28.854,40.144-33.872
		s2.509-11.291,2.509-11.291s2.509-3.763,2.509,0s1.255,10.036-1.255,12.545c-2.509,2.509-38.89,32.617-40.144,36.381
		c-1.254,3.763-2.521,15.071-1.888,21.335C618.198,805.106,613.18,792.561,613.18,792.561z"/>
	<linearGradient id="SVGID_17_" gradientUnits="userSpaceOnUse" x1="577.037" y1="802.3136" x2="577.037" y2="753.7672">
		<stop  offset="0" style="stop-color:#80552E"/>
		<stop  offset="0.7396" style="stop-color:#A3693F"/>
		<stop  offset="1" style="stop-color:#B07145"/>
	</linearGradient>
	<path class="st16" d="M606.703,802.209c0,0-49.513-10.276-52.316-15.882s-10.276-9.342-11.211-25.224s2.803-1.868,4.671,3.737
		s8.408,15.882,12.145,17.75s48.579,11.21,50.447,13.079S609.505,803.144,606.703,802.209z"/>
	<linearGradient id="SVGID_18_" gradientUnits="userSpaceOnUse" x1="562.1205" y1="786.5895" x2="562.1205" y2="762.8685">
		<stop  offset="0" style="stop-color:#80552E"/>
		<stop  offset="0.7396" style="stop-color:#A3693F"/>
		<stop  offset="1" style="stop-color:#B07145"/>
	</linearGradient>
	<path class="st17" d="M562.795,785.394c0,0,1.868-6.539,0.934-7.474s-6.539-6.539-6.539-8.408s-1.868-7.474,0-6.539
		s1.868,5.605,2.803,7.474s7.474,3.737,7.474,5.605c0,1.868,0.934,9.342,0,10.276S562.795,785.394,562.795,785.394z"/>
	<linearGradient id="SVGID_19_" gradientUnits="userSpaceOnUse" x1="562.5215" y1="773.249" x2="562.5215" y2="766.8091">
		<stop  offset="0" style="stop-color:#80552E"/>
		<stop  offset="0.7396" style="stop-color:#A3693F"/>
		<stop  offset="1" style="stop-color:#B07145"/>
	</linearGradient>
	<path class="st18" d="M560.927,772.315c0,0,0.934-0.934,1.868-3.737s1.868-1.868,0.934,0s-1.868,4.671-1.868,4.671L560.927,772.315
		z"/>
	<linearGradient id="SVGID_20_" gradientUnits="userSpaceOnUse" x1="592.2227" y1="797.5119" x2="592.2227" y2="752.3851">
		<stop  offset="0" style="stop-color:#80552E"/>
		<stop  offset="0.7396" style="stop-color:#A3693F"/>
		<stop  offset="1" style="stop-color:#B07145"/>
	</linearGradient>
	<path class="st19" d="M601.098,795.67c0,0-15.882-13.079-26.158-28.96c0,0-2.803-3.737-3.737-13.079c0,0,2.803-2.803,3.737,0
		c0.934,2.803,1.868,10.276,3.737,12.145s9.342,12.145,10.276,11.211s5.605-7.474,5.605-10.276s1.868-3.737,1.868-1.868
		s0,6.539-1.868,11.211c-1.868,4.671-1.868,3.737,0.934,6.539s17.75,10.276,17.75,12.145S605.769,799.407,601.098,795.67z"/>
	
		<linearGradient id="SVGID_21_" gradientUnits="userSpaceOnUse" x1="-150.973" y1="487.3023" x2="-150.973" y2="252.9917" gradientTransform="matrix(-0.6735 0.2107 0.1129 0.3608 471.959 717.7254)">
		<stop  offset="0" style="stop-color:#80552E"/>
		<stop  offset="0.7396" style="stop-color:#A3693F"/>
		<stop  offset="1" style="stop-color:#B07145"/>
	</linearGradient>
	<path class="st20" d="M619.187,828.902c0,0,1.591-44.707-4.967-53.372c-6.558-8.665-12.724-21.378-14.881-24.817
		c-3.837-6.116-5.262-2.064-4.469,0.471s8.889,22.878,10.911,26.265c2.021,3.387,4.111,48.178,1.494,55.18
		C604.656,839.632,619.136,833.659,619.187,828.902z"/>
	
		<linearGradient id="SVGID_22_" gradientUnits="userSpaceOnUse" x1="1060.4513" y1="1307.1542" x2="1059.6133" y2="1289.387" gradientTransform="matrix(0.5043 0.8635 -0.8635 0.5043 1234.7162 -830.7172)">
		<stop  offset="0" style="stop-color:#80552E"/>
		<stop  offset="0.7396" style="stop-color:#A3693F"/>
		<stop  offset="1" style="stop-color:#B07145"/>
	</linearGradient>
	<path class="st21" d="M649.314,746.279c0,0,2.299-2.455,2.427-4.602c0.128-2.147,0.251-12.582,0.981-13.699
		c0.729-1.117,4.851-3.524,4.121-2.407c-0.729,1.117-3.091,1.805-3.004,3.136c0.086,1.331-0.037,11.766-0.252,12.582
		c-0.214,0.816-1.071,4.08-1.071,4.08L649.314,746.279z"/>
	<linearGradient id="SVGID_23_" gradientUnits="userSpaceOnUse" x1="538.9729" y1="770.4664" x2="538.9729" y2="755.5986">
		<stop  offset="0" style="stop-color:#80552E"/>
		<stop  offset="0.7396" style="stop-color:#A3693F"/>
		<stop  offset="1" style="stop-color:#B07145"/>
	</linearGradient>
	<path class="st22" d="M545.045,767.644c0,0-9.342,0-11.21-1.868s-2.803-5.605-2.803-8.408s-1.868-1.868-1.868,0
		s0,9.342,1.868,10.276s5.605,2.842,14.013,2.823C553.453,770.446,545.045,767.644,545.045,767.644z"/>
</g>
<g>
	
		<linearGradient id="SVGID_24_" gradientUnits="userSpaceOnUse" x1="682.2401" y1="717.9301" x2="938.6497" y2="717.9301" gradientTransform="matrix(0.9997 0.023 -0.023 0.9997 17.5403 -18.4735)">
		<stop  offset="0" style="stop-color:#4FA484"/>
		<stop  offset="0.4905" style="stop-color:#49A187"/>
		<stop  offset="0.9877" style="stop-color:#9DCF5B"/>
	</linearGradient>
	<path class="st23" d="M871.978,743.907c4.8-3.957,10.585-8.169,16.649-6.781c2.247,0.515,4.279,1.78,6.546,2.202
		c4.858,0.905,9.723-2.368,12.237-6.623s3.189-9.311,3.812-14.213c8.646,3.193,19.101,0.695,25.369-6.062
		c2.446-2.637,4.286-6.695,2.355-9.729c-1.21-1.902-3.509-2.744-5.632-3.501c-14.202-5.065-27.723-11.84-41.202-18.598
		c-16.501-8.273-33.002-16.546-49.503-24.819c-3.168-1.588-6.734-3.218-10.128-2.197c-2.225,0.669-3.956,2.374-5.894,3.655
		c-6.284,4.151-14.43,3.699-21.937,3.094c-9.878-0.796-19.757-1.593-29.635-2.389c-7.832-0.631-17.122-0.639-21.773,5.694
		c-3.657,4.981-2.795,11.835-1.768,17.929c-20.087,9.001-40.919,16.339-62.212,21.914c-1.553,0.406-3.19,0.85-4.313,1.996
		c-1.369,1.398-1.657,3.506-1.767,5.46c-0.474,8.412,1.035,16.929,4.37,24.665c0.924,2.142,2.01,4.261,3.637,5.933
		c3.247,3.336,8.104,4.412,12.668,5.332c8.799,1.775,17.598,3.55,26.397,5.325c3.334,0.673,6.786,1.396,9.52,3.419
		c2.642,1.955,4.326,4.911,6.51,7.368c6.168,6.94,15.803,9.444,24.879,11.407c14.654,3.169,40.15,12.801,54.705,7.031
		C841.969,775.035,858.597,754.938,871.978,743.907z"/>
	
		<linearGradient id="SVGID_25_" gradientUnits="userSpaceOnUse" x1="813.3895" y1="712.9551" x2="813.3895" y2="763.2687" gradientTransform="matrix(0.9997 0.023 -0.023 0.9997 17.5403 -18.4735)">
		<stop  offset="0" style="stop-color:#9DCF5B"/>
		<stop  offset="0.1921" style="stop-color:#94CA60"/>
		<stop  offset="0.5054" style="stop-color:#7CBD6C"/>
		<stop  offset="0.8987" style="stop-color:#54A781"/>
		<stop  offset="1" style="stop-color:#49A187"/>
	</linearGradient>
	<path class="st24" d="M758.034,715.869c1.538-1.032,3.159-2.095,5.002-2.287c1.622-0.168,3.222,0.36,4.807,0.742
		c9.721,2.341,19.816-0.757,29.787-1.49c9.971-0.734,21.806,2.228,25.513,11.514c1.182,2.961,1.484,6.452,3.754,8.689
		c1.099,1.083,2.547,1.737,4.003,2.249c15.434,5.43,32.741-3.59,43.047-16.298c3.029,1.761,4.051,5.83,3.307,9.254
		c-0.744,3.424-2.869,6.359-4.943,9.183c-3.071,4.183-6.143,8.366-9.214,12.549c-1.804,2.456-3.692,4.988-6.36,6.461
		c-2.621,1.447-5.714,1.713-8.705,1.858c-21.238,1.032-54.024,8.066-74.517,2.32C756.631,755.879,740.372,727.721,758.034,715.869z"
		/>
	
		<linearGradient id="SVGID_26_" gradientUnits="userSpaceOnUse" x1="975.4412" y1="1448.823" x2="975.4412" y2="1405.8956" gradientTransform="matrix(0.197 0.9804 0.9804 -0.197 -786.1716 86.2263)">
		<stop  offset="0" style="stop-color:#80552E"/>
		<stop  offset="0.7396" style="stop-color:#A3693F"/>
		<stop  offset="1" style="stop-color:#B07145"/>
	</linearGradient>
	<path class="st25" d="M816.658,783.184c0,0-10.813-0.222-14.817-3.43c-4.003-3.207-9.946-15.729-12.051-17.688
		c-2.105-1.959-11.639-3.062-12.794-4.396c-1.156-1.334-4.581-10.477-6.479-11.726c-1.898-1.249-4.87-0.907-4.664-0.197
		c0.206,0.71,1.692,0.539,2.641,1.163c0.949,0.624,3.136,5.508,3.136,5.508s-0.867,2.301-1.61,2.386
		c-0.743,0.086,0.949,0.624,1.692,0.539c0.743-0.086,0.976-1.252,0.976-1.252s1.542,4.63,2.697,5.965
		c1.156,1.334,12.382,2.976,12.794,4.396s-7.677,5.286-9.369,4.747s-10.359-3.943-9.204-2.609c1.156,1.334,8.13,4.2,9.616,4.028
		s8.709-1.736,9.988-2.617s5.448,8.177,5.654,8.887s5.912,8.003-1.687,7.837s7.024,0.23,7.024,0.23L816.658,783.184z"/>
	
		<linearGradient id="SVGID_27_" gradientUnits="userSpaceOnUse" x1="539.6136" y1="788.9796" x2="539.6136" y2="739.4854" gradientTransform="matrix(-0.9997 -0.023 -0.023 0.9997 1382.713 12.9892)">
		<stop  offset="0" style="stop-color:#80552E"/>
		<stop  offset="0.7396" style="stop-color:#A3693F"/>
		<stop  offset="1" style="stop-color:#B07145"/>
	</linearGradient>
	<path class="st26" d="M799.541,788.632c0,0,42.843-9.492,45.386-15.15s9.061-9.318,10.238-25.487
		c1.177-16.169-2.368-1.96-4.107,3.716c-1.739,5.676-7.607,16.021-10.867,17.851c-3.259,1.83-42.062,10.463-43.713,12.33
		C794.828,783.76,797.108,789.529,799.541,788.632z"/>
	
		<linearGradient id="SVGID_28_" gradientUnits="userSpaceOnUse" x1="526.7758" y1="772.9485" x2="526.7758" y2="748.7645" gradientTransform="matrix(-0.9997 -0.023 -0.023 0.9997 1382.713 12.9892)">
		<stop  offset="0" style="stop-color:#80552E"/>
		<stop  offset="0.7396" style="stop-color:#A3693F"/>
		<stop  offset="1" style="stop-color:#B07145"/>
	</linearGradient>
	<path class="st27" d="M837.716,772.363c0,0-1.454-6.702-0.628-7.636c0.826-0.934,5.78-6.536,5.824-8.44
		c0.044-1.904,1.783-7.581,0.154-6.665c-1.63,0.915-1.739,5.676-2.587,7.562c-0.848,1.886-6.518,3.661-6.562,5.565
		s-1.023,9.503-0.241,10.474S837.716,772.363,837.716,772.363z"/>
	
		<linearGradient id="SVGID_29_" gradientUnits="userSpaceOnUse" x1="527.1209" y1="759.3476" x2="527.1209" y2="752.782" gradientTransform="matrix(-0.9997 -0.023 -0.023 0.9997 1382.713 12.9892)">
		<stop  offset="0" style="stop-color:#80552E"/>
		<stop  offset="0.7396" style="stop-color:#A3693F"/>
		<stop  offset="1" style="stop-color:#B07145"/>
	</linearGradient>
	<path class="st28" d="M839.63,759.07c0,0-0.782-0.971-1.52-3.846s-1.564-1.941-0.804-0.019s1.498,4.798,1.498,4.798L839.63,759.07z
		"/>
	
		<linearGradient id="SVGID_30_" gradientUnits="userSpaceOnUse" x1="552.6832" y1="784.0842" x2="552.6832" y2="738.0764" gradientTransform="matrix(-0.9997 -0.023 -0.023 0.9997 1382.713 12.9892)">
		<stop  offset="0" style="stop-color:#80552E"/>
		<stop  offset="0.7396" style="stop-color:#A3693F"/>
		<stop  offset="1" style="stop-color:#B07145"/>
	</linearGradient>
	<path class="st29" d="M804.518,782.078c0,0,13.972-13.016,23.187-28.999c0,0,2.499-3.753,3.523-13.257c0,0-2.346-2.912-3.215-0.074
		c-0.87,2.838-1.849,10.437-3.501,12.304c-1.651,1.867-8.323,12.193-9.105,11.223s-4.647-7.729-4.581-10.585
		c0.066-2.857-1.52-3.846-1.564-1.941c-0.044,1.904-0.154,6.665,1.344,11.463c1.498,4.798,1.52,3.846-0.957,6.647
		c-2.477,2.801-15.514,10.122-15.558,12.026C794.046,782.789,800.411,785.794,804.518,782.078z"/>
	
		<linearGradient id="SVGID_31_" gradientUnits="userSpaceOnUse" x1="-92.1073" y1="515.5349" x2="-92.1073" y2="209.5151" gradientTransform="matrix(0.6685 0.2262 -0.1212 0.3581 894.3425 719.6499)">
		<stop  offset="0" style="stop-color:#80552E"/>
		<stop  offset="0.7396" style="stop-color:#A3693F"/>
		<stop  offset="1" style="stop-color:#B07145"/>
	</linearGradient>
	<path class="st30" d="M789.527,843.63c0,0-1.673-73.638,4.173-82.34c5.846-8.702,11.45-21.537,13.387-24.999
		c3.445-6.158,4.576-1.999,3.834,0.568c-0.742,2.567-8.186,23.143-10.005,26.554c-1.819,3.412-3.315,77.063-1.227,84.252
		C801.777,854.854,789.459,848.479,789.527,843.63z"/>
	
		<linearGradient id="SVGID_32_" gradientUnits="userSpaceOnUse" x1="506.8538" y1="756.5107" x2="506.8538" y2="741.3527" gradientTransform="matrix(-0.9997 -0.023 -0.023 0.9997 1382.713 12.9892)">
		<stop  offset="0" style="stop-color:#80552E"/>
		<stop  offset="0.7396" style="stop-color:#A3693F"/>
		<stop  offset="1" style="stop-color:#B07145"/>
	</linearGradient>
	<path class="st31" d="M853.405,754.623c0,0,8.038,0.185,9.69-1.682c1.652-1.867,2.543-5.658,2.609-8.514s1.651-1.867,1.608,0.037
		c-0.044,1.904-0.219,9.522-1.849,10.437c-1.63,0.915-4.89,2.786-12.123,2.599S853.405,754.623,853.405,754.623z"/>
</g>
<g>
	<linearGradient id="SVGID_33_" gradientUnits="userSpaceOnUse" x1="442.3627" y1="713.8826" x2="441.3694" y2="692.8224">
		<stop  offset="0" style="stop-color:#80552E"/>
		<stop  offset="0.7396" style="stop-color:#A3693F"/>
		<stop  offset="1" style="stop-color:#B07145"/>
	</linearGradient>
	<path class="st32" d="M449.616,706.333c0,0-1.138-3.821-3.26-5.235s-12.728-7.778-13.435-9.193c-0.707-1.414-0.707-7.071,0-5.657
		s0,4.243,1.414,4.95s12.021,7.071,12.728,7.778c0.707,0.707,3.536,3.536,3.536,3.536L449.616,706.333z"/>
	
		<linearGradient id="SVGID_34_" gradientUnits="userSpaceOnUse" x1="-324.2863" y1="1016.6664" x2="-324.2863" y2="853.6525" gradientTransform="matrix(-0.9989 0.0471 0.0471 0.9989 86.4868 -110.8323)">
		<stop  offset="0" style="stop-color:#80552E"/>
		<stop  offset="0.7396" style="stop-color:#A3693F"/>
		<stop  offset="1" style="stop-color:#B07145"/>
	</linearGradient>
	<path class="st33" d="M457.789,827.741c0,0,4.084-92.703,0.361-108.109c-3.723-15.406-6.426-36.566-7.548-42.494
		c-1.996-10.543-3.842-5.212-3.651-1.176s3.101,37.16,4.124,42.955c1.022,5.795-0.137,100.158-3.451,109.303
		C444.309,837.366,456.917,834.674,457.789,827.741z"/>
	
		<linearGradient id="SVGID_35_" gradientUnits="userSpaceOnUse" x1="-330.1244" y1="842.1838" x2="-330.1244" y2="784.6792" gradientTransform="matrix(-0.9989 0.0471 0.0471 0.9989 86.4868 -110.8323)">
		<stop  offset="0" style="stop-color:#4FA484"/>
		<stop  offset="0.4905" style="stop-color:#49A187"/>
		<stop  offset="0.9877" style="stop-color:#9DCF5B"/>
	</linearGradient>
	<path class="st34" d="M438.354,691.296c0,0-33.624-22.483-31.232-31.798c2.392-9.316,8.549-13.853,18.571-11.495
		c10.022,2.359,23.102,9.529,29.866,2.839c6.763-6.69,47.771-22.782,42.687-10.508c-5.084,12.274,7.19,17.359-10.269,22.429
		c-17.458,5.071,4.738,10.395-9.895,15.333s-3.772,10.089-12.887,11.934C456.079,691.876,450.828,700.618,438.354,691.296z"/>
	<g>
		
			<linearGradient id="SVGID_36_" gradientUnits="userSpaceOnUse" x1="488.7177" y1="818.498" x2="488.7177" y2="652.279" gradientTransform="matrix(-1 0 0 1 1175.9617 0)">
			<stop  offset="0" style="stop-color:#4FA484"/>
			<stop  offset="0.4905" style="stop-color:#49A187"/>
			<stop  offset="0.9877" style="stop-color:#9DCF5B"/>
		</linearGradient>
		<path class="st35" d="M697.683,759.473c0,0,28.848-7.071,32.384-17.678c3.536-10.607,24.749-12.728,21.214-27.578
			c-3.536-14.849,9.9-24.749,4.95-37.477s-19.092-28.285-28.992-57.984s-21.214-28.285-24.749-10.607
			c-3.536,17.678-14.142,21.214-18.385,24.749c-4.243,3.536-43.841,12.728-45.256,31.113c-1.414,18.385-6.364,25.456-10.607,27.578
			c-4.243,2.121-15.557,19.799-9.193,27.578s38.892,28.992,32.527,40.306S699.241,734.723,697.683,759.473z"/>
		<linearGradient id="SVGID_37_" gradientUnits="userSpaceOnUse" x1="650.5118" y1="697.3749" x2="755.9714" y2="697.3749">
			<stop  offset="0" style="stop-color:#4FA484"/>
			<stop  offset="0.4905" style="stop-color:#49A187"/>
			<stop  offset="0.9877" style="stop-color:#9DCF5B"/>
		</linearGradient>
		<path class="st36" d="M662.732,741.607c-5.985-2.999-11.165-8.424-12.07-15.057c-0.606-4.445,0.728-8.9,2.046-13.189
			c3.396-11.047,7.097-22.603,15.444-30.596c3.57-3.419,7.832-6.016,12.056-8.584c3.066-1.864,6.131-3.727,9.197-5.591
			c3.464-2.106,7.865-4.236,11.329-2.131c3.377-7.613,7.901-14.716,13.373-20.995c3.085-1.5,6.263,1.862,7.852,4.902
			c1.589,3.04,3.853,6.755,7.255,6.314c1.179-0.153,2.219-0.82,3.224-1.456c3.562-2.251,7.387-4.352,11.58-4.774
			c4.193-0.422,8.846,1.216,10.872,4.911c1.991,3.632,0.993,8.239-1.037,11.849c-2.031,3.611-4.982,6.621-7.182,10.131
			c-2.974,4.742-4.481,10.227-6.478,15.456c-3.673,9.619-9.055,18.476-14.407,27.273c-6.281,10.324-13.015,21.096-23.566,26.991
			C691.057,753.297,673.52,747.012,662.732,741.607z"/>
		
			<linearGradient id="SVGID_38_" gradientUnits="userSpaceOnUse" x1="418.0915" y1="643.3419" x2="418.0915" y2="577.2974" gradientTransform="matrix(0.9258 -0.3781 0.3781 0.9258 92.0444 342.6548)">
			<stop  offset="0" style="stop-color:#80552E"/>
			<stop  offset="0.7396" style="stop-color:#A3693F"/>
			<stop  offset="1" style="stop-color:#B07145"/>
		</linearGradient>
		<path class="st37" d="M698.524,765.52c0,0-5.948-39.765-2.893-48.572s12.947-22.652,11.575-24.748
			c-1.373-2.096-4.837,0.528-4.826,2.035s-10.479,17.282-11.822,18.435c-1.343,1.153-1.212,19.242-0.614,22.928
			c0.599,3.686-0.998,7.895-4.198,4.673C682.548,737.048,698.524,765.52,698.524,765.52z"/>
		
			<linearGradient id="SVGID_39_" gradientUnits="userSpaceOnUse" x1="534.2669" y1="584.5318" x2="534.2669" y2="439.2797" gradientTransform="matrix(0.6423 -0.7665 0.7665 0.6423 8.2792 877.3637)">
			<stop  offset="0" style="stop-color:#80552E"/>
			<stop  offset="0.7396" style="stop-color:#A3693F"/>
			<stop  offset="1" style="stop-color:#B07145"/>
		</linearGradient>
		<path class="st38" d="M740,837c0,0-51.603-81.529-54.387-99.744c-2.785-18.215,1.736-51.545-2.598-53.943
			c-4.334-2.398-7.968,5.385-6.558,8.01c1.41,2.625-2.375,39.88-3.659,43.135c-1.284,3.255,15.634,34.757,20.081,40.649
			c4.447,5.892,26.688,58.574,18.122,55.893S740,837,740,837z"/>
	</g>
	<g>
		<defs>
			<path id="SVGID_40_" d="M417.277,679.713c0.331-0.497,5.101-9.635,12.091-7.368c0,0,12.468-6.99,12.846,2.456
				s6.423,4.156,7.557,9.446s-5.856,13.224-14.169,7.746c-8.312-5.479-14.169-5.856-16.058-3.023
				C417.655,691.804,414.255,684.247,417.277,679.713z"/>
		</defs>
		<linearGradient id="SVGID_41_" gradientUnits="userSpaceOnUse" x1="432.9831" y1="702.0321" x2="432.9831" y2="678.0468">
			<stop  offset="0" style="stop-color:#9DCF5B"/>
			<stop  offset="0.1921" style="stop-color:#94CA60"/>
			<stop  offset="0.5054" style="stop-color:#7CBD6C"/>
			<stop  offset="0.8987" style="stop-color:#54A781"/>
			<stop  offset="1" style="stop-color:#49A187"/>
		</linearGradient>
		<use xlink:href="#SVGID_40_"  style="overflow:visible;fill:url(#SVGID_41_);"/>
		<clipPath id="SVGID_42_">
			<use xlink:href="#SVGID_40_"  style="overflow:visible;"/>
		</clipPath>
		<linearGradient id="SVGID_43_" gradientUnits="userSpaceOnUse" x1="432.9831" y1="702.0321" x2="432.9831" y2="678.0468">
			<stop  offset="0" style="stop-color:#9DCF5B"/>
			<stop  offset="0.1921" style="stop-color:#94CA60"/>
			<stop  offset="0.5054" style="stop-color:#7CBD6C"/>
			<stop  offset="0.8987" style="stop-color:#54A781"/>
			<stop  offset="1" style="stop-color:#49A187"/>
		</linearGradient>
		<path class="st39" d="M417.277,679.713c0.331-0.497,5.101-9.635,12.091-7.368c0,0,12.468-6.99,12.846,2.456
			s6.423,4.156,7.557,9.446s-5.856,13.224-14.169,7.746c-8.312-5.479-14.169-5.856-16.058-3.023
			C417.655,691.804,414.255,684.247,417.277,679.713z"/>
		<linearGradient id="SVGID_44_" gradientUnits="userSpaceOnUse" x1="423.1229" y1="710.8087" x2="423.1229" y2="667.6316">
			<stop  offset="0" style="stop-color:#9DCF5B"/>
			<stop  offset="0.1921" style="stop-color:#94CA60"/>
			<stop  offset="0.5054" style="stop-color:#7CBD6C"/>
			<stop  offset="0.8987" style="stop-color:#54A781"/>
			<stop  offset="1" style="stop-color:#49A187"/>
		</linearGradient>
		<path class="st40" d="M446.937,675.368c0,0-9.068,10.957-17.569,11.713s-11.166,8.984-11.166,8.984s-19.06-8.606-19.627-9.361
			c-0.567-0.756,10.201-33.816,11.146-33.816c0.945,0,37.972,14.547,37.972,15.302C447.693,668.945,446.937,675.368,446.937,675.368
			z"/>
	</g>
	<linearGradient id="SVGID_45_" gradientUnits="userSpaceOnUse" x1="467.8412" y1="719.525" x2="465.9402" y2="679.2195">
		<stop  offset="0" style="stop-color:#80552E"/>
		<stop  offset="0.7396" style="stop-color:#A3693F"/>
		<stop  offset="1" style="stop-color:#B07145"/>
	</linearGradient>
	<path class="st41" d="M452.72,701.805c0,0-0.707-7.778,1.414-10.607c2.121-2.828,20.506-16.264,22.628-19.092
		c2.121-2.828,1.414-6.364,1.414-6.364s1.414-2.121,1.414,0c0,2.121,0.707,5.657-0.707,7.071s-21.921,18.385-22.628,20.506
		c-0.707,2.121-1.421,8.495-1.064,12.026S452.72,701.805,452.72,701.805z"/>
</g>
<linearGradient id="SVGID_46_" gradientUnits="userSpaceOnUse" x1="493.9736" y1="1010.9637" x2="768.4609" y2="1010.9637" gradientTransform="matrix(-1 0 0 -1 1360.4534 1893.0588)">
	<stop  offset="0" style="stop-color:#9DCF5B"/>
	<stop  offset="0.1921" style="stop-color:#94CA60"/>
	<stop  offset="0.5054" style="stop-color:#7CBD6C"/>
	<stop  offset="0.8987" style="stop-color:#54A781"/>
	<stop  offset="1" style="stop-color:#49A187"/>
</linearGradient>
<path class="st42" d="M683.355,844.532c-4.333-1.027-8.717-5.98-12.221-3.233c-1.389,1.089-1.783,2.983-2.545,4.575
	c-2.486,5.189-8.855,7.066-14.552,7.87c-5.697,0.804-11.954,1.312-16.101,5.3c-3.383,3.254-5.143,8.634-9.662,9.902
	c-1.833,0.515-3.787,0.21-5.685,0.368c-8.394,0.701-13.998,10.037-22.357,11.073c-1.541,0.191-3.142,0.089-4.604,0.611
	c-3.229,1.152-4.698,5.636-2.777,8.476c1.921,2.839,6.63,3.144,8.9,0.575c-1.647,2.742,0.529,6.33,3.267,7.982
	s6.044,2.275,8.609,4.185c2.158,1.607,3.843,4.134,6.489,4.626c3.098,0.576,5.941-1.928,9.079-2.223
	c2.039-0.192,4.035,0.565,5.944,1.307c8.009,3.117,16.119,6.289,23.063,11.352c3.423,2.496,6.687,5.508,10.802,6.511
	c3.745,0.913,7.683,0.022,11.527,0.3c8.175,0.59,14.927,6.247,21.666,10.913c6.738,4.666,15.295,8.663,22.887,5.572
	c6.796-2.766,10.603-10.426,17.356-13.297c2.508-1.066,5.267-1.395,7.835-2.307c5.052-1.793,9.019-5.687,12.951-9.331
	c5.75-5.328,11.785-10.347,18.07-15.03c2.184-1.627,4.475-3.25,7.127-3.873c1.776-0.417,3.676-0.375,5.338-1.127
	c2.837-1.282,4.209-4.459,6.335-6.734c4.914-5.258,13.551-5.397,18.703-10.422c1.674-1.633,2.932-3.744,4.939-4.944
	c2.365-1.415,5.296-1.299,8.051-1.351c12.67-0.241,25.201-5.127,34.691-13.526c-1.824-2.955-3.037-6.286-3.54-9.723
	c-10.28,0.569-20.444-4.191-30.645-2.799c-1.855,0.253-3.715,0.71-5.577,0.51c-2.99-0.321-5.514-2.264-7.927-4.058
	c-4.8-3.569-10.069-6.917-16.006-7.643c-8.1-0.991-17.079,2.89-24.089-1.289c-3.638-2.169-5.901-6.138-9.482-8.399
	c-3.825-2.414-8.605-2.566-13.128-2.642c-11.208-0.189-22.795-0.207-33.606,3.144c-4.943,1.532-9.477,3.647-13.23,7.237
	c-3.95,3.779-6.269,3.929-11.465,4.443C692.954,837.894,690.179,846.15,683.355,844.532z"/>
<g>
	<linearGradient id="SVGID_47_" gradientUnits="userSpaceOnUse" x1="393.5053" y1="970.1385" x2="393.5053" y2="797.0991">
		<stop  offset="0" style="stop-color:#4FA484"/>
		<stop  offset="0.4905" style="stop-color:#49A187"/>
		<stop  offset="0.9877" style="stop-color:#9DCF5B"/>
	</linearGradient>
	<path class="st44" d="M382.638,908.691c0,0-30.032-7.361-33.712-18.403s-25.765-13.25-22.084-28.709
		c3.681-15.459-10.306-25.765-5.153-39.015c5.153-13.25,19.876-29.445,30.182-60.363c10.306-30.918,22.084-29.445,25.765-11.042
		c3.681,18.403,14.723,22.084,19.139,25.765c4.417,3.681,45.64,13.25,47.113,32.39c1.472,19.139,6.625,26.501,11.042,28.709
		c4.417,2.208,16.195,20.612,9.57,28.709s-40.487,30.181-33.862,41.96C437.262,920.469,381.016,882.926,382.638,908.691z"/>
</g>
<linearGradient id="SVGID_48_" gradientUnits="userSpaceOnUse" x1="514.0558" y1="652.5854" x2="514.0558" y2="562.3519" gradientTransform="matrix(-0.6423 -0.7665 -0.7665 0.6423 1167.6825 877.3637)">
	<stop  offset="0" style="stop-color:#4FA484"/>
	<stop  offset="0.4905" style="stop-color:#49A187"/>
	<stop  offset="0.9877" style="stop-color:#9DCF5B"/>
</linearGradient>
<path class="st45" d="M374.84,889.568c-1.324-0.255-2.655-0.533-3.995-0.843c-1.662-0.384-3.389-0.834-4.665-1.967
	c-1.587-1.408-2.194-3.609-3.487-5.291c-2.494-3.244-7.315-4.307-9.208-7.935c-1.268-2.431-0.857-5.35-1.13-8.078
	c-0.437-4.366-2.662-8.323-3.993-12.504c-1.331-4.182-1.581-9.248,1.394-12.473c3.158-3.425,8.764-3.516,12.083-6.786
	c2.496-2.459,3.162-6.156,4.138-9.521c0.977-3.365,2.792-6.99,6.165-7.938c1.037-0.291,2.131-0.295,3.189-0.496
	c4.158-0.788,7.457-4.532,11.686-4.695c3.54-0.136,6.609,2.272,9.321,4.551c-1.312-1.776,1.488-4.19,3.568-3.448
	s3.129,2.998,4.025,5.015c1.471,3.31,3.202,6.664,6.077,8.868c2.875,2.204,7.19,2.92,10.089,0.75
	c1.338,1.546,3.058,2.759,4.965,3.498c2.357-1.199,2.181-6.366,4.702-5.567c0.882,0.279,1.285,1.286,1.487,2.189
	c0.852,3.825,0.147,7.908,1.29,11.656c1.405,4.604,5.399,8.055,6.874,12.637c0.939,2.917,0.782,6.057,0.615,9.117
	c-0.255,4.671-0.548,9.491-2.631,13.68c-2.215,4.456-6.213,7.716-10.093,10.833c-4.011,3.222-8.022,6.444-12.033,9.665
	c-1.218,0.979-2.533,1.998-4.089,2.148c-1.135,0.109-2.255-0.263-3.334-0.631C396.813,892.246,386.074,891.733,374.84,889.568z"/>
<linearGradient id="SVGID_49_" gradientUnits="userSpaceOnUse" x1="-258.2106" y1="1168.0272" x2="-258.2106" y2="1033.2178" gradientTransform="matrix(-0.9989 0.0471 0.0471 0.9989 86.4868 -110.8323)">
	<stop  offset="0" style="stop-color:#80552E"/>
	<stop  offset="0.7396" style="stop-color:#A3693F"/>
	<stop  offset="1" style="stop-color:#B07145"/>
</linearGradient>
<path class="st46" d="M397.619,991.75c0,0,9.084-64.703,5.361-80.109c-3.723-15.406-6.426-36.566-7.548-42.494
	c-1.996-10.543-3.842-5.212-3.651-1.176s3.101,37.16,4.124,42.955c1.022,5.795-5.137,72.158-8.451,81.303
	C384.139,1001.376,396.747,998.683,397.619,991.75z"/>
<g>
	
		<linearGradient id="SVGID_50_" gradientUnits="userSpaceOnUse" x1="2039.8552" y1="1507.9683" x2="2039.8552" y2="1602.6108" gradientTransform="matrix(0.9976 -0.0687 0.0687 0.9976 -1649.845 -865.0176)">
		<stop  offset="0" style="stop-color:#9DCF5B"/>
		<stop  offset="0.1921" style="stop-color:#94CA60"/>
		<stop  offset="0.5054" style="stop-color:#7CBD6C"/>
		<stop  offset="0.8987" style="stop-color:#54A781"/>
		<stop  offset="1" style="stop-color:#49A187"/>
	</linearGradient>
	<path class="st47" d="M392.892,561.041c-0.613,2.529,0.102,5.17,0.813,7.673c2.575-1.809,6.228-0.596,8.679,1.378
		c2.451,1.974,4.357,4.642,7.098,6.189c2.453,1.384,5.338,1.735,8.143,1.991c8.068,0.737,16.186,0.918,24.279,0.54
		c1.823-0.085,3.679-0.195,5.446,0.26c2.433,0.627,4.458,2.259,6.639,3.507c5.592,3.201,12.571,3.869,18.669,1.786
		c5.489,8.676,17.573,10.59,27.645,8.599c10.072-1.991,19.396-6.926,29.501-8.738c6.04-1.083,12.352-1.052,18.068-3.284
		c3.495-1.365,6.632-3.53,10.117-4.921c3.066-1.224,6.338-1.824,9.531-2.665c8-2.106,15.509-5.721,22.96-9.315
		c1.829-0.882,3.989-2.834,2.835-4.504c-0.713-1.032-2.199-1.014-3.421-1.299c-5.817-1.355-6.23-10.028-11.155-13.408
		c-5.943-4.079-15.925,1.123-20.476-4.467c-1.41-1.731-1.828-4.122-3.297-5.803c-2.041-2.338-5.492-2.698-8.232-4.157
		c-4.692-2.5-6.854-7.896-9.484-12.515c-3.837-6.74-9.359-12.512-15.923-16.642c-3.292-2.072-7.034-3.776-10.917-3.542
		c-3.882,0.234-7.827,2.935-8.362,6.787c-7.327,1.539-14.18,5.27-19.449,10.588c-2.828,2.854-5.307,6.443-5.355,10.46
		c-0.014,1.145,0.155,2.372-0.414,3.366c-1.407,2.461-5.071,1.046-7.847,0.471c-6.127-1.268-11.749,3.317-16.48,7.412
		s-10.908,8.259-16.773,6.08c-2.297-0.853-4.231-2.623-6.634-3.101c-1.811-0.36-3.689,0.062-5.425,0.691
		c-4.782,1.734-8.955,5.099-11.664,9.404c-0.856,1.36-1.638,2.881-3.036,3.674c-1.73,0.982-3.873,0.57-5.861,0.68
		C399.856,554.398,393.697,557.722,392.892,561.041z"/>
</g>
<linearGradient id="SVGID_51_" gradientUnits="userSpaceOnUse" x1="488.3434" y1="978.2352" x2="488.3434" y2="658.6536" gradientTransform="matrix(1.3816 0 0 1.4436 -215.6935 -292.1753)">
	<stop  offset="1.331947e-07" style="stop-color:#FFFFFF"/>
	<stop  offset="1" style="stop-color:#FFFFFF;stop-opacity:0"/>
</linearGradient>
<path class="st48" d="M872.109,845.991c-9.2-2.078-18.747-2.213-27.779-5.043c-14.58-4.569-26.545-15.69-39.436-24.442
	c-63.447-43.075-146.902-27.749-215.882-58.979c-31.163-14.109-58.223-37.243-88.528-53.442
	c-34.312-18.341-72.023-27.411-109.322-36.328c-14.578-3.485-29.204-6.978-44.07-8.381c-74.527-7.034-144.254,38.439-204.586,86.904
	c-24.232,19.465-48.304,40.101-65.828,66.846c-17.171,26.205-28.669,58.828-53.804,75.621
	c-16.529,11.044-37.738,14.178-50.877,29.759c-13.813,16.381-14.269,41.087-13.932,63.39c0.284,18.791,0.567,37.582,0.851,56.373
	c0.083,5.532,0.187,11.188,1.944,16.375c2.315,6.836,7.263,12.171,12.377,16.835c46.413,42.328,112.002,45.231,172.376,46.128
	c37.451,0.557,74.903,1.113,112.354,1.67c68.734,1.021,137.628,2.036,206.062-5.072c91.992-9.555,182.699-33.855,268.34-71.887
	c30.617-13.597,61.195-29.117,94.037-33.05c42.34-5.069,123.467,9.19,133.119-58.051
	C965.864,907.059,907.258,853.929,872.109,845.991z"/>
<g>
	<g>
		<linearGradient id="SVGID_52_" gradientUnits="userSpaceOnUse" x1="474.9566" y1="641.9543" x2="474.9566" y2="599.2189">
			<stop  offset="0" style="stop-color:#80552E"/>
			<stop  offset="0.7396" style="stop-color:#A3693F"/>
			<stop  offset="1" style="stop-color:#B07145"/>
		</linearGradient>
		<path class="st49" d="M496.164,627.361c0,0-1.552-10.864-5.432-13.968c-3.88-3.104-17.848-5.432-20.176-6.984
			c-2.328-1.552-4.656-10.864-6.208-11.64s-11.64-1.552-13.192-3.104c-1.552-1.552-1.552-4.656-0.776-4.656
			c0.776,0,0.776,1.552,1.552,2.328s6.208,1.552,6.208,1.552s2.328-1.552,2.328-2.328s0.776,0.776,0.776,1.552
			c0,0.776-1.205,1.354-1.205,1.354s5.085,0.198,6.637,0.974c1.552,0.776,4.656,11.64,6.208,11.64c1.552,0,4.656-9.312,3.88-10.864
			c-0.776-1.552-5.432-9.312-3.88-8.536c1.552,0.776,5.432,6.984,5.432,8.536c0,1.552-0.776,9.312-1.552,10.864
			c-0.776,1.552,9.312,3.104,10.088,3.104c0.776,0,8.415,2.872,10.088-4.656c1.552-6.984,3.104,7.76,3.104,7.76L496.164,627.361z"/>
		
			<linearGradient id="SVGID_53_" gradientUnits="userSpaceOnUse" x1="533.5776" y1="698.7351" x2="530.2568" y2="628.3286" gradientTransform="matrix(0.9993 0.0366 -0.0366 0.9993 18.2705 -52.5979)">
			<stop  offset="0" style="stop-color:#80552E"/>
			<stop  offset="0.7396" style="stop-color:#A3693F"/>
			<stop  offset="1" style="stop-color:#B07145"/>
		</linearGradient>
		<path class="st50" d="M500.63,633.315c0,0-0.737-13.623,3.148-18.425c3.884-4.802,36.838-27.078,40.722-31.88
			c3.884-4.802,2.876-11.019,2.876-11.019s2.605-3.613,2.469,0.091c-0.136,3.703,0.872,9.92-1.687,12.299
			c-2.559,2.378-39.442,30.691-40.813,34.349s-3.024,14.738-2.627,20.925C505.115,645.839,500.63,633.315,500.63,633.315z"/>
		<path class="st114" d="M447.003,571.856c0,0,14.345,75.225,46.534,58.431c0,0,8.572,55.107,27.466,36.563"/>
		<linearGradient id="SVGID_54_" gradientUnits="userSpaceOnUse" x1="525.1906" y1="742.5156" x2="525.1906" y2="665.4039">
			<stop  offset="0" style="stop-color:#80552E"/>
			<stop  offset="0.7396" style="stop-color:#A3693F"/>
			<stop  offset="1" style="stop-color:#B07145"/>
		</linearGradient>
		<path class="st51" d="M504.559,716.183c0,0,10.497-43.386,18.194-52.133c7.697-8.747,25.687-20.092,25.09-23.167
			c-0.598-3.075-5.846-1.675-6.546,0.074c-0.7,1.749-20.293,15.045-22.393,15.745s-10.496,21.693-11.546,26.241
			c-1.05,4.548-1.939,8.032-4.119,2.792C501.06,680.495,504.559,716.183,504.559,716.183z"/>
		<linearGradient id="SVGID_55_" gradientUnits="userSpaceOnUse" x1="509.1789" y1="984.3792" x2="509.1789" y2="669.2081">
			<stop  offset="0" style="stop-color:#80552E"/>
			<stop  offset="0.7396" style="stop-color:#A3693F"/>
			<stop  offset="1" style="stop-color:#B07145"/>
		</linearGradient>
		<path class="st52" d="M507.708,862.784c0,0-28.341-150.1-21.343-186.488c6.998-36.388,10.979-86.1,12.946-100.067
			c3.499-24.842,8.397-12.596,8.397-3.149c0,9.447-3.149,87.121-4.898,100.766s19.943,167.944,28.69,188.937
			C540.247,883.777,510.507,878.879,507.708,862.784z"/>
		<g>
			<defs>
				<path id="SVGID_125_" d="M524.852,632.974c0.614-0.921,9.447-17.844,22.393-13.646c0,0,23.092-12.946,23.792,4.549
					c0.7,17.494,11.896,7.697,13.995,17.494c2.099,9.797-10.846,24.492-26.241,14.345c-15.395-10.147-26.241-10.846-29.74-5.598
					C525.552,655.367,519.254,641.371,524.852,632.974z"/>
			</defs>
			<clipPath id="SVGID_56_">
				<use xlink:href="#SVGID_125_"  style="overflow:visible;"/>
			</clipPath>
			<linearGradient id="SVGID_57_" gradientUnits="userSpaceOnUse" x1="553.9401" y1="599.5485" x2="553.9401" y2="643.9711">
				<stop  offset="0" style="stop-color:#9DCF5B"/>
				<stop  offset="0.1921" style="stop-color:#94CA60"/>
				<stop  offset="0.5054" style="stop-color:#7CBD6C"/>
				<stop  offset="0.8987" style="stop-color:#54A781"/>
				<stop  offset="1" style="stop-color:#49A187"/>
			</linearGradient>
			<path style="clip-path:url(#SVGID_56_);fill:url(#SVGID_57_);" d="M524.852,632.974c0.614-0.921,9.447-17.844,22.393-13.646
				c0,0,23.092-12.946,23.792,4.549c0.7,17.494,11.896,7.697,13.995,17.494c2.099,9.797-10.846,24.492-26.241,14.345
				c-15.395-10.147-26.241-10.846-29.74-5.598C525.552,655.367,519.254,641.371,524.852,632.974z"/>
			<linearGradient id="SVGID_58_" gradientUnits="userSpaceOnUse" x1="535.6783" y1="690.5655" x2="535.6783" y2="610.5985">
				<stop  offset="0" style="stop-color:#9DCF5B"/>
				<stop  offset="0.1921" style="stop-color:#94CA60"/>
				<stop  offset="0.5054" style="stop-color:#7CBD6C"/>
				<stop  offset="0.8987" style="stop-color:#54A781"/>
				<stop  offset="1" style="stop-color:#49A187"/>
			</linearGradient>
			<path style="clip-path:url(#SVGID_56_);fill:url(#SVGID_58_);" d="M579.784,624.927c0,0-16.794,20.293-32.539,21.693
				s-20.68,16.638-20.68,16.638s-35.301-15.938-36.351-17.338s18.894-62.629,20.643-62.629c1.749,0,70.327,26.941,70.327,28.341
				S579.784,624.927,579.784,624.927z"/>
		</g>
	</g>
</g>
<linearGradient id="SVGID_59_" gradientUnits="userSpaceOnUse" x1="-29.9506" y1="904.2217" x2="957.564" y2="904.2217">
	<stop  offset="0" style="stop-color:#9DCF5B"/>
	<stop  offset="0.1921" style="stop-color:#94CA60"/>
	<stop  offset="0.5054" style="stop-color:#7CBD6C"/>
	<stop  offset="0.8987" style="stop-color:#54A781"/>
	<stop  offset="1" style="stop-color:#49A187"/>
</linearGradient>
<path class="st56" d="M-1.541,818.207c3.665,2.078,7.329,4.156,10.994,6.233c3.238-11.326,15.619-17.513,27.246-19.402
	s23.739-0.889,35.006-4.324c17.17-5.234,36.891-19.861,50.223-7.843c27.364-8.976,54.728-17.952,82.092-26.928
	c8.706,0.427,17.134,4.881,22.39,11.834c18.216,0.151,36.433,0.303,54.649,0.455c3.67,0.031,7.34,0.061,11.01,0.092
	c21.37,0.178,42.74,0.355,64.11,0.533c12.511,0.104,26.912-0.659,34.561-10.561c3.299-4.272,4.794-9.698,7.956-14.072
	c7.628-10.551,25.236-11.651,34.118-2.131c3.652,3.914,5.781,9.03,9.279,13.083c5.118,5.928,12.647,9.055,19.425,12.978
	c21.463,12.42,36.863,34.824,40.769,59.312c15.002-12.334,15.488-38.386,0.956-51.27c20.081-22.011,62.781-13.889,73.379,13.957
	c14.108-3.616,29.909,8.851,29.674,23.413c22.693-7.866,48.993-4.469,68.943,8.906c6.7,4.492,13.212,10.23,21.245,10.959
	c4.748,0.431,9.448-0.979,14.007-2.373c19.79-6.051,39.579-12.103,59.369-18.154c4.357,21.316,18.97,40.292,38.465,49.949
	c15.836-27.68,36.072-52.835,59.716-74.233c5.383-4.872,11.95-9.86,19.125-8.753c7.623,1.177,12.411,8.641,16.058,15.438
	c21.603,40.261,38.604,82.988,50.567,127.085c2.833,10.445,5.385,21.531,2.504,31.963c-4.098,14.837-17.979,24.566-31.248,32.368
	c-102.146,60.063-226.947,80.467-342.903,56.063c-91.297-19.215-176.639-64.858-269.546-73.381
	c-56.956-5.225-114.19,3.8-171.382,4.348s-117.663-8.787-161.956-44.973c-3.341-2.729-6.687-5.76-8.241-9.784
	c-3.375-8.736,2.71-17.978,8.017-25.695c8.458-12.299,15.704-26.78,17.183-41.831c0.747-7.605-0.543-13.829-2.35-21.115
	C-8.791,829.619-7.666,828.571-1.541,818.207z"/>
</svg>
