<svg><path style="fill:#000000;stroke-width:0.49335" d="M 105.0043,2.232687 C 99.167585,2.234921 93.369779,2.3992933 90.421159,2.7326512 77.742852,4.1491796 60.339973,10.972476 47.50502,19.555038 41.357262,23.665765 28.516734,35.810788 23.334432,42.434072 14.379677,53.878055 7.5747176,68.784481 4.6177871,83.3693 c -5.8594972,28.90018 -0.055403,56.61822 20.2664849,96.94236 16.905721,33.52698 45.449242,75.20269 74.924378,109.40016 2.63311,3.05527 4.94958,5.53839 5.16621,5.53839 1.21655,0 13.84041,-14.82257 26.38148,-31.00332 42.49951,-54.83064 69.87041,-106.84094 75.46934,-143.38875 1.7554,-11.4673 1.48321,-26.128208 -0.68883,-36.888348 C 203.43708,70.614877 196.42939,54.705183 188.59733,44.15391 185.60315,40.120941 173.02371,27.243768 168.27304,23.341902 155.98359,13.247273 135.0327,4.3330645 119.81629,2.7304395 116.72212,2.3971397 110.841,2.2304765 105.00373,2.2304765 Z"></path></svg>
