<?xml version="1.0" encoding="utf-8"?>
<!-- Generator: Adobe Illustrator 24.1.2, SVG Export Plug-In . SVG Version: 6.00 Build 0)  -->
<svg version="1.1" xmlns="http://www.w3.org/2000/svg" xmlns:xlink="http://www.w3.org/1999/xlink" x="0px" y="0px"
	 viewBox="0 0 24 24" enable-background="new 0 0 24 24" xml:space="preserve">
<symbol  id="material_x5F_system_x5F_icon_x5F_border" viewBox="0 -48 48 48">
	<rect y="-48" fill="none" width="48" height="48"/>
</symbol>
<symbol  id="material_x5F_system_x5F_icon_x5F_grid" viewBox="-0.0002 -47.9998 48 48">
	<g>
		<defs>
			<rect id="SVGID_1_" x="-0.0002" y="-47.9998" width="48" height="48"/>
		</defs>
		<clipPath id="SVGID_2_">
			<use xlink:href="#SVGID_1_"  overflow="visible"/>
		</clipPath>
		<g clip-path="url(#SVGID_2_)">
			<g>
				
					<line fill="none" stroke="#000000" stroke-width="0.25" stroke-miterlimit="10" x1="1.9998" y1="-47.9998" x2="1.9998" y2="0.0002"/>
				
					<line fill="none" stroke="#000000" stroke-width="0.25" stroke-miterlimit="10" x1="3.9998" y1="-47.9998" x2="3.9998" y2="0.0002"/>
				
					<line fill="none" stroke="#000000" stroke-width="0.25" stroke-miterlimit="10" x1="5.9998" y1="-47.9998" x2="5.9998" y2="0.0002"/>
				
					<line fill="none" stroke="#000000" stroke-width="0.25" stroke-miterlimit="10" x1="7.9998" y1="-47.9998" x2="7.9998" y2="0.0002"/>
				
					<line fill="none" stroke="#000000" stroke-width="0.25" stroke-miterlimit="10" x1="9.9998" y1="-47.9998" x2="9.9998" y2="0.0002"/>
				
					<line fill="none" stroke="#000000" stroke-width="0.25" stroke-miterlimit="10" x1="11.9998" y1="-47.9998" x2="11.9998" y2="0.0002"/>
				
					<line fill="none" stroke="#000000" stroke-width="0.25" stroke-miterlimit="10" x1="13.9998" y1="-47.9998" x2="13.9998" y2="0.0002"/>
				
					<line fill="none" stroke="#000000" stroke-width="0.25" stroke-miterlimit="10" x1="15.9998" y1="-47.9998" x2="15.9998" y2="0.0002"/>
				
					<line fill="none" stroke="#000000" stroke-width="0.25" stroke-miterlimit="10" x1="17.9998" y1="-47.9998" x2="17.9998" y2="0.0002"/>
				
					<line fill="none" stroke="#000000" stroke-width="0.25" stroke-miterlimit="10" x1="19.9998" y1="-47.9998" x2="19.9998" y2="0.0002"/>
				
					<line fill="none" stroke="#000000" stroke-width="0.25" stroke-miterlimit="10" x1="21.9998" y1="-47.9998" x2="21.9998" y2="0.0002"/>
				
					<line fill="none" stroke="#000000" stroke-width="0.25" stroke-miterlimit="10" x1="23.9998" y1="-47.9998" x2="23.9998" y2="0.0002"/>
				
					<line fill="none" stroke="#000000" stroke-width="0.25" stroke-miterlimit="10" x1="25.9998" y1="-47.9998" x2="25.9998" y2="0.0002"/>
				
					<line fill="none" stroke="#000000" stroke-width="0.25" stroke-miterlimit="10" x1="27.9998" y1="-47.9998" x2="27.9998" y2="0.0002"/>
				
					<line fill="none" stroke="#000000" stroke-width="0.25" stroke-miterlimit="10" x1="29.9998" y1="-47.9998" x2="29.9998" y2="0.0002"/>
				
					<line fill="none" stroke="#000000" stroke-width="0.25" stroke-miterlimit="10" x1="31.9998" y1="-47.9998" x2="31.9998" y2="0.0002"/>
				
					<line fill="none" stroke="#000000" stroke-width="0.25" stroke-miterlimit="10" x1="33.9998" y1="-47.9998" x2="33.9998" y2="0.0002"/>
				
					<line fill="none" stroke="#000000" stroke-width="0.25" stroke-miterlimit="10" x1="35.9998" y1="-47.9998" x2="35.9998" y2="0.0002"/>
				
					<line fill="none" stroke="#000000" stroke-width="0.25" stroke-miterlimit="10" x1="37.9998" y1="-47.9998" x2="37.9998" y2="0.0002"/>
				
					<line fill="none" stroke="#000000" stroke-width="0.25" stroke-miterlimit="10" x1="39.9998" y1="-47.9998" x2="39.9998" y2="0.0002"/>
				
					<line fill="none" stroke="#000000" stroke-width="0.25" stroke-miterlimit="10" x1="41.9998" y1="-47.9998" x2="41.9998" y2="0.0002"/>
				
					<line fill="none" stroke="#000000" stroke-width="0.25" stroke-miterlimit="10" x1="43.9998" y1="-47.9998" x2="43.9998" y2="0.0002"/>
				
					<line fill="none" stroke="#000000" stroke-width="0.25" stroke-miterlimit="10" x1="45.9998" y1="-47.9998" x2="45.9998" y2="0.0002"/>
			</g>
			<g>
				
					<line fill="none" stroke="#000000" stroke-width="0.25" stroke-miterlimit="10" x1="-0.0002" y1="-1.9998" x2="47.9998" y2="-1.9998"/>
				
					<line fill="none" stroke="#000000" stroke-width="0.25" stroke-miterlimit="10" x1="-0.0002" y1="-3.9998" x2="47.9998" y2="-3.9998"/>
				
					<line fill="none" stroke="#000000" stroke-width="0.25" stroke-miterlimit="10" x1="-0.0002" y1="-5.9998" x2="47.9998" y2="-5.9998"/>
				
					<line fill="none" stroke="#000000" stroke-width="0.25" stroke-miterlimit="10" x1="-0.0002" y1="-7.9998" x2="47.9998" y2="-7.9998"/>
				
					<line fill="none" stroke="#000000" stroke-width="0.25" stroke-miterlimit="10" x1="-0.0002" y1="-9.9998" x2="47.9998" y2="-9.9998"/>
				
					<line fill="none" stroke="#000000" stroke-width="0.25" stroke-miterlimit="10" x1="-0.0002" y1="-11.9998" x2="47.9998" y2="-11.9998"/>
				
					<line fill="none" stroke="#000000" stroke-width="0.25" stroke-miterlimit="10" x1="-0.0002" y1="-13.9998" x2="47.9998" y2="-13.9998"/>
				
					<line fill="none" stroke="#000000" stroke-width="0.25" stroke-miterlimit="10" x1="-0.0002" y1="-15.9998" x2="47.9998" y2="-15.9998"/>
				
					<line fill="none" stroke="#000000" stroke-width="0.25" stroke-miterlimit="10" x1="-0.0002" y1="-17.9998" x2="47.9998" y2="-17.9998"/>
				
					<line fill="none" stroke="#000000" stroke-width="0.25" stroke-miterlimit="10" x1="-0.0002" y1="-19.9998" x2="47.9998" y2="-19.9998"/>
				
					<line fill="none" stroke="#000000" stroke-width="0.25" stroke-miterlimit="10" x1="-0.0002" y1="-21.9998" x2="47.9998" y2="-21.9998"/>
				
					<line fill="none" stroke="#000000" stroke-width="0.25" stroke-miterlimit="10" x1="-0.0002" y1="-23.9998" x2="47.9998" y2="-23.9998"/>
				
					<line fill="none" stroke="#000000" stroke-width="0.25" stroke-miterlimit="10" x1="-0.0002" y1="-25.9998" x2="47.9998" y2="-25.9998"/>
				
					<line fill="none" stroke="#000000" stroke-width="0.25" stroke-miterlimit="10" x1="-0.0002" y1="-27.9998" x2="47.9998" y2="-27.9998"/>
				
					<line fill="none" stroke="#000000" stroke-width="0.25" stroke-miterlimit="10" x1="-0.0002" y1="-29.9998" x2="47.9998" y2="-29.9998"/>
				
					<line fill="none" stroke="#000000" stroke-width="0.25" stroke-miterlimit="10" x1="-0.0002" y1="-31.9998" x2="47.9998" y2="-31.9998"/>
				
					<line fill="none" stroke="#000000" stroke-width="0.25" stroke-miterlimit="10" x1="-0.0002" y1="-33.9998" x2="47.9998" y2="-33.9998"/>
				
					<line fill="none" stroke="#000000" stroke-width="0.25" stroke-miterlimit="10" x1="-0.0002" y1="-35.9998" x2="47.9998" y2="-35.9998"/>
				
					<line fill="none" stroke="#000000" stroke-width="0.25" stroke-miterlimit="10" x1="-0.0002" y1="-37.9998" x2="47.9998" y2="-37.9998"/>
				
					<line fill="none" stroke="#000000" stroke-width="0.25" stroke-miterlimit="10" x1="-0.0002" y1="-39.9998" x2="47.9998" y2="-39.9998"/>
				
					<line fill="none" stroke="#000000" stroke-width="0.25" stroke-miterlimit="10" x1="-0.0002" y1="-41.9998" x2="47.9998" y2="-41.9998"/>
				
					<line fill="none" stroke="#000000" stroke-width="0.25" stroke-miterlimit="10" x1="-0.0002" y1="-43.9998" x2="47.9998" y2="-43.9998"/>
				
					<line fill="none" stroke="#000000" stroke-width="0.25" stroke-miterlimit="10" x1="-0.0002" y1="-45.9998" x2="47.9998" y2="-45.9998"/>
			</g>
			<g>
				<path d="M47.7498-0.2498v-47.5h-47.5v47.5H47.7498 M47.9998,0.0002h-48v-48h48V0.0002L47.9998,0.0002z"/>
			</g>
		</g>
	</g>
</symbol>
<symbol  id="material_x5F_system_x5F_icon_x5F_keylines" viewBox="-0.0002 -48.0001 48 48">
	<g opacity="0.4">
		<defs>
			<rect id="SVGID_3_" x="-0.0002" y="-48.0001" opacity="0.4" width="48" height="48"/>
		</defs>
		<clipPath id="SVGID_4_">
			<use xlink:href="#SVGID_3_"  overflow="visible"/>
		</clipPath>
		
			<line clip-path="url(#SVGID_4_)" fill="none" stroke="#000000" stroke-width="0.25" stroke-miterlimit="10" x1="23.9998" y1="-0.0001" x2="23.9998" y2="-48.0001"/>
		
			<line clip-path="url(#SVGID_4_)" fill="none" stroke="#000000" stroke-width="0.25" stroke-miterlimit="10" x1="47.9998" y1="-24.0001" x2="-0.0002" y2="-24.0001"/>
		
			<line clip-path="url(#SVGID_4_)" fill="none" stroke="#000000" stroke-width="0.25" stroke-miterlimit="10" x1="47.9998" y1="-16.0001" x2="-0.0002" y2="-16.0001"/>
		
			<line clip-path="url(#SVGID_4_)" fill="none" stroke="#000000" stroke-width="0.25" stroke-miterlimit="10" x1="47.9998" y1="-32.0001" x2="-0.0002" y2="-32.0001"/>
		
			<line clip-path="url(#SVGID_4_)" fill="none" stroke="#000000" stroke-width="0.25" stroke-miterlimit="10" x1="31.9998" y1="-48.0001" x2="31.9998" y2="-0.0001"/>
		
			<line clip-path="url(#SVGID_4_)" fill="none" stroke="#000000" stroke-width="0.25" stroke-miterlimit="10" x1="15.9998" y1="-48.0001" x2="15.9998" y2="-0.0001"/>
		
			<line clip-path="url(#SVGID_4_)" fill="none" stroke="#000000" stroke-width="0.25" stroke-miterlimit="10" x1="47.7498" y1="-0.2501" x2="0.2498" y2="-47.7501"/>
		
			<line clip-path="url(#SVGID_4_)" fill="none" stroke="#000000" stroke-width="0.25" stroke-miterlimit="10" x1="0.2498" y1="-0.2501" x2="47.7498" y2="-47.7501"/>
		<path clip-path="url(#SVGID_4_)" fill="none" stroke="#000000" stroke-width="0.25" stroke-miterlimit="10" d="M24.0005-13.9999
			c-5.5225,0-10.0001-4.477-10.0001-9.9999c0-5.5225,4.4775-10.0001,10.0001-10.0001c5.5224,0,9.9999,4.4775,9.9999,10.0001
			C34.0004-18.4768,29.5229-13.9999,24.0005-13.9999z"/>
		<path clip-path="url(#SVGID_4_)" fill="none" stroke="#000000" stroke-width="0.25" stroke-miterlimit="10" d="M23.9998-4.0001
			c-11.0536,0-20-8.9474-20-20c0-11.0527,8.9464-20,20-20c11.0527,0,20,8.9473,20,20C43.9998-12.9475,35.0524-4.0001,23.9998-4.0001
			z"/>
		<path clip-path="url(#SVGID_4_)" fill="none" stroke="#000000" stroke-width="0.25" stroke-miterlimit="10" d="M37.9998-6.0001
			h-28c-2.211,0-4-1.791-4-4v-28c0-2.209,1.789-4,4-4h28c2.2109,0,4,1.791,4,4v28C41.9998-7.7912,40.2107-6.0001,37.9998-6.0001z"/>
		<path clip-path="url(#SVGID_4_)" fill="none" stroke="#000000" stroke-width="0.25" stroke-miterlimit="10" d="M39.9998-8.0001
			h-32c-2.209,0-4-1.791-4-4v-24c0-2.209,1.791-4,4-4h32c2.209,0,4.0001,1.7913,4.0001,4.0003l-0.0001,23.9997
			C43.9998-9.7912,42.2087-8.0001,39.9998-8.0001z"/>
		<path clip-path="url(#SVGID_4_)" fill="none" stroke="#000000" stroke-width="0.25" stroke-miterlimit="10" d="M39.9998-40.0001
			v32c0,2.209-1.791,4-4,4h-24c-2.209,0-4-1.791-4-4v-32c0-2.209,1.791-4,4-4h24C38.2087-44.0001,39.9998-42.2091,39.9998-40.0001z"
			/>
		<g clip-path="url(#SVGID_4_)">
			<path d="M47.7498-0.2501v-47.5h-47.5v47.5H47.7498 M47.9998-0.0001h-48v-48h48V-0.0001L47.9998-0.0001z"/>
		</g>
	</g>
</symbol>
<g display="none">
	<circle id="circle" display="inline" opacity="0.2" cx="12" cy="12" r="10"/>
	<path id="Rectangle" display="inline" opacity="0.2" d="M19,21H5c-1.1046,0-2-0.8954-2-2V5c0-1.1046,0.8954-2,2-2h14
		c1.1046,0,2,0.8954,2,2v14C21,20.1046,20.1046,21,19,21z"/>
	<path id="Vertical_Rectangle" display="inline" opacity="0.2" d="M6,22h12c1.1046,0,2-0.8954,2-2V4c0-1.1046-0.8954-2-2-2H6
		C4.8954,2,4,2.8954,4,4v16C4,21.1046,4.8954,22,6,22z"/>
	<path id="Horizontal_Rectangle" display="inline" opacity="0.2" d="M22,18V6c0-1.1046-0.8954-2-2-2H4C2.8954,4,2,4.8954,2,6v12
		c0,1.1046,0.8954,2,2,2h16C21.1046,20,22,19.1046,22,18z"/>
</g>
<g id="border" display="none">
	
		<use xlink:href="#material_x5F_system_x5F_icon_x5F_border"  width="48" height="48" id="XMLID_2_" y="-48" transform="matrix(0.5 0 0 -0.5 -0.0001 -8.010902e-05)" display="inline" overflow="visible"/>
</g>
<g id="grid" display="none">
	
		<use xlink:href="#material_x5F_system_x5F_icon_x5F_grid"  width="48" height="48" id="XMLID_1_" x="-0.0002" y="-47.9998" transform="matrix(0.5 0 0 -0.5 -0.0001 -8.010902e-05)" display="inline" overflow="visible" opacity="0.15"/>
</g>
<g id="keylines" display="none">
	
		<use xlink:href="#material_x5F_system_x5F_icon_x5F_keylines"  width="48" height="48" id="XMLID_3_" x="-0.0002" y="-48.0001" transform="matrix(0.5 0 0 -0.5 -0.0001 -8.010902e-05)" display="inline" overflow="visible"/>
</g>
<g id="Ebene_5">
	<path d="M9,5.71L3,4v16h14V8L9,5.71z M7,12H5V6.57l2,0.57V12z M9,12V7.71l2,0.58V12H9z M13,12V8.86l2,0.57V12H13z"/>
	<rect x="15" y="14" width="6" height="2"/>
	<rect x="19" y="14" width="2" height="6"/>
	<polygon points="17,12 21,12 22,14.9998 22,16 17,16.035 	"/>
</g>
</svg>
