<?xml version="1.0" encoding="utf-8"?>
<!-- Generator: Adobe Illustrator 24.2.3, SVG Export Plug-In . SVG Version: 6.00 Build 0)  -->
<svg version="1.1" id="Ebene_1" xmlns="http://www.w3.org/2000/svg" xmlns:xlink="http://www.w3.org/1999/xlink" x="0px" y="0px"
	 viewBox="0 0 960 960" style="enable-background:new 0 0 960 960;" xml:space="preserve">
<style type="text/css">
	.st0{fill:url(#SVGID_1_);}
	.st1{fill:url(#SVGID_2_);}
	.st2{fill:url(#SVGID_3_);}
	.st3{fill:url(#SVGID_4_);}
	.st4{fill:url(#SVGID_5_);}
	.st5{fill:url(#SVGID_6_);}
	.st6{fill:url(#SVGID_7_);}
	.st7{fill:url(#SVGID_8_);}
	.st8{fill:url(#SVGID_9_);}
	.st9{fill:url(#SVGID_10_);}
	.st10{fill:url(#SVGID_11_);}
	.st11{fill:url(#SVGID_12_);}
	.st12{fill:url(#SVGID_13_);}
	.st13{fill:url(#SVGID_14_);}
	.st14{fill:url(#SVGID_15_);}
	.st15{fill:url(#SVGID_16_);}
	.st16{fill:url(#SVGID_17_);}
	.st17{fill:url(#SVGID_18_);}
	.st18{fill:url(#SVGID_19_);}
	.st19{fill:url(#SVGID_20_);}
	.st20{fill:url(#SVGID_21_);}
	.st21{fill:url(#SVGID_22_);}
	.st22{fill:url(#SVGID_23_);}
	.st23{fill:url(#SVGID_24_);}
	.st24{fill:url(#SVGID_25_);}
	.st25{fill:url(#SVGID_26_);}
	.st26{fill:url(#SVGID_27_);}
	.st27{fill:url(#SVGID_28_);}
	.st28{fill:url(#SVGID_29_);}
	.st29{fill:url(#SVGID_30_);}
	.st30{fill:url(#SVGID_31_);}
	.st31{fill:url(#SVGID_32_);}
	.st32{fill:url(#SVGID_33_);}
	.st33{fill:url(#SVGID_34_);}
	.st34{fill:url(#SVGID_35_);}
	.st35{fill:url(#SVGID_36_);}
	.st36{fill:url(#SVGID_37_);}
	.st37{fill:url(#SVGID_38_);}
	.st38{fill:url(#SVGID_39_);}
	.st39{clip-path:url(#SVGID_42_);fill:url(#SVGID_43_);}
	.st40{clip-path:url(#SVGID_42_);fill:url(#SVGID_44_);}
	.st41{fill:url(#SVGID_45_);}
	.st42{fill:url(#SVGID_46_);}
	.st43{fill:none;stroke:#53AFA8;stroke-width:0.9921;stroke-linecap:round;stroke-linejoin:round;stroke-miterlimit:10;}
	.st44{fill:url(#SVGID_47_);}
	.st45{fill:url(#SVGID_48_);}
	.st46{fill:url(#SVGID_49_);}
	.st47{fill:url(#SVGID_50_);}
	.st48{fill:url(#SVGID_51_);}
	.st49{fill:url(#SVGID_52_);}
	.st50{fill:url(#SVGID_53_);}
	.st51{fill:url(#SVGID_54_);}
	.st52{fill:url(#SVGID_55_);}
	.st53{fill:url(#SVGID_56_);}
	.st54{fill:url(#SVGID_57_);}
	.st55{fill:url(#SVGID_58_);}
	.st56{fill:url(#SVGID_59_);}
	.st57{fill:url(#SVGID_60_);}
	.st58{fill:url(#SVGID_61_);}
	.st59{fill:url(#SVGID_62_);}
	.st60{fill:url(#SVGID_63_);}
	.st61{fill:url(#SVGID_64_);}
	.st62{fill:url(#SVGID_65_);}
	.st63{fill:url(#SVGID_66_);}
	.st64{fill:url(#SVGID_67_);}
	.st65{fill:url(#SVGID_68_);}
	.st66{fill:url(#SVGID_69_);}
	.st67{fill:url(#SVGID_70_);}
	.st68{fill:url(#SVGID_71_);}
	.st69{fill:url(#SVGID_72_);}
	.st70{fill:url(#SVGID_73_);}
	.st71{fill:url(#SVGID_74_);}
	.st72{fill:url(#SVGID_75_);}
	.st73{fill:url(#SVGID_76_);}
	.st74{fill:url(#SVGID_77_);}
	.st75{fill:url(#SVGID_78_);}
	.st76{fill:url(#SVGID_79_);}
	.st77{clip-path:url(#SVGID_81_);fill:url(#SVGID_82_);}
	.st78{clip-path:url(#SVGID_81_);fill:url(#SVGID_83_);}
	.st79{clip-path:url(#SVGID_85_);fill:url(#SVGID_86_);}
	.st80{clip-path:url(#SVGID_85_);fill:url(#SVGID_87_);}
	.st81{fill:url(#SVGID_88_);}
	.st82{fill:url(#SVGID_89_);}
	.st83{fill:url(#SVGID_90_);}
	.st84{fill:url(#SVGID_91_);}
	.st85{fill:url(#SVGID_92_);}
	.st86{fill:url(#SVGID_93_);}
	.st87{fill:url(#SVGID_94_);}
	.st88{fill:url(#SVGID_95_);}
	.st89{fill:url(#SVGID_96_);}
	.st90{clip-path:url(#SVGID_98_);fill:url(#SVGID_99_);}
	.st91{clip-path:url(#SVGID_98_);fill:url(#SVGID_100_);}
	.st92{fill:url(#SVGID_101_);}
	.st93{fill:url(#SVGID_102_);}
	.st94{fill:url(#SVGID_103_);}
	.st95{fill:url(#SVGID_104_);}
	.st96{fill:url(#SVGID_105_);}
	.st97{fill:url(#SVGID_106_);}
	.st98{fill:url(#SVGID_107_);}
	.st99{fill:url(#SVGID_108_);}
	.st100{fill:url(#SVGID_109_);}
	.st101{fill:url(#SVGID_110_);}
	.st102{fill:url(#SVGID_111_);}
	.st103{fill:url(#SVGID_112_);}
	.st104{fill:url(#SVGID_113_);}
	.st105{fill:url(#SVGID_114_);}
	.st106{fill:url(#SVGID_115_);}
	.st107{fill:url(#SVGID_116_);}
	.st108{fill:url(#SVGID_117_);}
	.st109{fill:url(#SVGID_118_);}
	.st110{fill:url(#SVGID_119_);}
	.st111{fill:url(#SVGID_120_);}
	.st112{fill:url(#SVGID_121_);}
	.st113{fill:url(#SVGID_122_);}
	.st114{fill:none;stroke:#53AFA8;stroke-width:0.7087;stroke-linecap:round;stroke-linejoin:round;stroke-miterlimit:10;}
	.st115{fill:url(#SVGID_123_);}
	.st116{fill:url(#SVGID_124_);}
	.st117{clip-path:url(#SVGID_126_);fill:url(#SVGID_127_);}
	.st118{clip-path:url(#SVGID_126_);fill:url(#SVGID_128_);}
	.st119{fill:url(#SVGID_129_);}
</style>
<linearGradient id="SVGID_1_" gradientUnits="userSpaceOnUse" x1="489.4793" y1="1096.2537" x2="489.4793" y2="508.919">
	<stop  offset="0" style="stop-color:#FFFFFF"/>
	<stop  offset="1" style="stop-color:#FFFFFF;stop-opacity:0"/>
</linearGradient>
<path class="st0" d="M852.321,758.249c-17.456-17.122-28.91-39.264-42.818-59.375c-41.268-59.672-103.605-100.814-164.371-140.454
	c-10.214-6.663-20.75-13.462-32.704-15.877c-14.101-2.849-28.662,0.693-43.042,0.29c-35.493-0.995-66.124-25.506-101.024-32.042
	c-54.858-10.274-107.846,24.859-163.491,29.176c-33.147,2.572-67.106-5.862-99.429,1.921c-40.812,9.826-71.615,43.99-91.663,80.872
	c-6.139,11.294-10.136,24.85-20.401,32.588C62,679,96,743,65.318,761.825c-17.275,10.599-20.497,34.887-24.101,54.831
	c-6.173,34.158-24.103,74.912-26.327,82.12c-5.565,18.031-8.36,36.915-8.255,55.785c0.035,6.327,0.419,12.776,2.684,18.685
	c2.444,6.377,6.934,11.747,11.652,16.685c52.783,55.24,135.488,66.494,211.463,74.577c57.061,6.071,118.336,11.347,168.468-16.575
	c10.031-5.587,20.329-12.66,31.777-11.786c8.678,0.663,16.252,5.831,23.552,10.569c37.563,24.384,80.098,41.711,124.529,47.316
	c42.232,5.328,85.001,0.062,127.24-5.202c37.474-4.67,75.188-9.39,111.215-20.708c43.587-13.693,84.112-37.041,117.82-67.879
	c11.866-10.856,23.124-22.966,29.417-37.766c12.265-28.844,3.547-62.328-9.85-90.665c-7.327-15.499-16.008-30.304-23.576-45.68
	c-5.369-10.908-8.455-25.929-16.068-35.494c-7.213-9.062-17.104-8.155-27.534-10.783C875.4,776.323,862.591,768.322,852.321,758.249
	z"/>
<path class="st43" d="M148.558,690.859c0,0,36.696,48.551,108.782,0"/>
<g>
	<linearGradient id="SVGID_2_" gradientUnits="userSpaceOnUse" x1="33.0761" y1="691.3663" x2="111.5388" y2="691.3663">
		<stop  offset="0" style="stop-color:#9DCF5B"/>
		<stop  offset="0.1921" style="stop-color:#94CA60"/>
		<stop  offset="0.5054" style="stop-color:#7CBD6C"/>
		<stop  offset="0.8987" style="stop-color:#54A781"/>
		<stop  offset="1" style="stop-color:#49A187"/>
	</linearGradient>
	<path class="st1" d="M105.581,732.231c5.387-7.098,6.386-16.609,5.817-25.501c-0.631-9.862-2.93-19.532-5.221-29.146
		c-1.288-5.407-2.66-10.994-6.055-15.395c-4.674-6.059-12.739-9.269-16.096-16.145c-1.88-3.851-2.353-8.874-6.039-11.06
		c-1.9-1.127-4.251-1.187-6.27-2.084c-6.62-2.941-6.852-12.984-12.883-16.997c-3.297-2.194-8.76-3.571-8.167-7.487
		c-1.815,4.935-1.229,10.386-0.618,15.608c1.277,10.916,2.554,21.832,3.83,32.748c0.698,5.967,1.274,12.493-2.01,17.524
		c-1.373,2.104-3.338,3.781-4.631,5.935c-2.353,3.92-2.165,8.807-1.792,13.364c0.373,4.557,0.816,9.367-1.139,13.5
		c-1.955,4.133-7.313,7.029-11.233,4.677c7.389,8.316,0.374,25.13,10.115,30.503c1.316,0.726,2.818,1.117,4.024,2.014
		c2.935,2.182,3.128,6.385,3.828,9.975c1.843,9.45,9.391,17.548,18.687,20.052c-5.618-3.479-7.756-11.585-4.584-17.382
		c3.172-5.796,11.15-8.366,17.109-5.511c1.907,0.914,6.415,4.196,8.671,3.231c3.279-1.403,0.825-3.711,2.21-6.67
		C96.095,741.668,101.435,737.695,105.581,732.231z"/>
	
		<linearGradient id="SVGID_3_" gradientUnits="userSpaceOnUse" x1="31.5699" y1="808.9183" x2="31.5699" y2="743.4337" gradientTransform="matrix(-0.3759 0.9266 0.9266 0.3759 -626.2432 421.7528)">
		<stop  offset="0" style="stop-color:#80552E"/>
		<stop  offset="0.7396" style="stop-color:#A3693F"/>
		<stop  offset="1" style="stop-color:#B07145"/>
	</linearGradient>
	<path class="st2" d="M96.295,792.138c0,0,12.263-67.1,6.678-73.446c-5.585-6.346-6.466-17.582-25.844-26.804
		c-19.377-9.221-3.757,2.556,2.302,7.734c6.059,5.178,15.588,18.563,16.028,24.181c0.44,5.618-10.622,66.406-9.234,69.689
		C87.614,796.775,96.041,796.115,96.295,792.138z"/>
	
		<linearGradient id="SVGID_4_" gradientUnits="userSpaceOnUse" x1="11.4489" y1="787.7079" x2="11.4489" y2="755.7106" gradientTransform="matrix(-0.3759 0.9266 0.9266 0.3759 -626.2432 421.7528)">
		<stop  offset="0" style="stop-color:#80552E"/>
		<stop  offset="0.7396" style="stop-color:#A3693F"/>
		<stop  offset="1" style="stop-color:#B07145"/>
	</linearGradient>
	<path class="st3" d="M97.542,728.727c0,0-9.122-0.981-9.815-2.622c-0.694-1.641-4.858-11.49-7.193-12.438
		c-2.335-0.948-8.394-6.125-8.174-3.316c0.22,2.809,6.059,5.178,7.921,7.293c1.862,2.115,0.881,11.237,3.216,12.184
		c2.335,0.948,11.203,5.905,12.845,5.211C97.982,734.346,97.542,728.727,97.542,728.727z"/>
	
		<linearGradient id="SVGID_5_" gradientUnits="userSpaceOnUse" x1="11.9899" y1="769.7129" x2="11.9899" y2="761.0261" gradientTransform="matrix(-0.3759 0.9266 0.9266 0.3759 -626.2432 421.7528)">
		<stop  offset="0" style="stop-color:#80552E"/>
		<stop  offset="0.7396" style="stop-color:#A3693F"/>
		<stop  offset="1" style="stop-color:#B07145"/>
	</linearGradient>
	<path class="st4" d="M82.141,719.76c0,0-1.641,0.694-5.618,0.44c-3.977-0.254-3.283,1.388-0.474,1.168
		c2.809-0.22,6.786,0.033,6.786,0.033L82.141,719.76z"/>
	
		<linearGradient id="SVGID_6_" gradientUnits="userSpaceOnUse" x1="102.4338" y1="763.2275" x2="102.4338" y2="702.3556" gradientTransform="matrix(0.9911 0.133 -0.133 0.9911 68.4414 20.3089)">
		<stop  offset="0" style="stop-color:#80552E"/>
		<stop  offset="0.7396" style="stop-color:#A3693F"/>
		<stop  offset="1" style="stop-color:#B07145"/>
	</linearGradient>
	<path class="st5" d="M80.689,789.509c0,0-18.887-20.334-29.777-43.409c0,0-3.077-5.499-2.65-18.156c0,0,4.25-3.244,4.996,0.67
		c0.746,3.914,0.655,14.074,2.818,16.907c2.163,2.833,10.312,17.912,11.728,16.831s8.834-8.987,9.337-12.733
		c0.503-3.747,3.168-4.661,2.833-2.163c-0.335,2.498-1.173,8.743-4.508,14.653s-3.168,4.661,0.076,8.91
		c3.244,4.25,21.888,16.922,21.552,19.42C96.758,792.936,86.263,795.342,80.689,789.509z"/>
	
		<linearGradient id="SVGID_7_" gradientUnits="userSpaceOnUse" x1="-19.775" y1="765.9594" x2="-19.775" y2="745.9042" gradientTransform="matrix(-0.3759 0.9266 0.9266 0.3759 -626.2432 421.7528)">
		<stop  offset="0" style="stop-color:#80552E"/>
		<stop  offset="0.7396" style="stop-color:#A3693F"/>
		<stop  offset="1" style="stop-color:#B07145"/>
	</linearGradient>
	<path class="st6" d="M84.356,697.54c0,0,4.737-11.677,3.349-14.96c-1.388-3.283-5.585-6.346-9.088-7.767
		c-3.503-1.421-1.388-3.283,0.947-2.335c2.335,0.947,11.677,4.737,11.897,7.547c0.22,2.809,0.71,8.448-3.578,18.947
		S84.356,697.54,84.356,697.54z"/>
</g>
<g>
	<linearGradient id="SVGID_8_" gradientUnits="userSpaceOnUse" x1="158.9733" y1="639.7177" x2="429.2393" y2="639.7177">
		<stop  offset="0" style="stop-color:#9DCF5B"/>
		<stop  offset="0.1921" style="stop-color:#94CA60"/>
		<stop  offset="0.5054" style="stop-color:#7CBD6C"/>
		<stop  offset="0.8987" style="stop-color:#54A781"/>
		<stop  offset="1" style="stop-color:#49A187"/>
	</linearGradient>
	<path class="st7" d="M339.282,676.703c4.267,1.011,8.582,5.888,12.033,3.183c1.368-1.072,1.755-2.937,2.506-4.504
		c2.448-5.109,8.719-6.957,14.329-7.749c5.61-0.792,11.77-1.292,15.853-5.219c3.331-3.204,5.064-8.501,9.514-9.75
		c1.805-0.507,3.729-0.207,5.598-0.363c8.265-0.69,13.783-9.883,22.013-10.903c1.517-0.188,3.093-0.088,4.533-0.601
		c3.179-1.135,4.625-5.55,2.734-8.345c-1.892-2.796-6.528-3.095-8.764-0.566c1.622-2.699-0.52-6.233-3.217-7.859
		c-2.696-1.626-5.951-2.24-8.476-4.121c-2.125-1.582-3.784-4.07-6.389-4.555c-3.05-0.567-5.85,1.898-8.939,2.189
		c-2.008,0.189-3.973-0.556-5.853-1.287c-7.886-3.069-15.871-6.192-22.709-11.178c-3.37-2.457-6.584-5.424-10.636-6.411
		c-3.688-0.899-7.565-0.022-11.35-0.295c-8.049-0.581-14.698-6.151-21.333-10.745c-6.635-4.594-15.06-8.529-22.535-5.487
		c-6.691,2.724-10.44,10.266-17.089,13.093c-2.469,1.05-5.186,1.374-7.715,2.271c-4.975,1.766-8.88,5.6-12.752,9.187
		c-5.661,5.245-11.603,10.188-17.792,14.799c-2.151,1.602-4.407,3.2-7.017,3.813c-1.748,0.411-3.619,0.37-5.256,1.109
		c-2.793,1.263-4.144,4.391-6.237,6.63c-4.838,5.177-13.342,5.314-18.415,10.261c-1.649,1.608-2.887,3.686-4.863,4.868
		c-2.328,1.393-5.214,1.279-7.927,1.331c-12.475,0.238-24.814,5.048-34.158,13.317c1.796,2.91,2.99,6.19,3.485,9.573
		c10.122-0.561,20.129,4.127,30.174,2.756c1.827-0.249,3.658-0.699,5.491-0.502c2.944,0.316,5.429,2.229,7.805,3.996
		c4.727,3.514,9.914,6.81,15.76,7.526c7.976,0.976,16.816-2.845,23.718,1.269c3.582,2.135,5.81,6.044,9.337,8.27
		c3.766,2.377,8.473,2.526,12.926,2.601c11.035,0.186,22.444,0.204,33.089-3.096c4.867-1.509,9.331-3.591,13.026-7.126
		c3.889-3.721,6.173-3.869,11.289-4.375C329.831,683.239,332.563,675.11,339.282,676.703z"/>
	
		<linearGradient id="SVGID_9_" gradientUnits="userSpaceOnUse" x1="300.5724" y1="609.3577" x2="306.5135" y2="692.3035" gradientTransform="matrix(0.9974 0.0714 -0.0714 0.9974 47.37 -22.8987)">
		<stop  offset="0" style="stop-color:#4FA484"/>
		<stop  offset="0.4905" style="stop-color:#49A187"/>
		<stop  offset="0.9877" style="stop-color:#9DCF5B"/>
	</linearGradient>
	<path class="st8" d="M375.082,636.989c-2.072-0.738-4.307-0.836-6.486-1.144c-14.143-2-26.241-14.108-28.23-28.252
		c-9.194-2.948-19.924-0.423-26.838,6.318c-3.895,3.797-6.573,8.72-10.589,12.389c-4.353,3.978-10.61,7.093-11.392,12.938
		c-0.497,3.713,0.904,8.77-2.52,10.291c-0.898,0.399-1.918,0.38-2.901,0.375c-13.998-0.065-27.981,4.407-39.343,12.582
		c-1.676,1.206-3.472,2.55-5.537,2.509c-2.074-0.041-4.122-1.499-6.084-0.827c-1.189,0.408-1.988,1.502-2.676,2.554
		c-3.098,4.737-5.566,9.886-7.319,15.268c6.462,4.034,13.562,8.226,21.14,7.45c1.906-0.195,3.764-0.705,5.646-1.064
		c2.847-0.544,5.746-0.743,8.638-0.941c23.283-1.597,46.566-3.195,69.85-4.792c2.106-0.144,4.248-0.297,6.22-1.051
		c6.016-2.303,8.474-9.028,13.846-12.19c6.18-3.637,13.905-1.738,20.211-4.86C379.858,660.018,388.731,641.851,375.082,636.989z"/>
	
		<linearGradient id="SVGID_10_" gradientUnits="userSpaceOnUse" x1="316.7227" y1="750.0756" x2="316.7227" y2="707.3402" gradientTransform="matrix(0.7309 0.6825 -0.6825 0.7309 579.9727 -68.9154)">
		<stop  offset="0" style="stop-color:#80552E"/>
		<stop  offset="0.7396" style="stop-color:#A3693F"/>
		<stop  offset="1" style="stop-color:#B07145"/>
	</linearGradient>
	<path class="st9" d="M326.438,700.608c0,0,6.28-9,5.563-13.917c-0.718-4.917-9.338-16.151-9.981-18.875
		c-0.642-2.723,4.011-11.118,3.407-12.745c-0.605-1.626-7.449-9.079-7.524-11.272c-0.075-2.194,2.043-4.462,2.61-3.933
		s-0.492,1.664-0.454,2.761c0.038,1.097,3.478,5.371,3.478,5.371s2.761,0.454,3.29-0.113c0.53-0.567,0.038,1.097-0.492,1.664
		c-0.53,0.567-1.805,0.167-1.805,0.167s3.582,3.615,4.187,5.242c0.605,1.626-4.541,11.686-3.407,12.745
		c1.134,1.059,9.759-3.629,10.251-5.293c0.492-1.664,2.385-10.514,2.99-8.887c0.605,1.626-0.796,8.812-1.855,9.946
		c-1.059,1.134-6.923,6.277-8.549,6.882c-1.626,0.605,4.688,8.624,5.255,9.154c0.567,0.53,4.239,8.918,8.644,2.588
		c4.405-6.33-3.996,5.889-3.996,5.889L326.438,700.608z"/>
	<linearGradient id="SVGID_11_" gradientUnits="userSpaceOnUse" x1="346.9252" y1="747.1499" x2="343.6044" y2="676.7435">
		<stop  offset="0" style="stop-color:#80552E"/>
		<stop  offset="0.7396" style="stop-color:#A3693F"/>
		<stop  offset="1" style="stop-color:#B07145"/>
	</linearGradient>
	<path class="st10" d="M320.511,716.196c0,0-1.235-13.587,2.47-18.528c3.706-4.941,35.821-28.41,39.527-33.351
		c3.706-4.941,2.47-11.117,2.47-11.117s2.47-3.706,2.47,0s1.235,9.882-1.235,12.352c-2.47,2.47-38.292,32.115-39.527,35.821
		c-1.235,3.706-2.482,14.839-1.859,21.007C325.452,728.548,320.511,716.196,320.511,716.196z"/>
	<linearGradient id="SVGID_12_" gradientUnits="userSpaceOnUse" x1="284.9247" y1="725.7982" x2="284.9247" y2="677.9984">
		<stop  offset="0" style="stop-color:#80552E"/>
		<stop  offset="0.7396" style="stop-color:#A3693F"/>
		<stop  offset="1" style="stop-color:#B07145"/>
	</linearGradient>
	<path class="st11" d="M314.134,725.696c0,0-48.751-10.118-51.511-15.637s-10.118-9.198-11.038-24.836
		c-0.92-15.637,2.76-1.84,4.599,3.679c1.84,5.519,8.279,15.637,11.958,17.477c3.679,1.84,47.832,11.038,49.671,12.878
		C319.653,721.096,316.894,726.615,314.134,725.696z"/>
	<linearGradient id="SVGID_13_" gradientUnits="userSpaceOnUse" x1="270.2375" y1="710.3159" x2="270.2375" y2="686.9598">
		<stop  offset="0" style="stop-color:#80552E"/>
		<stop  offset="0.7396" style="stop-color:#A3693F"/>
		<stop  offset="1" style="stop-color:#B07145"/>
	</linearGradient>
	<path class="st12" d="M270.902,709.138c0,0,1.84-6.439,0.92-7.359s-6.439-6.439-6.439-8.279c0-1.84-1.84-7.359,0-6.439
		c1.84,0.92,1.84,5.519,2.76,7.359s7.359,3.679,7.359,5.519c0,1.84,0.92,9.198,0,10.118
		C274.581,710.978,270.902,709.138,270.902,709.138z"/>
	<linearGradient id="SVGID_14_" gradientUnits="userSpaceOnUse" x1="270.6324" y1="697.1806" x2="270.6324" y2="690.8398">
		<stop  offset="0" style="stop-color:#80552E"/>
		<stop  offset="0.7396" style="stop-color:#A3693F"/>
		<stop  offset="1" style="stop-color:#B07145"/>
	</linearGradient>
	<path class="st13" d="M269.062,696.261c0,0,0.92-0.92,1.84-3.679c0.92-2.76,1.84-1.84,0.92,0c-0.92,1.84-1.84,4.599-1.84,4.599
		L269.062,696.261z"/>
	<linearGradient id="SVGID_15_" gradientUnits="userSpaceOnUse" x1="299.8768" y1="721.0703" x2="299.8768" y2="676.6375">
		<stop  offset="0" style="stop-color:#80552E"/>
		<stop  offset="0.7396" style="stop-color:#A3693F"/>
		<stop  offset="1" style="stop-color:#B07145"/>
	</linearGradient>
	<path class="st14" d="M308.615,719.257c0,0-15.637-12.878-25.755-28.515c0,0-2.76-3.679-3.679-12.878c0,0,2.76-2.76,3.679,0
		c0.92,2.76,1.84,10.118,3.679,11.958c1.84,1.84,9.198,11.958,10.118,11.038c0.92-0.92,5.519-7.359,5.519-10.118
		s1.84-3.679,1.84-1.84s0,6.439-1.84,11.038c-1.84,4.599-1.84,3.679,0.92,6.439s17.477,10.118,17.477,11.958
		C320.573,720.177,313.214,722.936,308.615,719.257z"/>
	
		<linearGradient id="SVGID_16_" gradientUnits="userSpaceOnUse" x1="-2363.4919" y1="925.3293" x2="-2363.4919" y2="694.6222" gradientTransform="matrix(-0.6735 0.2107 0.1129 0.3608 -1360.5133 948.4702)">
		<stop  offset="0" style="stop-color:#80552E"/>
		<stop  offset="0.7396" style="stop-color:#A3693F"/>
		<stop  offset="1" style="stop-color:#B07145"/>
	</linearGradient>
	<path class="st15" d="M326.426,751.978c0,0,1.567-44.019-4.891-52.552c-6.457-8.532-12.528-21.049-14.652-24.435
		c-3.778-6.022-5.181-2.032-4.4,0.464c0.781,2.495,8.753,22.527,10.743,25.861c1.99,3.334,4.048,47.437,1.471,54.332
		C312.119,762.543,326.376,756.661,326.426,751.978z"/>
	
		<linearGradient id="SVGID_17_" gradientUnits="userSpaceOnUse" x1="304.5479" y1="576.5457" x2="303.7228" y2="559.0517" gradientTransform="matrix(0.5043 0.8635 -0.8635 0.5043 691.9194 114.8497)">
		<stop  offset="0" style="stop-color:#80552E"/>
		<stop  offset="0.7396" style="stop-color:#A3693F"/>
		<stop  offset="1" style="stop-color:#B07145"/>
	</linearGradient>
	<path class="st16" d="M356.09,670.626c0,0,2.264-2.417,2.39-4.531c0.126-2.114,0.248-12.388,0.966-13.488
		c0.718-1.1,4.776-3.469,4.058-2.37s-3.043,1.777-2.958,3.088s-0.037,11.585-0.248,12.388c-0.211,0.803-1.055,4.017-1.055,4.017
		L356.09,670.626z"/>
	<linearGradient id="SVGID_18_" gradientUnits="userSpaceOnUse" x1="247.4459" y1="694.4408" x2="247.4459" y2="679.8017">
		<stop  offset="0" style="stop-color:#80552E"/>
		<stop  offset="0.7396" style="stop-color:#A3693F"/>
		<stop  offset="1" style="stop-color:#B07145"/>
	</linearGradient>
	<path class="st17" d="M253.425,691.662c0,0-9.198,0-11.038-1.84c-1.84-1.84-2.76-5.519-2.76-8.279s-1.84-1.84-1.84,0
		c0,1.84,0,9.198,1.84,10.118c1.84,0.92,5.519,2.799,13.798,2.779C261.703,694.421,253.425,691.662,253.425,691.662z"/>
</g>
<linearGradient id="SVGID_19_" gradientUnits="userSpaceOnUse" x1="-1211.2737" y1="-407.2235" x2="-1211.2737" y2="-557.6368" gradientTransform="matrix(-0.6423 -0.7665 -0.7665 0.6423 -630.593 38.0612)">
	<stop  offset="0" style="stop-color:#4FA484"/>
	<stop  offset="0.4905" style="stop-color:#49A187"/>
	<stop  offset="0.9877" style="stop-color:#9DCF5B"/>
</linearGradient>
<path class="st18" d="M522.024,683.424c-2.207-0.425-4.426-0.889-6.659-1.404c-2.771-0.64-5.649-1.391-7.776-3.278
	c-2.645-2.347-3.658-6.017-5.813-8.82c-4.157-5.407-12.194-7.18-15.349-13.226c-2.114-4.052-1.429-8.918-1.884-13.466
	c-0.728-7.278-4.438-13.873-6.656-20.843c-2.218-6.97-2.635-15.415,2.324-20.792c5.265-5.709,14.61-5.861,20.142-11.312
	c4.161-4.099,5.27-10.261,6.898-15.871c1.628-5.609,4.654-11.652,10.277-13.233c1.728-0.486,3.553-0.492,5.316-0.826
	c6.931-1.314,12.43-7.554,19.479-7.826c5.901-0.227,11.017,3.787,15.538,7.586c-2.187-2.96,2.481-6.985,5.947-5.747
	c3.466,1.238,5.215,4.997,6.71,8.36c2.453,5.518,5.337,11.109,10.129,14.782c4.792,3.673,11.985,4.868,16.818,1.249
	c2.23,2.577,5.098,4.598,8.276,5.831c3.928-1.999,3.636-10.612,7.838-9.28c1.47,0.466,2.143,2.143,2.478,3.649
	c1.421,6.375,0.244,13.182,2.151,19.43c2.342,7.674,8.999,13.428,11.459,21.065c1.566,4.862,1.303,10.097,1.025,15.198
	c-0.425,7.786-0.914,15.822-4.385,22.804c-3.693,7.429-10.357,12.862-16.825,18.057c-6.686,5.371-13.372,10.741-20.059,16.112
	c-2.031,1.631-4.223,3.331-6.816,3.58c-1.892,0.182-3.758-0.439-5.558-1.051C558.652,687.887,540.75,687.033,522.024,683.424z"/>
<g>
	<linearGradient id="SVGID_20_" gradientUnits="userSpaceOnUse" x1="557.6114" y1="748.0522" x2="557.6114" y2="621.1351">
		<stop  offset="0" style="stop-color:#4FA484"/>
		<stop  offset="0.4905" style="stop-color:#49A187"/>
		<stop  offset="0.9877" style="stop-color:#9DCF5B"/>
	</linearGradient>
	<path class="st19" d="M549.641,702.983c0,0-22.027-5.399-24.727-13.498c-2.7-8.099-18.897-9.719-16.198-21.057
		s-7.559-18.897-3.779-28.616c3.779-9.719,14.578-21.597,22.137-44.274c7.559-22.677,16.198-21.597,18.897-8.099
		c2.7,13.498,10.798,16.198,14.038,18.897c3.24,2.7,33.475,9.719,34.555,23.757c1.08,14.038,4.859,19.437,8.099,21.057
		c3.24,1.62,11.878,15.118,7.019,21.057s-29.696,22.137-24.836,30.776C589.705,711.622,548.451,684.086,549.641,702.983z"/>
	
		<linearGradient id="SVGID_21_" gradientUnits="userSpaceOnUse" x1="-1737.9397" y1="132.884" x2="-1737.9397" y2="82.4555" gradientTransform="matrix(-0.9258 -0.3781 -0.3781 0.9258 -1024.79 -71.3772)">
		<stop  offset="0" style="stop-color:#80552E"/>
		<stop  offset="0.7396" style="stop-color:#A3693F"/>
		<stop  offset="1" style="stop-color:#B07145"/>
	</linearGradient>
	<path class="st20" d="M552.074,697.605c0,0,4.541-30.363,2.209-37.088s-9.886-17.296-8.838-18.897
		c1.048-1.601,3.693,0.403,3.685,1.554c-0.008,1.151,8.001,13.196,9.027,14.076c1.026,0.881,0.925,14.692,0.468,17.507
		c-0.457,2.815,0.762,6.028,3.205,3.568S552.074,697.605,552.074,697.605z"/>
	
		<linearGradient id="SVGID_22_" gradientUnits="userSpaceOnUse" x1="-1261.7279" y1="-379.474" x2="-1261.7279" y2="-495.0206" gradientTransform="matrix(-0.6423 -0.7665 -0.7665 0.6423 -630.593 38.0612)">
		<stop  offset="0" style="stop-color:#80552E"/>
		<stop  offset="0.7396" style="stop-color:#A3693F"/>
		<stop  offset="1" style="stop-color:#B07145"/>
	</linearGradient>
	<path class="st21" d="M517.188,753.285c0,0,42.618-63.353,44.744-77.261c2.126-13.908-1.325-39.357,1.984-41.189
		s6.084,4.112,5.008,6.116c-1.076,2.004,1.813,30.45,2.794,32.936c0.98,2.486-11.937,26.539-15.333,31.038
		s-38.049,61.17-31.508,59.123C531.417,762.001,517.188,753.285,517.188,753.285z"/>
</g>
<linearGradient id="SVGID_23_" gradientUnits="userSpaceOnUse" x1="-1114.7606" y1="-28.757" x2="-1114.7606" y2="-179.1703" gradientTransform="matrix(-0.6423 -0.7665 -0.7665 0.6423 -630.593 38.0612)">
	<stop  offset="0" style="stop-color:#4FA484"/>
	<stop  offset="0.4905" style="stop-color:#49A187"/>
	<stop  offset="0.9877" style="stop-color:#9DCF5B"/>
</linearGradient>
<path class="st22" d="M169.948,852.522c-2.207-0.425-4.426-0.889-6.659-1.404c-2.771-0.64-5.649-1.391-7.776-3.278
	c-2.645-2.347-3.658-6.017-5.813-8.82c-4.157-5.407-12.194-7.18-15.349-13.226c-2.114-4.052-1.429-8.918-1.884-13.466
	c-0.728-7.278-4.438-13.873-6.656-20.843c-2.218-6.97-2.635-15.415,2.324-20.792c5.265-5.709,14.61-5.861,20.142-11.312
	c4.161-4.099,5.27-10.261,6.898-15.871c1.628-5.609,4.654-11.652,10.277-13.233c1.728-0.486,3.553-0.492,5.316-0.826
	c6.931-1.314,12.43-7.554,19.479-7.826c5.901-0.227,11.017,3.787,15.538,7.586c-2.187-2.96,2.481-6.985,5.947-5.747
	c3.466,1.238,5.215,4.997,6.71,8.36c2.453,5.518,5.337,11.109,10.129,14.782c4.792,3.673,11.985,4.868,16.818,1.249
	c2.23,2.577,5.098,4.598,8.276,5.831c3.928-1.999,3.636-10.612,7.838-9.28c1.47,0.466,2.143,2.143,2.478,3.649
	c1.421,6.375,0.244,13.182,2.151,19.43c2.342,7.674,8.999,13.428,11.459,21.065c1.566,4.862,1.303,10.097,1.025,15.198
	c-0.425,7.786-0.914,15.822-4.385,22.804c-3.693,7.429-10.357,12.862-16.825,18.057c-6.686,5.371-13.372,10.741-20.059,16.112
	c-2.031,1.631-4.223,3.331-6.816,3.58c-1.892,0.182-3.758-0.439-5.558-1.051C206.576,856.986,188.674,856.131,169.948,852.522z"/>
<linearGradient id="SVGID_24_" gradientUnits="userSpaceOnUse" x1="430.0638" y1="1057.0146" x2="430.0638" y2="546">
	<stop  offset="0" style="stop-color:#FFFFFF"/>
	<stop  offset="1" style="stop-color:#FFFFFF;stop-opacity:0"/>
</linearGradient>
<path class="st23" d="M53,786c4-62,116.177-105.236,136-100c53,14,65.254-40.036,80.632-53.814
	C281,622,291.879,616.106,304.068,610.352c30.882-14.578,67.988,8.033,99.419-5.012c17.282-7.173,29.662-23.877,44.49-36.081
	c25.374-20.883,59.295-28.342,89.905-19.769c48.262,13.518,82.189,61.92,127.703,84.313c17.511,8.616,36.51,13.246,53.611,22.827
	c54.187,30.357,76.911,100.897,104.951,160.739c11.589,24.732,24.876,48.69,33.026,75.065c8.15,26.375,10.748,56.168,0.742,81.741
	c-10.57,27.015-34.04,45.832-59.269,54.815c-25.229,8.983-52.259,9.281-78.716,7.816c-38.107-2.111-76.057-7.713-113.34-16.731
	c-33.488-8.1-70.058-18.589-100.625-1.353c-13.764,7.761-24.821,20.534-38.496,28.487c-40.577,23.599-88.978-0.611-132.006-18.031
	c-56.008-22.676-115.282-33.519-174.399-41.988c-45.726-6.55-93.835-9.13-138.547-22.136C7.403,960.657-2.386,955.18-4.176,937.08
	C-6.586,912.704,32.564,891.261,35,867C37.825,838.871,51.19,814.052,53,786z"/>
<g>
	<g>
		
			<linearGradient id="SVGID_25_" gradientUnits="userSpaceOnUse" x1="593.7407" y1="594.4053" x2="593.7407" y2="539.2482" gradientTransform="matrix(-1 0 0 1 1000.6649 0)">
			<stop  offset="0" style="stop-color:#80552E"/>
			<stop  offset="0.7396" style="stop-color:#A3693F"/>
			<stop  offset="1" style="stop-color:#B07145"/>
		</linearGradient>
		<path class="st24" d="M416.504,575.57c0,0-6.589-27.233-11.42-32.724c-4.832-5.491-9.37-19.366-8.995-21.296
			c0.375-1.93,3.67-1.051,4.109,0.047c0.439,1.098,5.984,16.198,7.302,16.637c1.318,0.439,6.589,13.617,7.248,16.472
			c0.659,2.855,1.217,5.042,2.585,1.752C418.7,553.168,416.504,575.57,416.504,575.57z"/>
		
			<linearGradient id="SVGID_26_" gradientUnits="userSpaceOnUse" x1="-221.4846" y1="1506.9484" x2="-221.4846" y2="1432.0122" gradientTransform="matrix(-0.0776 -0.997 -0.997 0.0776 1875.6484 213.1647)">
			<stop  offset="0" style="stop-color:#80552E"/>
			<stop  offset="0.7396" style="stop-color:#A3693F"/>
			<stop  offset="1" style="stop-color:#B07145"/>
		</linearGradient>
		<path class="st25" d="M416.99,562.291c0,0,20.171-11.231,30.023-21.362s35.9-20.955,39.674-20.521
			c3.774,0.433,2.576,6.911,0.526,7.922c-2.049,1.011-30.305,13.957-30.954,16.561s-15.213,8.863-21.421,24.384
			c-2.103,5.257-18.752-4.85-12.21-2.709C429.17,568.708,416.99,562.291,416.99,562.291z"/>
		<path class="st43" d="M503.553,565.275c0,0-6.992,23.104-17.887,10.084c0,0-8.913,38.039-26.938,6.048
			c0,0-12.209,31.374-42.137,49.326"/>
		<g>
			
				<linearGradient id="SVGID_27_" gradientUnits="userSpaceOnUse" x1="413.6913" y1="208.9333" x2="413.6913" y2="167.1714" gradientTransform="matrix(-0.8844 0.4667 0.4667 0.8844 663.6045 231.8586)">
				<stop  offset="0" style="stop-color:#80552E"/>
				<stop  offset="0.7396" style="stop-color:#A3693F"/>
				<stop  offset="1" style="stop-color:#B07145"/>
			</linearGradient>
			<path class="st26" d="M397.84,592.233c0,0-16.858-19.032-22.367-21.128c-5.509-2.096-16.237-2.924-16.695-4.441
				c-0.458-1.517,2.22-2.13,2.946-1.512c0.726,0.617,12.632,1.94,13.736,1.757c1.104-0.183,9.818,7.227,11.362,9.014
				c1.544,1.787,4.232,2.723,3.969-0.137C390.529,572.927,397.84,592.233,397.84,592.233z"/>
			
				<linearGradient id="SVGID_28_" gradientUnits="userSpaceOnUse" x1="613.7179" y1="652.9622" x2="613.7179" y2="575.8505" gradientTransform="matrix(-1 0 0 1 1000.6649 0)">
				<stop  offset="0" style="stop-color:#80552E"/>
				<stop  offset="0.7396" style="stop-color:#A3693F"/>
				<stop  offset="1" style="stop-color:#B07145"/>
			</linearGradient>
			<path class="st27" d="M407.579,626.629c0,0-10.497-43.386-18.194-52.133c-7.697-8.747-25.687-20.092-25.09-23.167
				c0.598-3.075,5.846-1.675,6.546,0.074c0.7,1.749,20.293,15.045,22.393,15.745s10.497,21.693,11.546,26.241
				c1.05,4.549,1.939,8.032,4.119,2.792S407.579,626.629,407.579,626.629z"/>
			
				<linearGradient id="SVGID_29_" gradientUnits="userSpaceOnUse" x1="-375.4844" y1="2536.8499" x2="-375.4844" y2="2422.8345" gradientTransform="matrix(0.2313 -0.9729 -0.7644 -0.1817 2424.0017 655.0539)">
				<stop  offset="0" style="stop-color:#80552E"/>
				<stop  offset="0.7396" style="stop-color:#A3693F"/>
				<stop  offset="1" style="stop-color:#B07145"/>
			</linearGradient>
			<path class="st28" d="M425.584,575.693c0,0,51.077-3.339,63.227-11.805c12.151-8.466,28.806-11.827,31.98-10.191
				c3.174,1.636-0.103,8.599-2.255,9.12c-2.151,0.521-21.478,5.613-22.943,8.361c-1.465,2.748-27.281,8.997-32.618,9.276
				c-5.338,0.279-34.541,11.861-38.752,18.538C419.67,606.215,425.584,575.693,425.584,575.693z"/>
			
				<linearGradient id="SVGID_30_" gradientUnits="userSpaceOnUse" x1="-1770.6172" y1="1386.072" x2="-1770.6172" y2="1004.611" gradientTransform="matrix(0.7404 0.107 0.143 -0.9897 1573.4542 1885.0033)">
				<stop  offset="0" style="stop-color:#80552E"/>
				<stop  offset="0.7396" style="stop-color:#A3693F"/>
				<stop  offset="1" style="stop-color:#B07145"/>
			</linearGradient>
			<path class="st29" d="M439.531,469.44c0,0-61.935,231.767-61.961,276.262s5.504,48.928,4.85,65.913
				c-1.163,30.211,5.345,16.175,6.98,4.859c1.635-11.316,12.254-104.769,13.048-121.342c0.794-16.572,46.933-198.598,58.404-222.613
				C472.322,448.505,444.824,450.523,439.531,469.44z"/>
			<g>
				<defs>
					<path id="SVGID_80_" d="M554.132,552.061c0,0-11.594-15.686-24.551-6.82c0,0-14.322-16.367-30.007-7.502
						c-15.686,8.866-13.64,16.367-25.233,14.322c-11.594-2.046-22.505,0-22.505,5.456s8.866,19.095,22.505,12.958
						s37.509-10.912,43.647-6.82C524.124,567.746,564.361,577.294,554.132,552.061z"/>
				</defs>
				<clipPath id="SVGID_31_">
					<use xlink:href="#SVGID_80_"  style="overflow:visible;"/>
				</clipPath>
				
					<linearGradient id="SVGID_32_" gradientUnits="userSpaceOnUse" x1="496.8534" y1="584.6385" x2="496.8534" y2="547.7152" gradientTransform="matrix(-1 0 0 1 1000.6649 0)">
					<stop  offset="0" style="stop-color:#4FA484"/>
					<stop  offset="0.4335" style="stop-color:#9DCF5B"/>
					<stop  offset="0.5049" style="stop-color:#93CA60"/>
					<stop  offset="0.626" style="stop-color:#78BB6E"/>
					<stop  offset="0.7814" style="stop-color:#4DA385"/>
					<stop  offset="0.7944" style="stop-color:#49A187"/>
				</linearGradient>
				<path style="clip-path:url(#SVGID_31_);fill:url(#SVGID_32_);" d="M554.132,552.061c0,0-11.594-15.686-24.551-6.82
					c0,0-14.322-16.367-30.007-7.502c-15.686,8.866-13.64,16.367-25.233,14.322c-11.594-2.046-22.505,0-22.505,5.456
					s8.866,19.095,22.505,12.958s37.509-10.912,43.647-6.82C524.124,567.746,564.361,577.294,554.132,552.061z"/>
				
					<linearGradient id="SVGID_33_" gradientUnits="userSpaceOnUse" x1="483.3468" y1="513.9498" x2="483.3468" y2="563.29" gradientTransform="matrix(-1 0 0 1 1000.6649 0)">
					<stop  offset="0" style="stop-color:#9DCF5B"/>
					<stop  offset="0.1921" style="stop-color:#94CA60"/>
					<stop  offset="0.5054" style="stop-color:#7CBD6C"/>
					<stop  offset="0.8987" style="stop-color:#54A781"/>
					<stop  offset="1" style="stop-color:#49A187"/>
				</linearGradient>
				<path style="clip-path:url(#SVGID_31_);fill:url(#SVGID_33_);" d="M485.918,539.037c0,0,45.229,0.448,40.047,16.745
					s-18.963,0.806-30.624,5.194c-11.661,4.388-20.023,19.163-20.023,19.163l37.455-0.627l39.222-3.134
					c0,0,7.774-21.939,7.303-22.387c-0.471-0.448-17.432-18.894-17.432-18.894l-52.296-4.298L485.918,539.037z"/>
			</g>
			<g>
				<defs>
					<path id="SVGID_84_" d="M405.862,548.201c-0.437-1.017-6.057-19.26-19.549-17.477c0,0-20.364-16.916-24.222,0.162
						c-3.858,17.078-18.864,2.443-22.703,11.698c-3.84,9.254-2.599,36.118,14.38,28.929c16.979-7.189,37.153-3.906,44.86-7.212
						C404.423,561.813,409.846,557.473,405.862,548.201z"/>
				</defs>
				<clipPath id="SVGID_34_">
					<use xlink:href="#SVGID_84_"  style="overflow:visible;"/>
				</clipPath>
				
					<linearGradient id="SVGID_35_" gradientUnits="userSpaceOnUse" x1="602.3304" y1="717.2265" x2="671.6921" y2="717.2265" gradientTransform="matrix(-0.9834 -0.1812 -0.1812 0.9834 1129.2202 -39.4803)">
					<stop  offset="0.0045" style="stop-color:#53AFA8"/>
					<stop  offset="1" style="stop-color:#A9CA54"/>
				</linearGradient>
				<path style="clip-path:url(#SVGID_34_);fill:url(#SVGID_35_);" d="M405.862,548.201c-0.437-1.017-6.057-19.26-19.549-17.477
					c0,0-20.364-16.916-24.222,0.162c-3.858,17.078-18.864,2.443-22.703,11.698c-3.84,9.254-2.599,36.118,14.38,28.929
					c16.979-7.189,37.153-3.906,44.86-7.212C404.423,561.813,409.846,557.473,405.862,548.201z"/>
				
					<linearGradient id="SVGID_36_" gradientUnits="userSpaceOnUse" x1="615.7244" y1="766.615" x2="615.7244" y2="686.648" gradientTransform="matrix(-0.9834 -0.1812 -0.1812 0.9834 1129.2202 -39.4803)">
					<stop  offset="0" style="stop-color:#9DCF5B"/>
					<stop  offset="0.1921" style="stop-color:#94CA60"/>
					<stop  offset="0.5054" style="stop-color:#7CBD6C"/>
					<stop  offset="0.8987" style="stop-color:#54A781"/>
					<stop  offset="1" style="stop-color:#49A187"/>
				</linearGradient>
				<path style="clip-path:url(#SVGID_34_);fill:url(#SVGID_36_);" d="M353.298,530.333c0,0,12.839,23,28.07,27.23
					c15.231,4.229,17.323,20.11,17.323,20.11s37.605-9.278,38.891-10.464s-7.233-65.016-8.953-65.333s-74.044,13.752-74.298,15.128
					C354.077,518.38,353.298,530.333,353.298,530.333z"/>
			</g>
			<linearGradient id="SVGID_37_" gradientUnits="userSpaceOnUse" x1="239.295" y1="475.6589" x2="620.1791" y2="475.6589">
				<stop  offset="0" style="stop-color:#9DCF5B"/>
				<stop  offset="0.1921" style="stop-color:#94CA60"/>
				<stop  offset="0.5054" style="stop-color:#7CBD6C"/>
				<stop  offset="0.8987" style="stop-color:#54A781"/>
				<stop  offset="1" style="stop-color:#49A187"/>
			</linearGradient>
			<path class="st36" d="M384.531,518.374c-18.005-7.245-37.021-13.201-56.417-12.522c-8.589,0.3-17.298,1.892-25.695,0.057
				c-8.397-1.834-16.643-8.471-16.637-17.065c-10.66-0.554-21.694-1.205-31.17-6.118c-9.476-4.913-16.978-15.342-14.997-25.831
				c9.389-3.228,19.566,6.311,29.043,3.349c4.776-1.493,8.08-5.836,12.497-8.187c3.244-1.726,6.952-2.309,10.56-3.011
				c23.177-4.509,45.15-15.068,63.151-30.349c3.78-3.209,7.489-6.685,12.076-8.566c10.392-4.26,22.665,0.605,33.317-2.955
				c3.802-1.27,7.172-3.55,10.778-5.3c13.569-6.584,30.74-4.975,42.851,4.015c4.978-1.507,10.066-2.65,15.21-3.418
				c1.636-0.244,3.364-0.44,4.896,0.181c7.145,2.899,0.473,16.465,6.951,20.647c6.193-7.25,13.168-13.832,20.764-19.595
				c7.113-5.397,14.984-10.161,23.747-11.868s18.582,0.077,24.957,6.328c5.319,5.215,7.048,15.219,1.008,19.58
				c0.032,3.733,3.702,6.5,7.346,7.312c3.644,0.811,7.453,0.296,11.156,0.773c12.962,1.668,21.126,14.398,27.464,25.827
				c1.073,1.936,2.177,3.985,2.153,6.199c-0.023,2.1-1.057,4.035-1.705,6.033c-4.107,12.668,7.138,24.467,13.481,36.176
				c7.828,14.451,8.43,31.581,8.853,48.01c0.116,4.522-0.516,10.201-4.786,11.694c-2.67,0.934-5.582-0.336-8.009-1.791
				c-9.282-5.564-17.664-14.588-28.484-14.387c-3.692,0.068-7.32,1.264-11.008,1.088c-10.894-0.519-17.706-12.102-27.676-16.524
				c-14.539-6.447-30.639,3.581-46.34,6.116c-9.712,1.568-19.837-0.097-28.704-4.292c-7.684-3.635-14.645-14.272-22.615-16.158
				c-9.638-2.281-16.181,7.741-24.896,10.278C406.33,527.397,394.928,522.558,384.531,518.374z"/>
		</g>
	</g>
	<linearGradient id="SVGID_38_" gradientUnits="userSpaceOnUse" x1="21.215" y1="854.6298" x2="853.1191" y2="854.6298">
		<stop  offset="0" style="stop-color:#9DCF5B"/>
		<stop  offset="0.1921" style="stop-color:#94CA60"/>
		<stop  offset="0.5054" style="stop-color:#7CBD6C"/>
		<stop  offset="0.8987" style="stop-color:#54A781"/>
		<stop  offset="1" style="stop-color:#49A187"/>
	</linearGradient>
	<path class="st37" d="M23.287,910.879c0.395-3.939,0.79-7.879,1.185-11.818c2.289-22.825,26.415-43.511,18.946-65.201
		c-4.26-12.372,23.928-41.65,30.93-47.562c18.314-15.462,26.73,17.125,49.456,9.511s49.648-25.241,66.168-7.875
		c8.57-11.189,17.14-22.378,25.71-33.567c9.349-12.206,20.979-3.132,33.664-11.819c12.685-8.687,23.598-7.168,38.043-1.902
		c-4.574-16.672,38.066,0.159,43.75-16.168c6.119-17.576,29.866,7.004,45.652-2.853c29.087-18.163,28.891-32.408,50.407-5.706
		c9.112,11.308,23.112-26.135,35.19-18.07c15.948,10.648,24.566-21.038,34.964-4.926c6.033,9.349,6.096,23.443,16.043,28.428
		c6.042,3.028,13.237,1.168,19.878-0.087c29.957-5.663,62.327,3.245,85.169,23.438c12.41,10.97,22.13,25.022,35.915,34.205
		c18.242,12.154,41.624,14.465,60.065,26.315c19.8,12.722,31.324,34.586,44.612,54.011c15.283,22.342,33.864,42.425,54.954,59.394
		c16.789,13.509,36.815,27.779,38.986,49.219c0.421,4.156,0.023,8.616-2.388,12.027c-2.139,3.027-5.566,4.84-8.916,6.427
		c-27.471,13.015-57.999,18.046-88.227,21.255c-39.275,4.169-78.852,5.5-118.319,3.981c-43.241-1.664-86.435-6.745-129.671-4.941
		c-41.49,1.731-82.462,9.782-123.859,13.057s-84.378,1.48-122.289-15.464c-27.931-12.484-53.158-33.107-83.543-36.675
		c-5.842-0.686-11.828-0.703-17.534,0.722c-7.083,1.769-13.414,5.659-19.967,8.878c-28.763,14.129-67.018,15.943-96.157,1.495
		C15.95,965.639,20.749,936.185,23.287,910.879z"/>
	<g>
		<linearGradient id="SVGID_39_" gradientUnits="userSpaceOnUse" x1="58.9575" y1="628.0112" x2="146.6093" y2="628.0112">
			<stop  offset="0" style="stop-color:#80552E"/>
			<stop  offset="0.7396" style="stop-color:#A3693F"/>
			<stop  offset="1" style="stop-color:#B07145"/>
		</linearGradient>
		<path class="st38" d="M76.068,612.481c2.824-0.02,5.68-0.137,8.443,0.448c2.741,0.58,5.287,1.83,7.793,3.083
			c13.862,6.931,27.5,14.309,40.886,22.119c5.12,2.987,10.53,6.405,12.76,11.898c0.576-3.246,0.777-6.559,0.596-9.851
			c-3.049-0.497-5.551-2.589-7.996-4.478c-10.967-8.472-23.787-14.206-36.758-19.084c-1.639-0.617-3.288-1.223-4.848-2.017
			c-1.445-0.736-2.804-1.628-4.231-2.397c-4.939-2.659-10.542-3.762-16.049-4.831c-2.793-0.542-16.451-3.34-17.661,1.054
			C58.019,611.989,73.768,612.497,76.068,612.481z"/>
		<linearGradient id="SVGID_41_" gradientUnits="userSpaceOnUse" x1="125.2823" y1="694.7983" x2="125.2823" y2="652.0629">
			<stop  offset="0" style="stop-color:#80552E"/>
			<stop  offset="0.7396" style="stop-color:#A3693F"/>
			<stop  offset="1" style="stop-color:#B07145"/>
		</linearGradient>
		<path style="fill:url(#SVGID_41_);" d="M146.49,680.205c0,0-1.552-10.864-5.432-13.968s-17.848-5.432-20.176-6.984
			c-2.328-1.552-4.656-10.864-6.208-11.64c-1.552-0.776-11.64-1.552-13.192-3.104c-1.552-1.552-1.552-4.656-0.776-4.656
			s0.776,1.552,1.552,2.328c0.776,0.776,6.208,1.552,6.208,1.552s2.328-1.552,2.328-2.328s0.776,0.776,0.776,1.552
			c0,0.776-1.205,1.354-1.205,1.354s5.085,0.198,6.637,0.974c1.552,0.776,4.656,11.64,6.208,11.64c1.552,0,4.656-9.312,3.88-10.864
			c-0.776-1.552-5.432-9.312-3.88-8.536c1.552,0.776,5.432,6.984,5.432,8.536c0,1.552-0.776,9.312-1.552,10.864
			c-0.776,1.552,9.312,3.104,10.088,3.104s9.185,3.625,8.084-4.008c-1.1-7.632,5.108,7.112,5.108,7.112L146.49,680.205z"/>
		<linearGradient id="SVGID_42_" gradientUnits="userSpaceOnUse" x1="180.7209" y1="717.9936" x2="177.4001" y2="647.5872">
			<stop  offset="0" style="stop-color:#80552E"/>
			<stop  offset="0.7396" style="stop-color:#A3693F"/>
			<stop  offset="1" style="stop-color:#B07145"/>
		</linearGradient>
		<path style="fill:url(#SVGID_42_);" d="M154.307,687.039c0,0-1.235-13.587,2.47-18.528c3.706-4.941,35.821-28.41,39.527-33.351
			c3.706-4.941,2.47-11.117,2.47-11.117s2.47-3.706,2.47,0s1.235,9.882-1.235,12.352c-2.47,2.47-38.292,32.115-39.527,35.821
			c-1.235,3.706-2.482,14.839-1.859,21.007S154.307,687.039,154.307,687.039z"/>
		
			<linearGradient id="SVGID_43_" gradientUnits="userSpaceOnUse" x1="-2207.2222" y1="1053.4017" x2="-2207.2222" y2="822.6946" gradientTransform="matrix(-0.9989 0.0471 0.0471 0.9989 -2102.2974 -59.2429)">
			<stop  offset="0" style="stop-color:#80552E"/>
			<stop  offset="0.7396" style="stop-color:#A3693F"/>
			<stop  offset="1" style="stop-color:#B07145"/>
		</linearGradient>
		<path style="fill:url(#SVGID_43_);" d="M148.986,800.039c0,0,15.546-110.729,9.174-137.095s-10.997-62.577-12.917-72.722
			c-3.415-18.043-6.574-8.92-6.249-2.013c0.326,6.907,5.307,63.594,7.057,73.511c1.75,9.917-8.79,123.487-14.462,139.139
			S147.494,811.904,148.986,800.039z"/>
		<linearGradient id="SVGID_44_" gradientUnits="userSpaceOnUse" x1="154.398" y1="603.9474" x2="154.398" y2="509.3047">
			<stop  offset="0" style="stop-color:#9DCF5B"/>
			<stop  offset="0.1921" style="stop-color:#94CA60"/>
			<stop  offset="0.5054" style="stop-color:#7CBD6C"/>
			<stop  offset="0.8987" style="stop-color:#54A781"/>
			<stop  offset="1" style="stop-color:#49A187"/>
		</linearGradient>
		<path style="fill:url(#SVGID_44_);" d="M54.441,564.414c-0.785,2.481-0.253,5.165,0.284,7.711
			c2.694-1.628,6.254-0.166,8.564,1.971c2.31,2.138,4.028,4.931,6.656,6.663c2.352,1.55,5.207,2.098,7.987,2.546
			c7.998,1.29,16.085,2.028,24.184,2.207c1.824,0.04,3.683,0.058,5.415,0.634c2.384,0.793,4.293,2.56,6.382,3.955
			c5.359,3.578,12.276,4.723,18.502,3.065c4.88,9.033,16.803,11.773,26.988,10.478s19.826-5.576,30.032-6.69
			c6.1-0.665,12.395-0.2,18.251-2.034c3.581-1.121,6.859-3.066,10.432-4.214c3.143-1.01,6.448-1.384,9.691-2.003
			c8.126-1.551,15.865-4.642,23.546-7.715c1.885-0.754,4.174-2.553,3.138-4.299c-0.64-1.079-2.124-1.163-3.323-1.531
			c-5.71-1.752-5.526-10.433-10.207-14.143c-5.649-4.477-15.965,0.026-20.121-5.863c-1.287-1.824-1.541-4.238-2.89-6.016
			c-1.876-2.473-5.294-3.069-7.926-4.713c-4.509-2.816-6.295-8.348-8.601-13.138c-3.365-6.988-8.477-13.125-14.742-17.698
			c-3.142-2.293-6.758-4.25-10.648-4.284s-8.01,2.39-8.809,6.196c-7.416,1.032-14.508,4.283-20.131,9.226
			c-3.017,2.653-5.737,6.063-6.062,10.067c-0.092,1.141-0.009,2.377-0.644,3.329c-1.573,2.358-5.131,0.695-7.86-0.069
			c-6.025-1.686-11.949,2.502-16.95,6.262c-5.001,3.76-11.45,7.49-17.151,4.913c-2.233-1.009-4.041-2.908-6.405-3.55
			c-1.782-0.484-3.685-0.192-5.46,0.317c-4.89,1.401-9.284,4.471-12.283,8.58c-0.947,1.298-1.833,2.761-3.281,3.457
			c-1.794,0.861-3.903,0.302-5.894,0.275C61.845,558.266,55.472,561.158,54.441,564.414z"/>
		
			<linearGradient id="SVGID_45_" gradientUnits="userSpaceOnUse" x1="195.5545" y1="705.365" x2="194.7294" y2="687.871" gradientTransform="matrix(0.5043 0.8635 -0.8635 0.5043 691.9194 114.8497)">
			<stop  offset="0" style="stop-color:#80552E"/>
			<stop  offset="0.7396" style="stop-color:#A3693F"/>
			<stop  offset="1" style="stop-color:#B07145"/>
		</linearGradient>
		<path class="st41" d="M189.886,641.469c0,0,2.264-2.417,2.39-4.531c0.126-2.114,0.248-12.388,0.966-13.488
			c0.718-1.1,4.776-3.469,4.058-2.37s-3.043,1.777-2.958,3.088s-0.037,11.585-0.248,12.388c-0.211,0.803-1.055,4.017-1.055,4.017
			L189.886,641.469z"/>
		
			<linearGradient id="SVGID_46_" gradientUnits="userSpaceOnUse" x1="-2335.3701" y1="883.2822" x2="-2335.3701" y2="861.6693" gradientTransform="matrix(0.9989 -0.0471 -0.0471 -0.9989 2568.1533 1375.9574)">
			<stop  offset="0" style="stop-color:#4FA484"/>
			<stop  offset="0.4905" style="stop-color:#49A187"/>
			<stop  offset="0.9877" style="stop-color:#9DCF5B"/>
		</linearGradient>
		<path class="st42" d="M200.365,612.541c0,0,12.638,8.45,11.738,11.951c-0.899,3.501-3.213,5.207-6.98,4.32
			s-8.683-3.581-11.225-1.067c-2.542,2.514-17.955,8.563-16.044,3.949c1.911-4.613-2.702-6.524,3.859-8.43
			c6.562-1.906-1.781-3.907,3.719-5.763c5.5-1.856,1.418-3.792,4.844-4.485C193.703,612.323,195.677,609.037,200.365,612.541z"/>
		<g>
			<defs>
				<path id="SVGID_97_" d="M160.459,655.738c0.275-0.413,4.237-8.003,10.043-6.12c0,0,10.357-5.806,10.671,2.04
					s5.335,3.452,6.277,7.846s-4.865,10.985-11.769,6.434c-6.905-4.551-11.769-4.865-13.339-2.511S157.948,659.504,160.459,655.738z
					"/>
			</defs>
			<clipPath id="SVGID_47_">
				<use xlink:href="#SVGID_97_"  style="overflow:visible;"/>
			</clipPath>
			<linearGradient id="SVGID_48_" gradientUnits="userSpaceOnUse" x1="173.5052" y1="674.2779" x2="173.5052" y2="654.3539">
				<stop  offset="0.0045" style="stop-color:#53AFA8"/>
				<stop  offset="1" style="stop-color:#A9CA54"/>
			</linearGradient>
			<path style="clip-path:url(#SVGID_47_);fill:url(#SVGID_48_);" d="M160.459,655.738c0.275-0.413,4.237-8.003,10.043-6.12
				c0,0,10.357-5.806,10.671,2.04s5.335,3.452,6.277,7.846s-4.865,10.985-11.769,6.434c-6.905-4.551-11.769-4.865-13.339-2.511
				S157.948,659.504,160.459,655.738z"/>
			<linearGradient id="SVGID_49_" gradientUnits="userSpaceOnUse" x1="165.3146" y1="681.5684" x2="165.3146" y2="645.7024">
				<stop  offset="0" style="stop-color:#4FA484"/>
				<stop  offset="0.4905" style="stop-color:#49A187"/>
				<stop  offset="0.9877" style="stop-color:#9DCF5B"/>
			</linearGradient>
			<path style="clip-path:url(#SVGID_47_);fill:url(#SVGID_49_);" d="M185.096,652.129c0,0-7.532,9.102-14.594,9.729
				c-7.062,0.628-9.275,7.462-9.275,7.462s-15.833-7.148-16.304-7.776s8.474-28.09,9.259-28.09s31.542,12.083,31.542,12.711
				S185.096,652.129,185.096,652.129z"/>
		</g>
		<linearGradient id="SVGID_50_" gradientUnits="userSpaceOnUse" x1="67.0342" y1="614.1666" x2="67.0342" y2="580.7631">
			<stop  offset="0" style="stop-color:#9DCF5B"/>
			<stop  offset="0.1921" style="stop-color:#94CA60"/>
			<stop  offset="0.5054" style="stop-color:#7CBD6C"/>
			<stop  offset="0.8987" style="stop-color:#54A781"/>
			<stop  offset="1" style="stop-color:#49A187"/>
		</linearGradient>
		<path class="st47" d="M36.186,586.208c-0.621,1.225-0.627,2.711-1.356,3.875c-0.672,1.074-1.847,1.705-2.801,2.538
			c-3.665,3.202-3.228,9.908,0.821,12.608c5.694,3.796,14.178-0.657,19.923,3.062c2.205,1.427,3.652,3.89,6.008,5.051
			c2.05,1.01,4.453,0.873,6.732,0.714c11.079-0.775,22.157-1.55,33.236-2.325c0.775-0.054,1.581-0.118,2.249-0.513
			c2.328-1.378,1.346-5.471,3.54-7.053c-1.381-1.702-4.162-0.619-6.255-1.269c-3.029-0.941-5.236-5.57-8.017-4.045
			c-0.385-5.956-1.239-12.77-6.194-16.097c-3.94-2.646-9.126-2.105-13.828-1.461c-3.659,0.501-7.319,1.002-10.978,1.503
			c-1.49,0.204-3.406,0.899-3.287,2.399C52.142,583.658,38.517,581.607,36.186,586.208z"/>
		<linearGradient id="SVGID_51_" gradientUnits="userSpaceOnUse" x1="116.7078" y1="644.7524" x2="116.7078" y2="617.3052">
			<stop  offset="0" style="stop-color:#9DCF5B"/>
			<stop  offset="0.1921" style="stop-color:#94CA60"/>
			<stop  offset="0.5054" style="stop-color:#7CBD6C"/>
			<stop  offset="0.8987" style="stop-color:#54A781"/>
			<stop  offset="1" style="stop-color:#49A187"/>
		</linearGradient>
		<path class="st48" d="M114.37,617.981c-2.238-0.818-4.697-0.758-7.068-0.522c-0.598,0.06-1.222,0.14-1.714,0.484
			c-1.065,0.746-1.106,2.412-2.132,3.211c-0.524,0.408-1.218,0.517-1.805,0.827c-1.713,0.905-1.935,3.701-0.387,4.866
			c-4.133,0.915-7.517,4.564-8.117,8.755c-0.089,0.625-0.122,1.268,0.026,1.882c0.512,2.133,2.958,3.194,5.145,3.361
			c2.187,0.166,4.448-0.228,6.544,0.417c2.799,0.862,5.031,3.498,7.96,3.49c1.915-0.005,3.61-1.165,5.177-2.266
			c3.193-2.243,6.978-4.541,10.749-3.539c1.501,0.399,2.822,1.295,4.281,1.826c1.315,0.478,2.718,0.653,4.106,0.823
			c0.635,0.078,1.305,0.151,1.891-0.107c1.394-0.615,1.427-2.551,1.229-4.062c-0.454-3.468-1.197-7.347-4.1-9.298
			c-2.316-1.556-5.321-1.4-8.098-1.664c-2.683-0.255-6.392-0.789-8.418-2.71C117.531,621.758,117.675,619.189,114.37,617.981z"/>
		<linearGradient id="SVGID_52_" gradientUnits="userSpaceOnUse" x1="176.6693" y1="668.8295" x2="173.3486" y2="598.423">
			<stop  offset="0" style="stop-color:#80552E"/>
			<stop  offset="0.7396" style="stop-color:#A3693F"/>
			<stop  offset="1" style="stop-color:#B07145"/>
		</linearGradient>
		<path class="st49" d="M150.256,637.875c0,0-1.235-13.587,2.47-18.528s35.821-28.41,39.527-33.351
			c3.706-4.941,2.47-11.117,2.47-11.117s2.47-3.706,2.47,0s1.235,9.882-1.235,12.352c-2.47,2.47-38.292,32.115-39.527,35.821
			s-2.482,14.839-1.859,21.007C155.196,650.227,150.256,637.875,150.256,637.875z"/>
	</g>
	<g>
		<linearGradient id="SVGID_53_" gradientUnits="userSpaceOnUse" x1="281.4027" y1="823.3102" x2="533.6212" y2="823.3102">
			<stop  offset="0" style="stop-color:#4FA484"/>
			<stop  offset="0.4905" style="stop-color:#49A187"/>
			<stop  offset="0.9877" style="stop-color:#9DCF5B"/>
		</linearGradient>
		<path class="st50" d="M467.841,847.471c4.63-4,10.224-8.273,16.219-7.045c2.222,0.455,4.249,1.653,6.487,2.017
			c4.798,0.78,9.508-2.549,11.884-6.79c2.376-4.241,2.925-9.229,3.427-14.064c8.575,2.944,18.799,0.251,24.81-6.536
			c2.346-2.648,4.063-6.681,2.096-9.621c-1.233-1.843-3.513-2.619-5.618-3.315c-14.081-4.659-27.531-11.016-40.939-17.356
			c-16.415-7.762-32.829-15.523-49.244-23.285c-3.151-1.49-6.695-3.012-10.009-1.931c-2.172,0.709-3.836,2.424-5.714,3.727
			c-6.086,4.224-14.107,3.964-21.503,3.539c-9.733-0.559-19.465-1.119-29.198-1.678c-7.717-0.443-16.853-0.241-21.283,6.093
			c-3.484,4.981-2.481,11.702-1.332,17.671c-19.549,9.307-39.869,16.995-60.683,22.96c-1.518,0.435-3.117,0.908-4.196,2.06
			c-1.315,1.405-1.55,3.485-1.614,5.409c-0.276,8.283,1.401,16.624,4.857,24.157c0.957,2.086,2.073,4.145,3.711,5.752
			c3.269,3.207,8.07,4.155,12.579,4.957c8.693,1.546,17.386,3.092,26.08,4.639c3.294,0.586,6.705,1.219,9.44,3.147
			c2.643,1.862,4.366,4.732,6.568,7.098c6.223,6.685,15.755,8.929,24.724,10.653c14.483,2.784,39.774,11.678,53.956,5.674
			C439.036,878.761,454.932,858.621,467.841,847.471z"/>
		<linearGradient id="SVGID_54_" gradientUnits="userSpaceOnUse" x1="410.4084" y1="818.4166" x2="410.4084" y2="867.9078">
			<stop  offset="0" style="stop-color:#9DCF5B"/>
			<stop  offset="0.1921" style="stop-color:#94CA60"/>
			<stop  offset="0.5054" style="stop-color:#7CBD6C"/>
			<stop  offset="0.8987" style="stop-color:#54A781"/>
			<stop  offset="1" style="stop-color:#49A187"/>
		</linearGradient>
		<path class="st51" d="M355.154,822.48c1.489-1.05,3.059-2.132,4.867-2.362c1.591-0.202,3.177,0.281,4.744,0.62
			c9.612,2.081,19.469-1.193,29.259-2.141c9.789-0.947,21.494,1.697,25.35,10.744c1.229,2.885,1.606,6.311,3.889,8.46
			c1.105,1.04,2.544,1.651,3.987,2.121c15.301,4.99,32.116-4.272,41.963-17.003c3.018,1.664,4.116,5.641,3.461,9.025
			c-0.654,3.384-2.678,6.318-4.653,9.143c-2.926,4.183-5.851,8.366-8.777,12.549c-1.718,2.456-3.517,4.989-6.108,6.498
			c-2.545,1.482-5.581,1.814-8.518,2.024c-20.862,1.496-52.944,9.156-73.227,3.971C354.681,861.858,338.053,834.536,355.154,822.48z
			"/>
		
			<linearGradient id="SVGID_55_" gradientUnits="userSpaceOnUse" x1="134.4776" y1="2100.7664" x2="134.4776" y2="2058.5408" gradientTransform="matrix(0.2195 0.9756 0.9756 -0.2195 -1655.741 1191.4873)">
			<stop  offset="0" style="stop-color:#80552E"/>
			<stop  offset="0.7396" style="stop-color:#A3693F"/>
			<stop  offset="1" style="stop-color:#B07145"/>
		</linearGradient>
		<path class="st52" d="M414.33,887.349c0,0-10.639,0.026-14.648-3.037s-10.137-15.242-12.251-17.121s-11.515-2.747-12.681-4.033
			c-1.167-1.286-4.742-10.2-6.637-11.385c-1.895-1.185-4.81-0.781-4.591-0.088c0.219,0.693,1.676,0.492,2.624,1.084
			c0.948,0.593,3.209,5.346,3.209,5.346s-0.8,2.282-1.529,2.383s0.948,0.593,1.676,0.492c0.729-0.101,0.931-1.253,0.931-1.253
			s1.621,4.518,2.788,5.804c1.167,1.286,12.243,2.646,12.681,4.033c0.438,1.387-7.43,5.372-9.106,4.88
			c-1.676-0.492-10.277-3.643-9.11-2.357c1.167,1.286,8.091,3.945,9.548,3.744s8.525-1.905,9.763-2.8s5.542,7.917,5.761,8.611
			c0.219,0.693,5.995,7.736-1.482,7.745c-7.477,0.01,6.912,0.067,6.912,0.067L414.33,887.349z"/>
		
			<linearGradient id="SVGID_56_" gradientUnits="userSpaceOnUse" x1="-1247.2004" y1="893.1985" x2="-1247.2004" y2="844.5132" gradientTransform="matrix(-1 0 0 1 -824.4648 0)">
			<stop  offset="0" style="stop-color:#80552E"/>
			<stop  offset="0.7396" style="stop-color:#A3693F"/>
			<stop  offset="1" style="stop-color:#B07145"/>
		</linearGradient>
		<path class="st53" d="M397.621,893.094c0,0,41.917-10.306,44.289-15.927s8.7-9.369,9.491-25.296
			c0.791-15.927-2.373-1.874-3.954,3.747s-7.118,15.927-10.281,17.801c-3.164,1.874-41.126,11.243-42.708,13.116
			C392.876,888.41,395.248,894.031,397.621,893.094z"/>
		
			<linearGradient id="SVGID_57_" gradientUnits="userSpaceOnUse" x1="-1259.8285" y1="877.4294" x2="-1259.8285" y2="853.6406" gradientTransform="matrix(-1 0 0 1 -824.4648 0)">
			<stop  offset="0" style="stop-color:#80552E"/>
			<stop  offset="0.7396" style="stop-color:#A3693F"/>
			<stop  offset="1" style="stop-color:#B07145"/>
		</linearGradient>
		<path class="st54" d="M434.792,876.23c0,0-1.582-6.558-0.791-7.495s5.536-6.558,5.536-8.432c0-1.874,1.582-7.495,0-6.558
			c-1.582,0.937-1.582,5.621-2.373,7.495c-0.791,1.874-6.327,3.747-6.327,5.621c0,1.874-0.791,9.369,0,10.306
			C431.629,878.104,434.792,876.23,434.792,876.23z"/>
		
			<linearGradient id="SVGID_58_" gradientUnits="userSpaceOnUse" x1="-1259.4889" y1="864.0508" x2="-1259.4889" y2="857.5925" gradientTransform="matrix(-1 0 0 1 -824.4648 0)">
			<stop  offset="0" style="stop-color:#80552E"/>
			<stop  offset="0.7396" style="stop-color:#A3693F"/>
			<stop  offset="1" style="stop-color:#B07145"/>
		</linearGradient>
		<path class="st55" d="M436.374,863.114c0,0-0.791-0.937-1.582-3.747c-0.791-2.811-1.582-1.874-0.791,0s1.582,4.684,1.582,4.684
			L436.374,863.114z"/>
		
			<linearGradient id="SVGID_59_" gradientUnits="userSpaceOnUse" x1="-1234.3445" y1="888.3831" x2="-1234.3445" y2="843.1272" gradientTransform="matrix(-1 0 0 1 -824.4648 0)">
			<stop  offset="0" style="stop-color:#80552E"/>
			<stop  offset="0.7396" style="stop-color:#A3693F"/>
			<stop  offset="1" style="stop-color:#B07145"/>
		</linearGradient>
		<path class="st56" d="M402.366,886.536c0,0,13.445-13.116,22.145-29.043c0,0,2.373-3.747,3.164-13.116c0,0-2.373-2.811-3.164,0
			c-0.791,2.811-1.582,10.306-3.164,12.179c-1.582,1.874-7.909,12.179-8.7,11.242c-0.791-0.937-4.745-7.495-4.745-10.306
			c0-2.811-1.582-3.747-1.582-1.874c0,1.874,0,6.558,1.582,11.242c1.582,4.684,1.582,3.748-0.791,6.558
			s-15.027,10.306-15.027,12.179C392.085,887.473,398.412,890.283,402.366,886.536z"/>
		
			<linearGradient id="SVGID_60_" gradientUnits="userSpaceOnUse" x1="-214.1394" y1="136.4333" x2="-214.1394" y2="-96.6173" gradientTransform="matrix(0.6735 0.2107 -0.1129 0.3608 536.0485 948.4702)">
			<stop  offset="0" style="stop-color:#80552E"/>
			<stop  offset="0.7396" style="stop-color:#A3693F"/>
			<stop  offset="1" style="stop-color:#B07145"/>
		</linearGradient>
		<path class="st57" d="M387.052,919.863c0,0-1.347-44.835,4.205-53.525c5.552-8.69,10.772-21.439,12.598-24.888
			c3.248-6.134,4.454-2.069,3.783,0.472c-0.671,2.542-7.526,22.944-9.237,26.34c-1.711,3.396-3.48,48.316-1.264,55.338
			C399.353,930.623,387.095,924.633,387.052,919.863z"/>
		
			<linearGradient id="SVGID_61_" gradientUnits="userSpaceOnUse" x1="-1279.4248" y1="861.2603" x2="-1279.4248" y2="846.35" gradientTransform="matrix(-1 0 0 1 -824.4648 0)">
			<stop  offset="0" style="stop-color:#80552E"/>
			<stop  offset="0.7396" style="stop-color:#A3693F"/>
			<stop  offset="1" style="stop-color:#B07145"/>
		</linearGradient>
		<path class="st58" d="M449.819,858.43c0,0,7.909,0,9.491-1.874c1.582-1.874,2.373-5.621,2.373-8.432c0-2.811,1.582-1.874,1.582,0
			c0,1.874,0,9.369-1.582,10.306c-1.582,0.937-4.745,2.851-11.863,2.831C442.701,861.24,449.819,858.43,449.819,858.43z"/>
	</g>
	<g>
		<linearGradient id="SVGID_62_" gradientUnits="userSpaceOnUse" x1="198.5354" y1="908.1503" x2="198.5354" y2="781.2333">
			<stop  offset="0" style="stop-color:#4FA484"/>
			<stop  offset="0.4905" style="stop-color:#49A187"/>
			<stop  offset="0.9877" style="stop-color:#9DCF5B"/>
		</linearGradient>
		<path class="st59" d="M190.565,863.081c0,0-22.027-5.399-24.727-13.498c-2.7-8.099-18.897-9.719-16.198-21.057
			s-7.559-18.897-3.779-28.616c3.779-9.719,14.578-21.597,22.137-44.274c7.559-22.677,16.198-21.597,18.897-8.099
			c2.7,13.498,10.798,16.198,14.038,18.897c3.24,2.7,33.475,9.719,34.555,23.757c1.08,14.038,4.859,19.437,8.099,21.057
			c3.24,1.62,11.878,15.118,7.019,21.057c-4.859,5.939-29.696,22.137-24.836,30.776C230.629,871.72,189.375,844.184,190.565,863.081
			z"/>
		
			<linearGradient id="SVGID_63_" gradientUnits="userSpaceOnUse" x1="-1466.0564" y1="416.8672" x2="-1466.0564" y2="366.4387" gradientTransform="matrix(-0.9258 -0.3781 -0.3781 0.9258 -1024.79 -71.3772)">
			<stop  offset="0" style="stop-color:#80552E"/>
			<stop  offset="0.7396" style="stop-color:#A3693F"/>
			<stop  offset="1" style="stop-color:#B07145"/>
		</linearGradient>
		<path class="st60" d="M192.998,857.704c0,0,4.541-30.363,2.209-37.088s-9.886-17.296-8.838-18.897s3.693,0.403,3.685,1.554
			c-0.008,1.151,8.001,13.196,9.027,14.076c1.026,0.881,0.925,14.692,0.468,17.507c-0.457,2.815,0.762,6.028,3.205,3.568
			C205.196,835.964,192.998,857.704,192.998,857.704z"/>
		
			<linearGradient id="SVGID_64_" gradientUnits="userSpaceOnUse" x1="-1153.8206" y1="-1.4225" x2="-1153.8206" y2="-116.9691" gradientTransform="matrix(-0.6423 -0.7665 -0.7665 0.6423 -630.593 38.0612)">
			<stop  offset="0" style="stop-color:#80552E"/>
			<stop  offset="0.7396" style="stop-color:#A3693F"/>
			<stop  offset="1" style="stop-color:#B07145"/>
		</linearGradient>
		<path class="st61" d="M158.112,913.383c0,0,42.618-63.353,44.744-77.261c2.126-13.908-1.325-39.357,1.984-41.189
			c3.309-1.831,6.084,4.112,5.008,6.116c-1.076,2.004,1.813,30.451,2.794,32.936c0.98,2.486-11.937,26.539-15.333,31.038
			c-3.396,4.499-38.049,61.17-31.508,59.123C172.341,922.1,158.112,913.383,158.112,913.383z"/>
	</g>
	
		<linearGradient id="SVGID_65_" gradientUnits="userSpaceOnUse" x1="166.8366" y1="1203.4357" x2="166.8366" y2="1298.0784" gradientTransform="matrix(-0.9972 -0.075 0.075 -0.9972 222.6812 2168.146)">
		<stop  offset="0" style="stop-color:#9DCF5B"/>
		<stop  offset="0.1921" style="stop-color:#94CA60"/>
		<stop  offset="0.5054" style="stop-color:#7CBD6C"/>
		<stop  offset="0.8987" style="stop-color:#54A781"/>
		<stop  offset="1" style="stop-color:#49A187"/>
	</linearGradient>
	<path class="st62" d="M250.337,908.128c0.969-2.415,0.64-5.131,0.295-7.711c-2.808,1.421-6.249-0.303-8.392-2.608
		c-2.143-2.305-3.647-5.219-6.137-7.143c-2.229-1.722-5.035-2.482-7.774-3.138c-7.879-1.886-15.888-3.228-23.951-4.014
		c-1.816-0.177-3.669-0.334-5.352-1.038c-2.318-0.97-4.089-2.875-6.068-4.423c-5.075-3.969-11.887-5.63-18.22-4.443
		c-4.189-9.373-15.874-12.999-26.127-12.472c-10.253,0.527-20.188,4.074-30.449,4.419c-6.133,0.206-12.375-0.729-18.352,0.66
		c-3.655,0.85-7.07,2.543-10.718,3.42c-3.21,0.772-6.534,0.897-9.814,1.271c-8.22,0.937-16.169,3.439-24.058,5.928
		c-1.936,0.611-4.353,2.233-3.451,4.051c0.558,1.124,2.031,1.319,3.199,1.776c5.562,2.175,4.729,10.818,9.118,14.868
		c5.297,4.888,15.922,1.171,19.625,7.355c1.147,1.915,1.219,4.341,2.431,6.216c1.685,2.606,5.049,3.457,7.551,5.294
		c4.285,3.146,5.651,8.796,7.592,13.745c2.831,7.22,7.47,13.724,13.374,18.753c2.961,2.522,6.421,4.745,10.296,5.07
		c3.876,0.325,8.166-1.783,9.249-5.519c7.472-0.473,14.788-3.183,20.766-7.691c3.208-2.419,6.176-5.616,6.799-9.585
		c0.178-1.131,0.187-2.37,0.892-3.272c1.745-2.233,5.169-0.308,7.833,0.658c5.882,2.133,12.103-1.599,17.372-4.974
		c5.269-3.375,11.979-6.61,17.471-3.613c2.151,1.173,3.812,3.202,6.121,4.02c1.74,0.616,3.66,0.468,5.468,0.094
		c4.981-1.031,9.594-3.763,12.891-7.635c1.042-1.224,2.034-2.616,3.531-3.201c1.853-0.724,3.915-0.009,5.898,0.167
		C242.493,913.705,249.065,911.298,250.337,908.128z"/>
	
		<linearGradient id="SVGID_66_" gradientUnits="userSpaceOnUse" x1="-917.8245" y1="1120.4011" x2="-917.8245" y2="987.8522" gradientTransform="matrix(0.9539 0.3 0.3 -0.9539 1044.2549 2176.4463)">
		<stop  offset="0" style="stop-color:#4FA484"/>
		<stop  offset="0.4905" style="stop-color:#49A187"/>
		<stop  offset="0.9877" style="stop-color:#9DCF5B"/>
	</linearGradient>
	<path class="st63" d="M524.096,897.266c0,0,54.899,75.357,42.324,93.614c-12.576,18.257-29.503,23.186-49.315,10.121
		c-19.812-13.065-42.421-38.969-62.37-29.865c-19.949,9.104-121.464,11.354-100.714-11.167c20.751-22.521-1.77-43.272,40.035-40.377
		s-1.995-26.256,33.591-25.318s16.174-18.834,37.365-15.588C486.203,881.932,504.509,867.186,524.096,897.266z"/>
	
		<linearGradient id="SVGID_67_" gradientUnits="userSpaceOnUse" x1="-1075.8182" y1="1511.8041" x2="-1075.8182" y2="1408.1912" gradientTransform="matrix(0.9539 0.3 0.3 -0.9539 1044.2549 2176.4463)">
		<stop  offset="0" style="stop-color:#4FA484"/>
		<stop  offset="0.4905" style="stop-color:#49A187"/>
		<stop  offset="0.9877" style="stop-color:#9DCF5B"/>
	</linearGradient>
	<path class="st64" d="M486.579,462.315c0,0,42.914,58.906,33.084,73.177c-9.83,14.272-23.062,18.124-38.549,7.912
		c-15.487-10.213-33.16-30.462-48.755-23.345c-15.594,7.117-94.948,8.875-78.727-8.729c16.221-17.605-1.384-33.825,31.295-31.563
		c32.679,2.263-1.559-20.525,26.258-19.791s12.643-14.723,29.208-12.185C456.958,450.329,471.268,438.801,486.579,462.315z"/>
</g>
</svg>
