<?xml version="1.0" encoding="utf-8"?>
<!-- Generator: Adobe Illustrator 24.2.3, SVG Export Plug-In . SVG Version: 6.00 Build 0)  -->
<svg version="1.1" id="Ebene_1" xmlns="http://www.w3.org/2000/svg" xmlns:xlink="http://www.w3.org/1999/xlink" x="0px" y="0px"
	 viewBox="0 0 960 960" style="enable-background:new 0 0 960 960;" xml:space="preserve">
<style type="text/css">
	.st0{fill:url(#SVGID_1_);}
	.st1{fill:url(#SVGID_2_);}
	.st2{fill:none;stroke:#53AFA8;stroke-width:5.6693;stroke-linecap:round;stroke-linejoin:round;stroke-miterlimit:10;}
	.st3{fill:url(#SVGID_3_);}
	.st4{fill:url(#SVGID_4_);}
	.st5{fill:url(#SVGID_5_);}
	.st6{fill:url(#SVGID_6_);}
	.st7{fill:url(#SVGID_7_);}
	.st8{fill:url(#SVGID_8_);}
	.st9{fill:url(#SVGID_9_);}
	.st10{fill:url(#SVGID_10_);}
	.st11{fill:url(#SVGID_11_);}
	.st12{fill:url(#SVGID_12_);}
	.st13{clip-path:url(#XMLID_11_);fill:url(#SVGID_13_);}
	.st14{fill:url(#SVGID_14_);}
	.st15{clip-path:url(#XMLID_13_);fill:url(#SVGID_15_);}
	.st16{fill:url(#SVGID_16_);}
	.st17{clip-path:url(#XMLID_15_);fill:url(#SVGID_17_);}
	.st18{fill:url(#SVGID_18_);}
	.st19{clip-path:url(#XMLID_17_);fill:url(#SVGID_19_);}
	.st20{fill:url(#SVGID_20_);}
	.st21{clip-path:url(#XMLID_19_);fill:url(#SVGID_21_);}
	.st22{clip-path:url(#XMLID_21_);fill:url(#SVGID_22_);}
	.st23{clip-path:url(#XMLID_23_);fill:url(#SVGID_23_);}
	.st24{fill:url(#SVGID_24_);}
	.st25{fill:url(#SVGID_25_);}
	.st26{clip-path:url(#XMLID_25_);fill:url(#SVGID_26_);}
	.st27{clip-path:url(#XMLID_27_);fill:url(#SVGID_27_);}
	.st28{clip-path:url(#XMLID_29_);fill:url(#SVGID_28_);}
	.st29{fill:url(#SVGID_29_);}
	.st30{fill:url(#SVGID_30_);}
	.st31{clip-path:url(#XMLID_31_);fill:url(#SVGID_31_);}
	.st32{clip-path:url(#XMLID_33_);fill:url(#SVGID_32_);}
	.st33{clip-path:url(#XMLID_35_);fill:url(#SVGID_33_);}
	.st34{fill:url(#SVGID_34_);}
	.st35{fill:url(#SVGID_35_);}
	.st36{clip-path:url(#XMLID_37_);fill:url(#SVGID_36_);}
	.st37{clip-path:url(#XMLID_39_);fill:url(#SVGID_37_);}
	.st38{clip-path:url(#XMLID_41_);fill:url(#SVGID_38_);}
	.st39{fill:url(#SVGID_39_);}
	.st40{fill:url(#SVGID_40_);}
	.st41{clip-path:url(#XMLID_43_);fill:url(#SVGID_41_);}
	.st42{clip-path:url(#XMLID_45_);fill:url(#SVGID_42_);}
	.st43{clip-path:url(#XMLID_47_);fill:url(#SVGID_43_);}
	.st44{fill:url(#SVGID_44_);}
	.st45{fill:url(#SVGID_45_);}
	.st46{clip-path:url(#XMLID_49_);fill:url(#SVGID_46_);}
	.st47{clip-path:url(#XMLID_93_);fill:url(#SVGID_47_);}
	.st48{clip-path:url(#XMLID_95_);fill:url(#SVGID_48_);}
	.st49{fill:url(#SVGID_49_);}
	.st50{fill:url(#SVGID_50_);}
	.st51{clip-path:url(#XMLID_97_);fill:url(#SVGID_51_);}
	.st52{clip-path:url(#XMLID_99_);fill:url(#SVGID_52_);}
	.st53{clip-path:url(#XMLID_101_);fill:url(#SVGID_53_);}
	.st54{fill:url(#SVGID_54_);}
	.st55{fill:url(#SVGID_55_);}
	.st56{clip-path:url(#XMLID_103_);fill:url(#SVGID_56_);}
	.st57{clip-path:url(#XMLID_105_);fill:url(#SVGID_57_);}
	.st58{clip-path:url(#XMLID_107_);fill:url(#SVGID_58_);}
	.st59{fill:url(#SVGID_59_);}
	.st60{fill:url(#SVGID_60_);}
	.st61{clip-path:url(#XMLID_109_);fill:url(#SVGID_61_);}
	.st62{clip-path:url(#XMLID_111_);fill:url(#SVGID_62_);}
	.st63{clip-path:url(#XMLID_113_);fill:url(#SVGID_63_);}
	.st64{fill:url(#SVGID_64_);}
	.st65{fill:url(#SVGID_65_);}
	.st66{clip-path:url(#XMLID_115_);fill:url(#SVGID_66_);}
	.st67{clip-path:url(#XMLID_117_);fill:url(#SVGID_67_);}
	.st68{clip-path:url(#XMLID_119_);fill:url(#SVGID_68_);}
	.st69{fill:url(#SVGID_69_);}
	.st70{fill:url(#SVGID_70_);}
	.st71{clip-path:url(#XMLID_121_);fill:url(#SVGID_71_);}
	.st72{clip-path:url(#XMLID_123_);fill:url(#SVGID_72_);}
	.st73{clip-path:url(#XMLID_125_);fill:url(#SVGID_73_);}
	.st74{fill:url(#SVGID_74_);}
	.st75{fill:url(#SVGID_75_);}
	.st76{clip-path:url(#XMLID_127_);fill:url(#SVGID_76_);}
	.st77{clip-path:url(#XMLID_129_);fill:url(#SVGID_77_);}
	.st78{clip-path:url(#XMLID_131_);fill:url(#SVGID_78_);}
	.st79{fill:url(#SVGID_79_);}
	.st80{fill:url(#SVGID_80_);}
	.st81{clip-path:url(#XMLID_133_);fill:url(#SVGID_81_);}
	.st82{clip-path:url(#XMLID_135_);fill:url(#SVGID_82_);}
	.st83{clip-path:url(#XMLID_137_);fill:url(#SVGID_83_);}
	.st84{fill:url(#SVGID_84_);}
	.st85{fill:url(#SVGID_85_);}
	.st86{clip-path:url(#XMLID_139_);fill:url(#SVGID_86_);}
	.st87{clip-path:url(#XMLID_141_);fill:url(#SVGID_87_);}
	.st88{clip-path:url(#XMLID_143_);fill:url(#SVGID_88_);}
	.st89{fill:url(#SVGID_89_);}
	.st90{fill:url(#SVGID_90_);}
	.st91{clip-path:url(#XMLID_145_);fill:url(#SVGID_91_);}
	.st92{clip-path:url(#XMLID_147_);fill:url(#SVGID_92_);}
	.st93{clip-path:url(#XMLID_149_);fill:url(#SVGID_93_);}
	.st94{fill:url(#SVGID_94_);}
	.st95{fill:url(#SVGID_95_);}
	.st96{clip-path:url(#XMLID_151_);fill:url(#SVGID_96_);}
	.st97{fill:url(#SVGID_97_);}
	.st98{fill:#FFE500;}
	.st99{fill:url(#SVGID_98_);}
	.st100{fill:#77CB57;}
	.st101{fill:#A9CA54;}
	.st102{fill:#53AFA8;}
	.st103{fill:#B07145;}
	.st104{fill:#80552E;}
	.st105{fill:url(#SVGID_99_);}
	.st106{fill:url(#SVGID_100_);}
	.st107{fill:url(#SVGID_101_);}
	.st108{fill:url(#SVGID_102_);}
	.st109{fill:url(#SVGID_103_);}
	.st110{fill:url(#SVGID_104_);}
	.st111{fill:url(#SVGID_105_);}
	.st112{fill:url(#SVGID_106_);}
	.st113{fill:url(#SVGID_107_);}
	.st114{fill:url(#SVGID_108_);}
	.st115{fill:url(#SVGID_109_);}
	.st116{clip-path:url(#SVGID_111_);fill:url(#SVGID_112_);}
	.st117{clip-path:url(#SVGID_111_);fill:url(#SVGID_113_);}
	.st118{clip-path:url(#SVGID_115_);fill:url(#SVGID_116_);}
	.st119{clip-path:url(#SVGID_115_);fill:url(#SVGID_117_);}
	.st120{clip-path:url(#SVGID_119_);fill:url(#SVGID_120_);}
	.st121{clip-path:url(#SVGID_119_);fill:url(#SVGID_121_);}
	.st122{fill:url(#SVGID_122_);}
	.st123{fill:url(#SVGID_123_);}
	.st124{fill:url(#SVGID_124_);}
	.st125{fill:url(#SVGID_125_);}
	.st126{clip-path:url(#SVGID_127_);fill:url(#SVGID_128_);}
	.st127{clip-path:url(#SVGID_127_);fill:url(#SVGID_129_);}
	.st128{clip-path:url(#SVGID_131_);fill:url(#SVGID_132_);}
	.st129{clip-path:url(#SVGID_131_);fill:url(#SVGID_133_);}
	.st130{clip-path:url(#SVGID_135_);fill:url(#SVGID_136_);}
	.st131{clip-path:url(#SVGID_135_);fill:url(#SVGID_137_);}
	.st132{fill:url(#SVGID_138_);}
	.st133{clip-path:url(#SVGID_140_);fill:url(#SVGID_141_);}
	.st134{clip-path:url(#SVGID_140_);fill:url(#SVGID_142_);}
	.st135{fill:url(#SVGID_143_);}
	.st136{fill:url(#SVGID_144_);}
	.st137{fill:url(#SVGID_145_);}
	.st138{fill:url(#SVGID_146_);}
	.st139{fill:url(#SVGID_147_);}
	.st140{clip-path:url(#SVGID_149_);fill:url(#SVGID_150_);}
	.st141{clip-path:url(#SVGID_149_);fill:url(#SVGID_151_);}
	.st142{clip-path:url(#SVGID_153_);fill:url(#SVGID_154_);}
	.st143{clip-path:url(#SVGID_153_);fill:url(#SVGID_155_);}
	.st144{clip-path:url(#SVGID_157_);fill:url(#SVGID_158_);}
	.st145{clip-path:url(#SVGID_157_);fill:url(#SVGID_159_);}
	.st146{fill:url(#SVGID_160_);}
	.st147{fill:url(#SVGID_161_);}
	.st148{fill:url(#SVGID_162_);}
	.st149{fill:url(#SVGID_163_);}
	.st150{fill:url(#SVGID_164_);}
	.st151{fill:url(#SVGID_165_);}
	.st152{clip-path:url(#SVGID_167_);fill:url(#SVGID_168_);}
	.st153{clip-path:url(#SVGID_167_);fill:url(#SVGID_169_);}
	.st154{clip-path:url(#SVGID_171_);fill:url(#SVGID_172_);}
	.st155{clip-path:url(#SVGID_171_);fill:url(#SVGID_173_);}
	.st156{clip-path:url(#SVGID_175_);fill:url(#SVGID_176_);}
	.st157{clip-path:url(#SVGID_175_);fill:url(#SVGID_177_);}
	.st158{clip-path:url(#SVGID_179_);fill:url(#SVGID_180_);}
	.st159{clip-path:url(#SVGID_179_);fill:url(#SVGID_181_);}
	.st160{fill:url(#SVGID_182_);}
	.st161{fill:url(#SVGID_183_);}
	.st162{fill:url(#SVGID_184_);}
</style>
<linearGradient id="SVGID_1_" gradientUnits="userSpaceOnUse" x1="210.3035" y1="527.7234" x2="210.3035" y2="481.2639">
	<stop  offset="0" style="stop-color:#80552E"/>
	<stop  offset="0.7396" style="stop-color:#A3693F"/>
	<stop  offset="1" style="stop-color:#B07145"/>
</linearGradient>
<path class="st0" d="M233.359,511.858c0,0-1.687-11.811-5.906-15.186c-4.218-3.375-19.404-5.906-21.935-7.593
	c-2.531-1.687-5.062-11.811-6.749-12.655c-1.687-0.844-12.655-1.687-14.342-3.375c-1.687-1.687-1.687-5.062-0.844-5.062
	s0.844,1.687,1.687,2.531c0.844,0.844,6.749,1.687,6.749,1.687s2.531-1.687,2.531-2.531c0-0.844,0.844,0.844,0.844,1.687
	c0,0.844-1.31,1.472-1.31,1.472s5.529,0.215,7.216,1.059c1.687,0.844,5.062,12.655,6.749,12.655c1.687,0,5.062-10.124,4.218-11.811
	c-0.844-1.687-5.906-10.124-4.218-9.28c1.687,0.844,5.906,7.593,5.906,9.28c0,1.687-0.844,10.124-1.687,11.811
	c-0.844,1.687,10.124,3.375,10.967,3.375c0.844,0,9.149,3.122,10.967-5.062c1.687-7.593,3.375,8.436,3.375,8.436L233.359,511.858z"
	/>
<linearGradient id="SVGID_2_" gradientUnits="userSpaceOnUse" x1="268.6924" y1="556.0245" x2="265.0823" y2="479.4823" gradientTransform="matrix(0.9993 0.0366 -0.0366 0.9993 17.5354 -12.4828)">
	<stop  offset="0" style="stop-color:#80552E"/>
	<stop  offset="0.7396" style="stop-color:#A3693F"/>
	<stop  offset="1" style="stop-color:#B07145"/>
</linearGradient>
<path class="st1" d="M238.214,518.331c0,0-0.801-14.811,3.422-20.031c4.223-5.22,40.048-29.438,44.271-34.659
	c4.223-5.22,3.127-11.979,3.127-11.979s2.832-3.927,2.684,0.098c-0.148,4.026,0.948,10.785-1.834,13.37
	c-2.782,2.586-42.88,33.366-44.369,37.342c-1.49,3.977-3.288,16.022-2.856,22.748C243.09,531.947,238.214,518.331,238.214,518.331z"
	/>
<path class="st2" d="M179.914,451.516c0,0,15.595,81.781,50.59,63.523c0,0,9.319,59.909,29.859,39.749"/>
<linearGradient id="SVGID_3_" gradientUnits="userSpaceOnUse" x1="264.9152" y1="637.0482" x2="264.9152" y2="553.2165">
	<stop  offset="0" style="stop-color:#80552E"/>
	<stop  offset="0.7396" style="stop-color:#A3693F"/>
	<stop  offset="1" style="stop-color:#B07145"/>
</linearGradient>
<path class="st3" d="M242.485,608.421c0,0,11.411-47.166,19.779-56.676c8.368-9.509,27.926-21.843,27.276-25.186
	c-0.65-3.342-6.355-1.821-7.116,0.081c-0.761,1.902-22.062,16.356-24.344,17.117c-2.282,0.761-11.411,23.583-12.552,28.528
	s-2.109,8.732-4.478,3.035C238.682,569.622,242.485,608.421,242.485,608.421z"/>
<linearGradient id="SVGID_4_" gradientUnits="userSpaceOnUse" x1="247.5081" y1="899.9893" x2="247.5081" y2="557.3522">
	<stop  offset="0" style="stop-color:#80552E"/>
	<stop  offset="0.7396" style="stop-color:#A3693F"/>
	<stop  offset="1" style="stop-color:#B07145"/>
</linearGradient>
<path class="st4" d="M245.909,767.798c0,0-30.81-163.181-23.203-202.74c7.607-39.559,11.935-93.604,14.074-108.787
	c3.804-27.007,9.129-13.693,9.129-3.423s-3.423,94.713-5.325,109.548c-1.902,14.835,21.681,182.58,31.191,205.402
	C281.284,790.62,248.952,785.295,245.909,767.798z"/>
<linearGradient id="SVGID_5_" gradientUnits="userSpaceOnUse" x1="35.274" y1="636.4999" x2="130.5643" y2="636.4999">
	<stop  offset="0" style="stop-color:#80552E"/>
	<stop  offset="0.7396" style="stop-color:#A3693F"/>
	<stop  offset="1" style="stop-color:#B07145"/>
</linearGradient>
<path class="st5" d="M53.875,619.616c3.07-0.022,6.175-0.149,9.179,0.487c2.98,0.631,5.748,1.99,8.472,3.352
	c15.07,7.535,29.896,15.557,44.449,24.047c5.566,3.247,11.447,6.964,13.872,12.935c0.627-3.529,0.844-7.131,0.648-10.71
	c-3.315-0.54-6.035-2.815-8.693-4.868c-11.922-9.21-25.859-15.444-39.961-20.747c-1.782-0.67-3.574-1.329-5.271-2.193
	c-1.571-0.8-3.048-1.77-4.6-2.606c-5.37-2.891-11.461-4.09-17.447-5.252c-3.036-0.59-17.884-3.631-19.2,1.146
	C34.254,619.082,51.375,619.633,53.875,619.616z"/>
<linearGradient id="SVGID_6_" gradientUnits="userSpaceOnUse" x1="107.3788" y1="709.1073" x2="107.3788" y2="662.6476">
	<stop  offset="0" style="stop-color:#80552E"/>
	<stop  offset="0.7396" style="stop-color:#A3693F"/>
	<stop  offset="1" style="stop-color:#B07145"/>
</linearGradient>
<path class="st6" d="M130.434,693.242c0,0-1.687-11.811-5.906-15.186c-4.218-3.375-19.404-5.906-21.935-7.593
	s-5.062-11.811-6.749-12.655c-1.687-0.844-12.655-1.687-14.342-3.375c-1.687-1.687-1.687-5.062-0.844-5.062
	c0.844,0,0.844,1.687,1.687,2.531c0.844,0.844,6.749,1.687,6.749,1.687s2.531-1.687,2.531-2.531c0-0.844,0.844,0.844,0.844,1.687
	s-1.31,1.472-1.31,1.472s5.529,0.215,7.216,1.059c1.687,0.844,5.062,12.655,6.749,12.655s5.062-10.124,4.218-11.811
	c-0.844-1.687-5.906-10.124-4.218-9.28s5.906,7.593,5.906,9.28s-0.844,10.124-1.687,11.811c-0.844,1.687,10.124,3.375,10.967,3.375
	c0.844,0,9.985,3.94,8.789-4.357c-1.196-8.298,5.553,7.732,5.553,7.732L130.434,693.242z"/>
<linearGradient id="SVGID_7_" gradientUnits="userSpaceOnUse" x1="167.6486" y1="734.324" x2="164.0384" y2="657.7819">
	<stop  offset="0" style="stop-color:#80552E"/>
	<stop  offset="0.7396" style="stop-color:#A3693F"/>
	<stop  offset="1" style="stop-color:#B07145"/>
</linearGradient>
<path class="st7" d="M138.933,700.672c0,0-1.343-14.771,2.686-20.143c4.029-5.371,38.943-30.886,42.971-36.257
	c4.029-5.371,2.686-12.086,2.686-12.086s2.686-4.029,2.686,0s1.343,10.743-1.343,13.429c-2.686,2.686-41.628,34.914-42.971,38.943
	c-1.343,4.029-2.698,16.132-2.021,22.837C144.304,714.101,138.933,700.672,138.933,700.672z"/>
<linearGradient id="SVGID_8_" gradientUnits="userSpaceOnUse" x1="-2190.2017" y1="1083.8665" x2="-2190.2017" y2="833.0541" gradientTransform="matrix(-0.9989 0.0471 0.0471 0.9989 -2102.2974 -59.2429)">
	<stop  offset="0" style="stop-color:#80552E"/>
	<stop  offset="0.7396" style="stop-color:#A3693F"/>
	<stop  offset="1" style="stop-color:#B07145"/>
</linearGradient>
<path class="st8" d="M133.148,823.519c0,0,16.901-120.379,9.974-149.042c-6.927-28.663-11.955-68.031-14.042-79.059
	c-3.713-19.616-7.147-9.698-6.793-2.188c0.354,7.509,5.77,69.136,7.672,79.917c1.902,10.781-9.557,134.249-15.723,151.264
	C108.069,841.427,131.526,836.418,133.148,823.519z"/>
<linearGradient id="SVGID_9_" gradientUnits="userSpaceOnUse" x1="139.0318" y1="610.339" x2="139.0318" y2="507.4485">
	<stop  offset="0" style="stop-color:#9DCF5B"/>
	<stop  offset="0.1921" style="stop-color:#94CA60"/>
	<stop  offset="0.5054" style="stop-color:#7CBD6C"/>
	<stop  offset="0.8987" style="stop-color:#54A781"/>
	<stop  offset="1" style="stop-color:#49A187"/>
</linearGradient>
<path class="st9" d="M30.364,567.361c-0.854,2.698-0.275,5.615,0.309,8.383c2.928-1.77,6.799-0.181,9.31,2.143
	s4.379,5.361,7.236,7.243c2.557,1.685,5.66,2.281,8.683,2.768c8.695,1.402,17.487,2.205,26.292,2.399
	c1.983,0.044,4.004,0.063,5.887,0.689c2.592,0.862,4.667,2.783,6.939,4.3c5.826,3.889,13.346,5.135,20.114,3.332
	c5.305,9.82,18.268,12.799,29.34,11.392c11.072-1.407,21.554-6.062,32.649-7.273c6.632-0.723,13.475-0.218,19.841-2.211
	c3.893-1.219,7.457-3.333,11.341-4.581c3.417-1.098,7.01-1.505,10.536-2.178c8.834-1.686,17.248-5.046,25.598-8.387
	c2.049-0.82,4.538-2.775,3.411-4.673c-0.696-1.173-2.309-1.264-3.613-1.664c-6.207-1.904-6.008-11.342-11.096-15.375
	c-6.141-4.868-17.356,0.028-21.874-6.374c-1.399-1.983-1.675-4.607-3.142-6.54c-2.039-2.688-5.755-3.336-8.617-5.124
	c-4.902-3.062-6.843-9.075-9.351-14.283c-3.658-7.597-9.216-14.269-16.027-19.24c-3.416-2.493-7.347-4.621-11.575-4.657
	c-4.228-0.036-8.708,2.598-9.577,6.736c-8.062,1.122-15.772,4.656-21.885,10.031c-3.28,2.884-6.237,6.591-6.59,10.945
	c-0.1,1.241-0.01,2.584-0.7,3.62c-1.71,2.563-5.578,0.755-8.545-0.075c-6.55-1.833-12.991,2.72-18.427,6.808
	c-5.437,4.088-12.448,8.142-18.646,5.341c-2.427-1.097-4.393-3.161-6.963-3.859c-1.937-0.526-4.006-0.209-5.935,0.344
	c-5.316,1.523-10.094,4.861-13.353,9.328c-1.03,1.411-1.992,3.002-3.567,3.758c-1.95,0.936-4.244,0.329-6.407,0.299
	C38.413,560.676,31.485,563.821,30.364,567.361z"/>
<g>
	<defs>
		<path id="SVGID_139_" d="M-1212.369,751.998c0,0,81.692-84.558,143.318-63.06s187.747,51.595,245.075,30.097
			c57.327-21.498,103.189-31.53,151.918,32.963c0,0,42.996-63.06,68.793-32.963c0,0,48.728-60.194,78.825-32.963
			c0,0,27.231,65.927,91.724,54.461c64.493-11.465,131.853,60.194,114.655,88.858c0,0,35.83-24.364,55.894,20.065
			s55.894,40.129,75.959,20.065c20.065-20.065,67.36,10.032,63.06,28.664c-4.3,18.631,96.023,47.295,120.388,113.222
			S-1231,1030.036-1231,1030.036L-1212.369,751.998z"/>
	</defs>
	<clipPath id="SVGID_10_">
		<use xlink:href="#SVGID_139_"  style="overflow:visible;"/>
	</clipPath>
	<linearGradient id="SVGID_11_" gradientUnits="userSpaceOnUse" x1="-658.8442" y1="1454.0757" x2="-658.8442" y2="393.8405">
		<stop  offset="0" style="stop-color:#9DCF5B"/>
		<stop  offset="0.1921" style="stop-color:#94CA60"/>
		<stop  offset="0.5054" style="stop-color:#7CBD6C"/>
		<stop  offset="0.8987" style="stop-color:#54A781"/>
		<stop  offset="1" style="stop-color:#49A187"/>
	</linearGradient>
	<path style="clip-path:url(#SVGID_10_);fill:url(#SVGID_11_);" d="M-9.207,611.674c0,0-104.63,1.027-235.698,15.57
		c-112.586,12.492-89.045,110.039-191.086,150.39c-115.294,45.593-347.856,38.938-314.932,141.619
		c95.987,299.355,351.225,14.803,567.195,95.399S54,1092,54,1092l-693.723-11.514l-726.446-57.568c0,0-10.85-128.337-2.124-136.561
		c8.726-8.224,146.293-357.339,146.293-357.339L-164.185,31.783L-9.207,611.674z"/>
</g>
<linearGradient id="SVGID_12_" gradientUnits="userSpaceOnUse" x1="197.183" y1="721.3824" x2="196.2859" y2="702.3639" gradientTransform="matrix(0.5043 0.8635 -0.8635 0.5043 691.9194 114.8497)">
	<stop  offset="0" style="stop-color:#80552E"/>
	<stop  offset="0.7396" style="stop-color:#A3693F"/>
	<stop  offset="1" style="stop-color:#B07145"/>
</linearGradient>
<path class="st12" d="M177.612,651.131c0,0,2.461-2.628,2.598-4.926s0.269-13.468,1.05-14.664s5.192-3.772,4.411-2.576
	c-0.781,1.195-3.309,1.932-3.216,3.357c0.093,1.425-0.04,12.595-0.269,13.468c-0.229,0.873-1.147,4.367-1.147,4.367L177.612,651.131
	z"/>
<linearGradient id="SVGID_13_" gradientUnits="userSpaceOnUse" x1="-2347.5928" y1="877.483" x2="-2347.5928" y2="853.9865" gradientTransform="matrix(0.9989 -0.0471 -0.0471 -0.9989 2568.1533 1375.9574)">
	<stop  offset="0" style="stop-color:#4FA484"/>
	<stop  offset="0.4905" style="stop-color:#49A187"/>
	<stop  offset="0.9877" style="stop-color:#9DCF5B"/>
</linearGradient>
<path style="fill:url(#SVGID_13_);" d="M189.005,619.682c0,0,13.739,9.187,12.761,12.993c-0.977,3.806-3.493,5.661-7.588,4.697
	c-4.095-0.964-9.44-3.894-12.203-1.16c-2.764,2.734-19.519,9.309-17.442,4.294c2.077-5.015-2.938-7.093,4.196-9.165
	c7.134-2.072-1.936-4.247,4.043-6.265s1.541-4.122,5.266-4.876C181.762,619.445,183.908,615.873,189.005,619.682z"/>
<g>
	<linearGradient id="SVGID_14_" gradientUnits="userSpaceOnUse" x1="355.5763" y1="691.194" x2="355.5763" y2="526.1202">
		<stop  offset="0" style="stop-color:#4FA484"/>
		<stop  offset="0.4905" style="stop-color:#49A187"/>
		<stop  offset="0.9877" style="stop-color:#9DCF5B"/>
	</linearGradient>
	<path class="st14" d="M345.209,632.575c0,0-28.649-7.022-32.161-17.556c-3.511-10.534-24.579-12.64-21.067-27.388
		c3.511-14.747-9.831-24.579-4.916-37.219c4.916-12.64,18.961-28.09,28.792-57.584c9.831-29.494,21.067-28.09,24.579-10.534
		s14.045,21.067,18.258,24.579c4.214,3.511,43.539,12.64,44.944,30.899s6.32,25.281,10.534,27.388
		c4.214,2.107,15.449,19.663,9.129,27.388c-6.32,7.725-38.624,28.792-32.303,40.028S343.662,607.997,345.209,632.575z"/>
	
		<linearGradient id="SVGID_15_" gradientUnits="userSpaceOnUse" x1="-1519.5476" y1="161.9524" x2="-1519.5476" y2="96.3629" gradientTransform="matrix(-0.9258 -0.3781 -0.3781 0.9258 -1024.79 -71.3772)">
		<stop  offset="0" style="stop-color:#80552E"/>
		<stop  offset="0.7396" style="stop-color:#A3693F"/>
		<stop  offset="1" style="stop-color:#B07145"/>
	</linearGradient>
	<path style="fill:url(#SVGID_15_);" d="M344.374,638.581c0,0,5.907-39.491,2.873-48.238c-3.034-8.746-12.858-22.496-11.495-24.578
		c1.363-2.082,4.803,0.524,4.792,2.021c-0.011,1.497,10.407,17.163,11.741,18.308c1.334,1.145,1.204,19.109,0.609,22.77
		c-0.594,3.661,0.991,7.841,4.169,4.64S344.374,638.581,344.374,638.581z"/>
	
		<linearGradient id="SVGID_16_" gradientUnits="userSpaceOnUse" x1="-1069.3645" y1="-266.2302" x2="-1069.3645" y2="-387.3385" gradientTransform="matrix(-0.6423 -0.7665 -0.7665 0.6423 -630.593 38.0612)">
		<stop  offset="0" style="stop-color:#80552E"/>
		<stop  offset="0.7396" style="stop-color:#A3693F"/>
		<stop  offset="1" style="stop-color:#B07145"/>
	</linearGradient>
	<path class="st16" d="M312.791,685c0,0,41.64-56.399,44.405-74.489c2.765-18.089-1.724-51.19,2.58-53.572
		c4.304-2.382,7.913,5.348,6.513,7.955c-1.4,2.607,2.359,39.605,3.634,42.838c1.275,3.233-15.526,34.517-19.943,40.369
		s-7.713,10.437,0.794,7.774C359.282,653.213,312.791,685,312.791,685z"/>
</g>
<g>
	<defs>
		<path id="SVGID_148_" d="M143.588,386.282c-0.746,3.163-32.332,28.908,0,48.308s17.497,34.994,35.375,41.841
			s45.265,7.227,49.829-9.129s17.878-8.368,20.921-2.663c3.043,5.706-0.38,17.878,29.289,16.736
			c29.669-1.141,62.381-18.258,62.381-56.295c0,0,34.614-7.227,30.05-34.994c-4.564-27.767-26.246-44.123-44.123-41.841
			c0,0-16.356-50.209-76.836-41.08s-62.001,55.154-62.001,55.154S153.097,345.962,143.588,386.282z"/>
	</defs>
	<clipPath id="SVGID_17_">
		<use xlink:href="#SVGID_148_"  style="overflow:visible;"/>
	</clipPath>
	<linearGradient id="SVGID_18_" gradientUnits="userSpaceOnUse" x1="250.4491" y1="541.3462" x2="250.4491" y2="365.9502">
		<stop  offset="0" style="stop-color:#9DCF5B"/>
		<stop  offset="0.1921" style="stop-color:#94CA60"/>
		<stop  offset="0.5054" style="stop-color:#7CBD6C"/>
		<stop  offset="0.8987" style="stop-color:#54A781"/>
		<stop  offset="1" style="stop-color:#49A187"/>
	</linearGradient>
	<path style="clip-path:url(#SVGID_17_);fill:url(#SVGID_18_);" d="M143.588,386.282c-0.746,3.163-32.332,28.908,0,48.308
		s17.497,34.994,35.375,41.841s45.265,7.227,49.829-9.129s17.878-8.368,20.921-2.663c3.043,5.706-0.38,17.878,29.289,16.736
		c29.669-1.141,62.381-18.258,62.381-56.295c0,0,34.614-7.227,30.05-34.994c-4.564-27.767-26.246-44.123-44.123-41.841
		c0,0-16.356-50.209-76.836-41.08s-62.001,55.154-62.001,55.154S153.097,345.962,143.588,386.282z"/>
	<linearGradient id="SVGID_19_" gradientUnits="userSpaceOnUse" x1="231.9918" y1="568.9225" x2="231.9918" y2="359.3362">
		<stop  offset="0" style="stop-color:#49A187"/>
		<stop  offset="0.1157" style="stop-color:#5BAB7E"/>
		<stop  offset="0.3413" style="stop-color:#78BB6F"/>
		<stop  offset="0.5658" style="stop-color:#8CC664"/>
		<stop  offset="0.7868" style="stop-color:#99CD5D"/>
		<stop  offset="1" style="stop-color:#9DCF5B"/>
	</linearGradient>
	<path style="clip-path:url(#SVGID_17_);fill:url(#SVGID_19_);" d="M333.395,322.759c0,0-146.064,1.902-129.327,71.13
		s61.24,3.423,98.897,22.062c37.657,18.638,64.664,81.4,64.664,81.4l-120.959-2.663l-126.665-13.313
		c0,0-25.105-93.192-23.583-95.094c1.521-1.902,56.295-80.259,56.295-80.259l168.886-18.258L333.395,322.759z"/>
</g>
<g>
	<defs>
		<path id="SVGID_152_" d="M264.547,517.961c0.667-1.001,10.27-19.399,24.344-14.835c0,0,25.105-14.074,25.865,4.945
			c0.761,19.019,12.933,8.368,15.215,19.019c2.282,10.651-11.792,26.626-28.528,15.595c-16.736-11.031-28.528-11.792-32.332-6.086
			C265.308,542.305,258.461,527.09,264.547,517.961z"/>
	</defs>
	<clipPath id="SVGID_20_">
		<use xlink:href="#SVGID_152_"  style="overflow:visible;"/>
	</clipPath>
	<linearGradient id="SVGID_21_" gradientUnits="userSpaceOnUse" x1="296.1702" y1="481.6221" x2="296.1702" y2="529.916">
		<stop  offset="0" style="stop-color:#9DCF5B"/>
		<stop  offset="0.1921" style="stop-color:#94CA60"/>
		<stop  offset="0.5054" style="stop-color:#7CBD6C"/>
		<stop  offset="0.8987" style="stop-color:#54A781"/>
		<stop  offset="1" style="stop-color:#49A187"/>
	</linearGradient>
	<path style="clip-path:url(#SVGID_20_);fill:url(#SVGID_21_);" d="M264.547,517.961c0.667-1.001,10.27-19.399,24.344-14.835
		c0,0,25.105-14.074,25.865,4.945c0.761,19.019,12.933,8.368,15.215,19.019c2.282,10.651-11.792,26.626-28.528,15.595
		c-16.736-11.031-28.528-11.792-32.332-6.086C265.308,542.305,258.461,527.09,264.547,517.961z"/>
	<linearGradient id="SVGID_22_" gradientUnits="userSpaceOnUse" x1="276.317" y1="580.5709" x2="276.317" y2="493.6351">
		<stop  offset="0" style="stop-color:#9DCF5B"/>
		<stop  offset="0.1921" style="stop-color:#94CA60"/>
		<stop  offset="0.5054" style="stop-color:#7CBD6C"/>
		<stop  offset="0.8987" style="stop-color:#54A781"/>
		<stop  offset="1" style="stop-color:#49A187"/>
	</linearGradient>
	<path style="clip-path:url(#SVGID_20_);fill:url(#SVGID_22_);" d="M324.266,509.212c0,0-18.258,22.062-35.375,23.583
		c-17.117,1.521-22.483,18.088-22.483,18.088s-38.377-17.327-39.518-18.849s20.54-68.087,22.442-68.087
		c1.902,0,76.455,29.289,76.455,30.81C325.787,496.279,324.266,509.212,324.266,509.212z"/>
</g>
<g>
	<defs>
		<path id="SVGID_156_" d="M145.621,666.643c0.299-0.449,4.606-8.701,10.919-6.654c0,0,11.26-6.312,11.601,2.218
			c0.341,8.53,5.8,3.753,6.824,8.53s-5.289,11.942-12.795,6.995c-7.506-4.947-12.795-5.289-14.501-2.73
			C145.962,677.562,142.891,670.738,145.621,666.643z"/>
	</defs>
	<clipPath id="SVGID_23_">
		<use xlink:href="#SVGID_156_"  style="overflow:visible;"/>
	</clipPath>
	<linearGradient id="SVGID_24_" gradientUnits="userSpaceOnUse" x1="159.8041" y1="686.7986" x2="159.8041" y2="665.1383">
		<stop  offset="0.0045" style="stop-color:#53AFA8"/>
		<stop  offset="1" style="stop-color:#A9CA54"/>
	</linearGradient>
	<path style="clip-path:url(#SVGID_23_);fill:url(#SVGID_24_);" d="M145.621,666.643c0.299-0.449,4.606-8.701,10.919-6.654
		c0,0,11.26-6.312,11.601,2.218c0.341,8.53,5.8,3.753,6.824,8.53s-5.289,11.942-12.795,6.995c-7.506-4.947-12.795-5.289-14.501-2.73
		C145.962,677.562,142.891,670.738,145.621,666.643z"/>
	<linearGradient id="SVGID_25_" gradientUnits="userSpaceOnUse" x1="150.8997" y1="694.7244" x2="150.8997" y2="655.7328">
		<stop  offset="0" style="stop-color:#4FA484"/>
		<stop  offset="0.4905" style="stop-color:#49A187"/>
		<stop  offset="0.9877" style="stop-color:#9DCF5B"/>
	</linearGradient>
	<path style="clip-path:url(#SVGID_23_);fill:url(#SVGID_25_);" d="M172.405,662.719c0,0-8.189,9.895-15.866,10.577
		c-7.677,0.682-10.084,8.113-10.084,8.113s-17.213-7.771-17.724-8.454c-0.512-0.682,9.213-30.538,10.066-30.538
		s34.291,13.136,34.291,13.819S172.405,662.719,172.405,662.719z"/>
</g>
<g>
	<linearGradient id="SVGID_26_" gradientUnits="userSpaceOnUse" x1="589.1343" y1="627.6669" x2="589.1343" y2="567.7031">
		<stop  offset="0" style="stop-color:#80552E"/>
		<stop  offset="0.7396" style="stop-color:#A3693F"/>
		<stop  offset="1" style="stop-color:#B07145"/>
	</linearGradient>
	<path style="fill:url(#SVGID_26_);" d="M578.719,607.19c0,0,7.163-29.606,12.416-35.576s10.187-21.054,9.779-23.152
		c-0.408-2.098-3.989-1.143-4.467,0.051c-0.478,1.194-6.506,17.609-7.938,18.087c-1.433,0.478-7.163,14.803-7.879,17.907
		c-0.716,3.104-1.323,5.481-2.811,1.905C576.332,582.836,578.719,607.19,578.719,607.19z"/>
	
		<linearGradient id="SVGID_27_" gradientUnits="userSpaceOnUse" x1="-257.4095" y1="1502.554" x2="-257.4095" y2="1421.0874" gradientTransform="matrix(0.0776 -0.997 0.997 0.0776 -874.9835 213.1647)">
		<stop  offset="0" style="stop-color:#80552E"/>
		<stop  offset="0.7396" style="stop-color:#A3693F"/>
		<stop  offset="1" style="stop-color:#B07145"/>
	</linearGradient>
	<path style="fill:url(#SVGID_27_);" d="M574.192,598.754c0,0-21.929-12.209-32.639-23.223
		c-10.711-11.014-39.029-22.781-43.132-22.31c-4.103,0.471-2.8,7.513-0.572,8.612s32.946,15.173,33.651,18.005
		c0.705,2.831,16.539,9.636,23.288,26.509c2.286,5.715,20.386-5.273,13.274-2.945S574.192,598.754,574.192,598.754z"/>
	<path class="st2" d="M480.085,601.998c0,0,7.601,25.118,19.445,10.962c0,0,9.69,41.354,29.286,6.575
		c0,0,13.273,34.108,45.809,53.624"/>
	<g>
		
			<linearGradient id="SVGID_28_" gradientUnits="userSpaceOnUse" x1="430.2019" y1="239.3387" x2="430.2019" y2="193.9374" gradientTransform="matrix(0.8844 0.4667 -0.4667 0.8844 337.0604 231.8586)">
			<stop  offset="0" style="stop-color:#80552E"/>
			<stop  offset="0.7396" style="stop-color:#A3693F"/>
			<stop  offset="1" style="stop-color:#B07145"/>
		</linearGradient>
		<path style="fill:url(#SVGID_28_);" d="M603.01,625.306c0,0,18.327-20.691,24.316-22.969s17.652-3.179,18.15-4.828
			s-2.414-2.315-3.203-1.644c-0.789,0.671-13.733,2.109-14.933,1.91c-1.201-0.198-10.674,7.857-12.352,9.8
			c-1.678,1.943-4.601,2.96-4.315-0.149C610.958,604.317,603.01,625.306,603.01,625.306z"/>
		<linearGradient id="SVGID_29_" gradientUnits="userSpaceOnUse" x1="614.8525" y1="691.3268" x2="614.8525" y2="607.4951">
			<stop  offset="0" style="stop-color:#80552E"/>
			<stop  offset="0.7396" style="stop-color:#A3693F"/>
			<stop  offset="1" style="stop-color:#B07145"/>
		</linearGradient>
		<path class="st29" d="M592.423,662.699c0,0,11.411-47.166,19.779-56.676c8.368-9.509,27.926-21.843,27.276-25.186
			c-0.65-3.342-6.355-1.821-7.116,0.081s-22.062,16.356-24.344,17.117s-11.411,23.583-12.552,28.528
			c-1.141,4.945-2.108,8.732-4.478,3.035S592.423,662.699,592.423,662.699z"/>
		
			<linearGradient id="SVGID_30_" gradientUnits="userSpaceOnUse" x1="-408.8924" y1="2516.4932" x2="-408.8924" y2="2392.5417" gradientTransform="matrix(-0.2313 -0.9729 0.7644 -0.1817 -1423.3368 655.0539)">
			<stop  offset="0" style="stop-color:#80552E"/>
			<stop  offset="0.7396" style="stop-color:#A3693F"/>
			<stop  offset="1" style="stop-color:#B07145"/>
		</linearGradient>
		<path class="st30" d="M564.848,613.324c0,0-55.528-3.63-68.737-12.833c-13.209-9.203-31.316-12.858-34.767-11.079
			c-3.451,1.779,0.112,9.348,2.451,9.914c2.339,0.566,23.35,6.102,24.942,9.09c1.592,2.988,29.658,9.781,35.461,10.085
			c5.803,0.303,37.552,12.894,42.129,20.154C571.278,646.506,564.848,613.324,564.848,613.324z"/>
		
			<linearGradient id="SVGID_31_" gradientUnits="userSpaceOnUse" x1="-1748.2725" y1="1372.4542" x2="-1748.2725" y2="957.7502" gradientTransform="matrix(-0.9897 0.143 -0.143 -0.9897 -1009.1506 1948.0386)">
			<stop  offset="0" style="stop-color:#80552E"/>
			<stop  offset="0.7396" style="stop-color:#A3693F"/>
			<stop  offset="1" style="stop-color:#B07145"/>
		</linearGradient>
		<path style="fill:url(#SVGID_31_);" d="M549.73,497.805c0,0,65.145,190.142,62.877,238.846
			c-2.268,48.704,1.9,114.193,1.966,132.751c0.117,33.009-8.566,17.983-10.343,5.681c-1.777-12.303-12.289-114.049-12.577-132.148
			c-0.289-18.099-57.566-214.96-72.907-240.653C503.405,476.587,543.057,477.372,549.73,497.805z"/>
		<g>
			<defs>
				<path id="SVGID_166_" d="M360.672,462.151c0,0,35.76-42.146,64.496-30.013c28.736,12.133,55.556-25.543,84.291-13.41
					c0,0,19.796-15.326,29.374-2.554c9.579,12.771,3.831,25.543,3.831,25.543s42.146-13.41,71.52,4.47
					c29.374,17.88,28.736,31.929,47.254,31.29c0,0,19.157-12.133,28.097,0c8.94,12.133,13.41,39.591,0,45.339
					c-13.41,5.747-37.037,5.747-44.061,22.989s-68.616,37.819-74.658,16.673c-6.749-23.622-29.429-21.782-28.791-16.673
					c0.639,5.109-7.663,28.097-41.507,16.603c-33.844-11.494-92.593-47.254-88.761-28.736c3.831,18.519-33.844,10.856-28.736-8.94
					s-31.29-26.82-33.206-36.399C347.901,478.753,360.672,462.151,360.672,462.151z"/>
			</defs>
			<clipPath id="SVGID_32_">
				<use xlink:href="#SVGID_166_"  style="overflow:visible;"/>
			</clipPath>
			<linearGradient id="SVGID_33_" gradientUnits="userSpaceOnUse" x1="523.8103" y1="565.5851" x2="523.8103" y2="411.0913">
				<stop  offset="0" style="stop-color:#4FA484"/>
				<stop  offset="0.4905" style="stop-color:#49A187"/>
				<stop  offset="0.9877" style="stop-color:#9DCF5B"/>
			</linearGradient>
			<path style="clip-path:url(#SVGID_32_);fill:url(#SVGID_33_);" d="M360.672,462.151c0,0,35.76-42.146,64.496-30.013
				c28.736,12.133,55.556-25.543,84.291-13.41c0,0,19.796-15.326,29.374-2.554c9.579,12.771,3.831,25.543,3.831,25.543
				s42.146-13.41,71.52,4.47c29.374,17.88,28.736,31.929,47.254,31.29c0,0,19.157-12.133,28.097,0
				c8.94,12.133,13.41,39.591,0,45.339c-13.41,5.747-37.037,5.747-44.061,22.989s-67.61,28.876-77.189,9.081
				c-9.579-19.796-26.898-14.189-26.26-9.081c0.639,5.109-7.663,28.097-41.507,16.603c-33.844-11.494-92.593-47.254-88.761-28.736
				c3.831,18.519-33.844,10.856-28.736-8.94s-31.29-26.82-33.206-36.399C347.901,478.753,360.672,462.151,360.672,462.151z"/>
			<linearGradient id="SVGID_34_" gradientUnits="userSpaceOnUse" x1="496.554" y1="663.5679" x2="496.554" y2="467.3734">
				<stop  offset="0" style="stop-color:#9DCF5B"/>
				<stop  offset="0.1921" style="stop-color:#94CA60"/>
				<stop  offset="0.5054" style="stop-color:#7CBD6C"/>
				<stop  offset="0.8987" style="stop-color:#54A781"/>
				<stop  offset="1" style="stop-color:#49A187"/>
			</linearGradient>
			<path style="clip-path:url(#SVGID_32_);fill:url(#SVGID_34_);" d="M632.475,433.134c0,0-195.784,1.78-173.35,66.585
				c22.434,64.805,82.086,3.205,132.562,20.652c50.476,17.447,86.675,76.199,86.675,76.199l-162.134-2.492l-169.781-12.462
				c0,0-33.65-87.237-31.611-89.018c2.039-1.78,75.458-75.131,75.458-75.131l226.375-17.091L632.475,433.134z"/>
		</g>
		<g>
			<defs>
				<path id="SVGID_170_" d="M425.098,587.632c0,0,12.604-17.052,26.691-7.414c0,0,15.57-17.794,32.622-8.156
					c17.052,9.638,14.828,17.794,27.432,15.57c12.604-2.224,24.467,0,24.467,5.931c0,5.931-9.638,20.76-24.467,14.087
					c-14.828-6.673-40.778-11.863-47.45-7.414S413.977,615.064,425.098,587.632z"/>
			</defs>
			<clipPath id="SVGID_35_">
				<use xlink:href="#SVGID_170_"  style="overflow:visible;"/>
			</clipPath>
			<linearGradient id="SVGID_36_" gradientUnits="userSpaceOnUse" x1="479.8036" y1="623.049" x2="479.8036" y2="582.908">
				<stop  offset="0" style="stop-color:#4FA484"/>
				<stop  offset="0.4335" style="stop-color:#9DCF5B"/>
				<stop  offset="0.5049" style="stop-color:#93CA60"/>
				<stop  offset="0.626" style="stop-color:#78BB6E"/>
				<stop  offset="0.7814" style="stop-color:#4DA385"/>
				<stop  offset="0.7944" style="stop-color:#49A187"/>
			</linearGradient>
			<path style="clip-path:url(#SVGID_35_);fill:url(#SVGID_36_);" d="M425.098,587.632c0,0,12.604-17.052,26.691-7.414
				c0,0,15.57-17.794,32.622-8.156c17.052,9.638,14.828,17.794,27.432,15.57c12.604-2.224,24.467,0,24.467,5.931
				c0,5.931-9.638,20.76-24.467,14.087c-14.828-6.673-40.778-11.863-47.45-7.414S413.977,615.064,425.098,587.632z"/>
			<linearGradient id="SVGID_37_" gradientUnits="userSpaceOnUse" x1="465.12" y1="546.2" x2="465.12" y2="599.84">
				<stop  offset="0" style="stop-color:#9DCF5B"/>
				<stop  offset="0.1921" style="stop-color:#94CA60"/>
				<stop  offset="0.5054" style="stop-color:#7CBD6C"/>
				<stop  offset="0.8987" style="stop-color:#54A781"/>
				<stop  offset="1" style="stop-color:#49A187"/>
			</linearGradient>
			<path style="clip-path:url(#SVGID_35_);fill:url(#SVGID_37_);" d="M499.256,573.474c0,0-49.171,0.487-43.537,18.204
				c5.634,17.718,20.616,0.876,33.293,5.646c12.677,4.77,21.768,20.833,21.768,20.833l-40.72-0.681l-42.64-3.407
				c0,0-8.451-23.851-7.939-24.338s18.951-20.541,18.951-20.541l56.854-4.673L499.256,573.474z"/>
		</g>
		<g>
			<defs>
				<path id="SVGID_174_" d="M594.289,577.436c0.475-1.105,6.585-20.939,21.253-19c0,0,22.139-18.39,26.333,0.176
					c4.194,18.566,20.508,2.656,24.682,12.717c4.174,10.061,2.825,39.266-15.633,31.45s-40.391-4.246-48.769-7.841
					C595.854,592.235,589.958,587.516,594.289,577.436z"/>
			</defs>
			<clipPath id="SVGID_38_">
				<use xlink:href="#SVGID_174_"  style="overflow:visible;"/>
			</clipPath>
			
				<linearGradient id="SVGID_39_" gradientUnits="userSpaceOnUse" x1="596.304" y1="746.5994" x2="671.7104" y2="746.5994" gradientTransform="matrix(0.9834 -0.1812 0.1812 0.9834 -128.5553 -39.4803)">
				<stop  offset="0.0045" style="stop-color:#53AFA8"/>
				<stop  offset="1" style="stop-color:#A9CA54"/>
			</linearGradient>
			<path style="clip-path:url(#SVGID_38_);fill:url(#SVGID_39_);" d="M594.289,577.436c0.475-1.105,6.585-20.939,21.253-19
				c0,0,22.139-18.39,26.333,0.176c4.194,18.566,20.508,2.656,24.682,12.717c4.174,10.061,2.825,39.266-15.633,31.45
				s-40.391-4.246-48.769-7.841C595.854,592.235,589.958,587.516,594.289,577.436z"/>
			
				<linearGradient id="SVGID_40_" gradientUnits="userSpaceOnUse" x1="610.8653" y1="800.2919" x2="610.8653" y2="713.3561" gradientTransform="matrix(0.9834 -0.1812 0.1812 0.9834 -128.5553 -39.4803)">
				<stop  offset="0" style="stop-color:#9DCF5B"/>
				<stop  offset="0.1921" style="stop-color:#94CA60"/>
				<stop  offset="0.5054" style="stop-color:#7CBD6C"/>
				<stop  offset="0.8987" style="stop-color:#54A781"/>
				<stop  offset="1" style="stop-color:#49A187"/>
			</linearGradient>
			<path style="clip-path:url(#SVGID_38_);fill:url(#SVGID_40_);" d="M651.434,558.011c0,0-13.958,25.005-30.516,29.603
				s-18.833,21.862-18.833,21.862s-40.882-10.087-42.28-11.376c-1.398-1.29,7.863-70.682,9.733-71.026
				c1.87-0.345,80.497,14.951,80.772,16.447C650.587,545.017,651.434,558.011,651.434,558.011z"/>
		</g>
	</g>
</g>
<linearGradient id="SVGID_41_" gradientUnits="userSpaceOnUse" x1="44.0545" y1="621.4488" x2="44.0545" y2="585.1343">
	<stop  offset="0" style="stop-color:#9DCF5B"/>
	<stop  offset="0.1921" style="stop-color:#94CA60"/>
	<stop  offset="0.5054" style="stop-color:#7CBD6C"/>
	<stop  offset="0.8987" style="stop-color:#54A781"/>
	<stop  offset="1" style="stop-color:#49A187"/>
</linearGradient>
<path style="fill:url(#SVGID_41_);" d="M10.519,591.054c-0.675,1.332-0.682,2.947-1.474,4.213c-0.73,1.167-2.008,1.853-3.045,2.759
	c-3.984,3.481-3.509,10.772,0.893,13.706c6.19,4.127,15.413-0.714,21.659,3.328c2.397,1.552,3.971,4.229,6.532,5.491
	c2.228,1.098,4.841,0.95,7.319,0.776c12.044-0.843,24.088-1.685,36.133-2.528c0.842-0.059,1.719-0.128,2.445-0.558
	c2.531-1.498,1.463-5.948,3.849-7.668c-1.501-1.85-4.525-0.672-6.8-1.379c-3.293-1.023-5.692-6.056-8.716-4.398
	c-0.419-6.475-1.347-13.883-6.734-17.5c-4.283-2.876-9.921-2.289-15.033-1.589c-3.978,0.545-7.956,1.089-11.935,1.634
	c-1.62,0.222-3.703,0.978-3.573,2.608C27.865,588.282,13.052,586.052,10.519,591.054z"/>
<linearGradient id="SVGID_42_" gradientUnits="userSpaceOnUse" x1="98.0569" y1="654.7001" x2="98.0569" y2="624.8608">
	<stop  offset="0" style="stop-color:#9DCF5B"/>
	<stop  offset="0.1921" style="stop-color:#94CA60"/>
	<stop  offset="0.5054" style="stop-color:#7CBD6C"/>
	<stop  offset="0.8987" style="stop-color:#54A781"/>
	<stop  offset="1" style="stop-color:#49A187"/>
</linearGradient>
<path style="fill:url(#SVGID_42_);" d="M95.516,625.596c-2.434-0.889-5.106-0.824-7.684-0.567c-0.65,0.065-1.328,0.152-1.863,0.527
	c-1.158,0.811-1.202,2.622-2.318,3.491c-0.57,0.444-1.324,0.562-1.963,0.899c-1.862,0.984-2.104,4.024-0.42,5.29
	c-4.493,0.995-8.172,4.962-8.824,9.518c-0.097,0.679-0.132,1.378,0.028,2.046c0.557,2.319,3.216,3.473,5.594,3.654
	c2.378,0.181,4.835-0.248,7.114,0.453c3.043,0.937,5.47,3.803,8.654,3.795c2.082-0.006,3.925-1.266,5.628-2.464
	c3.471-2.439,7.586-4.937,11.686-3.847c1.632,0.434,3.067,1.407,4.654,1.985c1.429,0.52,2.954,0.709,4.464,0.895
	c0.69,0.085,1.419,0.164,2.055-0.116c1.516-0.668,1.551-2.774,1.336-4.416c-0.494-3.77-1.301-7.987-4.457-10.108
	c-2.517-1.691-5.785-1.522-8.804-1.809c-2.917-0.278-6.949-0.858-9.152-2.946C98.952,629.701,99.109,626.909,95.516,625.596z"/>
<linearGradient id="SVGID_43_" gradientUnits="userSpaceOnUse" x1="16.1342" y1="854.9846" x2="890.8287" y2="854.9846">
	<stop  offset="0" style="stop-color:#9DCF5B"/>
	<stop  offset="0.1921" style="stop-color:#94CA60"/>
	<stop  offset="0.5054" style="stop-color:#7CBD6C"/>
	<stop  offset="0.8987" style="stop-color:#54A781"/>
	<stop  offset="1" style="stop-color:#49A187"/>
</linearGradient>
<path style="fill:url(#SVGID_43_);" d="M18.312,955.99c0.415-4.142,0.831-8.284,1.246-12.426
	c2.406-23.999,5.325-49.353,19.921-68.555c5.831-7.671,13.257-13.954,20.619-20.17c19.256-16.257,39.133-32.871,63.028-40.877
	c23.895-8.006,53.075-5.501,70.445,12.758c9.011-11.764,18.022-23.529,27.033-35.293c9.83-12.833,19.893-25.891,33.23-35.025
	c13.338-9.134,30.746-13.85,45.934-8.313c-4.809-17.53-3.493-36.486,2.483-53.653c6.433-18.48,18.498-35.29,35.095-45.654
	c30.583-19.097,74.926-11.615,97.549,16.461c9.581,11.89,15.817,27.011,28.516,35.49c16.768,11.196,42.419,9.148,53.351,26.089
	c6.343,9.83,6.409,24.649,16.868,29.89c6.353,3.184,13.918,1.228,20.901-0.092c31.498-5.954,65.533,3.412,89.549,24.644
	c13.048,11.535,23.269,26.309,37.762,35.965c19.18,12.779,43.765,15.209,63.155,27.668c20.819,13.377,32.936,36.365,46.907,56.79
	c16.069,23.492,35.606,44.607,57.78,62.45c17.652,14.204,38.709,29.208,40.991,51.751c0.443,4.37,0.024,9.059-2.511,12.646
	c-2.249,3.182-5.853,5.089-9.374,6.758c-28.884,13.684-60.982,18.974-92.765,22.348c-41.296,4.383-82.908,5.783-124.405,4.186
	c-45.466-1.75-90.881-7.092-136.341-5.196c-43.624,1.82-86.704,10.285-130.23,13.729c-43.526,3.443-88.718,1.556-128.579-16.26
	c-29.368-13.126-55.892-34.81-87.84-38.561c-6.142-0.721-12.436-0.739-18.436,0.759c-7.448,1.86-14.104,5.95-20.994,9.335
	c-30.242,14.856-70.465,16.763-101.103,1.572C10.599,1013.566,15.644,982.597,18.312,955.99z"/>
</svg>
