<?xml version="1.0" encoding="utf-8"?>
<!-- Generator: Adobe Illustrator 24.2.3, SVG Export Plug-In . SVG Version: 6.00 Build 0)  -->
<svg version="1.1" id="Ebene_1" xmlns="http://www.w3.org/2000/svg" xmlns:xlink="http://www.w3.org/1999/xlink" x="0px" y="0px"
	 viewBox="0 0 960 960" style="enable-background:new 0 0 960 960;" xml:space="preserve">
<style type="text/css">
	.st0{fill:url(#SVGID_1_);}
	.st1{fill:url(#SVGID_2_);}
	.st2{fill:none;stroke:#53AFA8;stroke-width:5.6693;stroke-linecap:round;stroke-linejoin:round;stroke-miterlimit:10;}
	.st3{fill:url(#SVGID_3_);}
	.st4{fill:url(#SVGID_4_);}
	.st5{fill:url(#SVGID_5_);}
	.st6{fill:url(#SVGID_6_);}
	.st7{fill:url(#SVGID_7_);}
	.st8{fill:url(#SVGID_8_);}
	.st9{fill:url(#SVGID_9_);}
	.st10{fill:url(#SVGID_10_);}
	.st11{fill:url(#SVGID_11_);}
	.st12{fill:url(#SVGID_12_);}
	.st13{clip-path:url(#XMLID_11_);fill:url(#SVGID_13_);}
	.st14{fill:url(#SVGID_14_);}
	.st15{clip-path:url(#XMLID_13_);fill:url(#SVGID_15_);}
	.st16{fill:url(#SVGID_16_);}
	.st17{clip-path:url(#XMLID_15_);fill:url(#SVGID_17_);}
	.st18{fill:url(#SVGID_18_);}
	.st19{clip-path:url(#XMLID_17_);fill:url(#SVGID_19_);}
	.st20{fill:url(#SVGID_20_);}
	.st21{clip-path:url(#XMLID_19_);fill:url(#SVGID_21_);}
	.st22{clip-path:url(#XMLID_21_);fill:url(#SVGID_22_);}
	.st23{clip-path:url(#XMLID_23_);fill:url(#SVGID_23_);}
	.st24{fill:url(#SVGID_24_);}
	.st25{fill:url(#SVGID_25_);}
	.st26{clip-path:url(#XMLID_25_);fill:url(#SVGID_26_);}
	.st27{clip-path:url(#XMLID_27_);fill:url(#SVGID_27_);}
	.st28{clip-path:url(#XMLID_29_);fill:url(#SVGID_28_);}
	.st29{fill:url(#SVGID_29_);}
	.st30{fill:url(#SVGID_30_);}
	.st31{clip-path:url(#XMLID_31_);fill:url(#SVGID_31_);}
	.st32{clip-path:url(#XMLID_33_);fill:url(#SVGID_32_);}
	.st33{clip-path:url(#XMLID_35_);fill:url(#SVGID_33_);}
	.st34{fill:url(#SVGID_34_);}
	.st35{fill:url(#SVGID_35_);}
	.st36{clip-path:url(#XMLID_37_);fill:url(#SVGID_36_);}
	.st37{clip-path:url(#XMLID_39_);fill:url(#SVGID_37_);}
	.st38{clip-path:url(#XMLID_41_);fill:url(#SVGID_38_);}
	.st39{fill:url(#SVGID_39_);}
	.st40{fill:url(#SVGID_40_);}
	.st41{clip-path:url(#XMLID_43_);fill:url(#SVGID_41_);}
	.st42{clip-path:url(#XMLID_45_);fill:url(#SVGID_42_);}
	.st43{clip-path:url(#XMLID_47_);fill:url(#SVGID_43_);}
	.st44{fill:url(#SVGID_44_);}
	.st45{fill:url(#SVGID_45_);}
	.st46{clip-path:url(#XMLID_49_);fill:url(#SVGID_46_);}
	.st47{clip-path:url(#XMLID_93_);fill:url(#SVGID_47_);}
	.st48{clip-path:url(#XMLID_95_);fill:url(#SVGID_48_);}
	.st49{fill:url(#SVGID_49_);}
	.st50{fill:url(#SVGID_50_);}
	.st51{clip-path:url(#XMLID_97_);fill:url(#SVGID_51_);}
	.st52{clip-path:url(#XMLID_99_);fill:url(#SVGID_52_);}
	.st53{clip-path:url(#XMLID_101_);fill:url(#SVGID_53_);}
	.st54{fill:url(#SVGID_54_);}
	.st55{fill:url(#SVGID_55_);}
	.st56{clip-path:url(#XMLID_103_);fill:url(#SVGID_56_);}
	.st57{clip-path:url(#XMLID_105_);fill:url(#SVGID_57_);}
	.st58{clip-path:url(#XMLID_107_);fill:url(#SVGID_58_);}
	.st59{fill:url(#SVGID_59_);}
	.st60{fill:url(#SVGID_60_);}
	.st61{clip-path:url(#XMLID_109_);fill:url(#SVGID_61_);}
	.st62{clip-path:url(#XMLID_111_);fill:url(#SVGID_62_);}
	.st63{clip-path:url(#XMLID_113_);fill:url(#SVGID_63_);}
	.st64{fill:url(#SVGID_64_);}
	.st65{fill:url(#SVGID_65_);}
	.st66{clip-path:url(#XMLID_115_);fill:url(#SVGID_66_);}
	.st67{clip-path:url(#XMLID_117_);fill:url(#SVGID_67_);}
	.st68{clip-path:url(#XMLID_119_);fill:url(#SVGID_68_);}
	.st69{fill:url(#SVGID_69_);}
	.st70{fill:url(#SVGID_70_);}
	.st71{clip-path:url(#XMLID_121_);fill:url(#SVGID_71_);}
	.st72{clip-path:url(#XMLID_123_);fill:url(#SVGID_72_);}
	.st73{clip-path:url(#XMLID_125_);fill:url(#SVGID_73_);}
	.st74{fill:url(#SVGID_74_);}
	.st75{fill:url(#SVGID_75_);}
	.st76{clip-path:url(#XMLID_127_);fill:url(#SVGID_76_);}
	.st77{clip-path:url(#XMLID_129_);fill:url(#SVGID_77_);}
	.st78{clip-path:url(#XMLID_131_);fill:url(#SVGID_78_);}
	.st79{fill:url(#SVGID_79_);}
	.st80{fill:url(#SVGID_80_);}
	.st81{clip-path:url(#XMLID_133_);fill:url(#SVGID_81_);}
	.st82{clip-path:url(#XMLID_135_);fill:url(#SVGID_82_);}
	.st83{clip-path:url(#XMLID_137_);fill:url(#SVGID_83_);}
	.st84{fill:url(#SVGID_84_);}
	.st85{fill:url(#SVGID_85_);}
	.st86{clip-path:url(#XMLID_139_);fill:url(#SVGID_86_);}
	.st87{clip-path:url(#XMLID_141_);fill:url(#SVGID_87_);}
	.st88{clip-path:url(#XMLID_143_);fill:url(#SVGID_88_);}
	.st89{fill:url(#SVGID_89_);}
	.st90{fill:url(#SVGID_90_);}
	.st91{clip-path:url(#XMLID_145_);fill:url(#SVGID_91_);}
	.st92{clip-path:url(#XMLID_147_);fill:url(#SVGID_92_);}
	.st93{clip-path:url(#XMLID_149_);fill:url(#SVGID_93_);}
	.st94{fill:url(#SVGID_94_);}
	.st95{fill:url(#SVGID_95_);}
	.st96{clip-path:url(#XMLID_151_);fill:url(#SVGID_96_);}
	.st97{fill:url(#SVGID_97_);}
	.st98{fill:#FFE500;}
	.st99{fill:url(#SVGID_98_);}
	.st100{fill:#77CB57;}
	.st101{fill:#A9CA54;}
	.st102{fill:#53AFA8;}
	.st103{fill:#B07145;}
	.st104{fill:#80552E;}
	.st105{fill:url(#SVGID_99_);}
	.st106{fill:url(#SVGID_100_);}
	.st107{fill:url(#SVGID_101_);}
	.st108{fill:url(#SVGID_102_);}
	.st109{fill:url(#SVGID_103_);}
	.st110{fill:url(#SVGID_104_);}
	.st111{fill:url(#SVGID_105_);}
	.st112{fill:url(#SVGID_106_);}
	.st113{fill:url(#SVGID_107_);}
	.st114{fill:url(#SVGID_108_);}
	.st115{fill:url(#SVGID_109_);}
	.st116{clip-path:url(#SVGID_111_);fill:url(#SVGID_112_);}
	.st117{clip-path:url(#SVGID_111_);fill:url(#SVGID_113_);}
	.st118{clip-path:url(#SVGID_115_);fill:url(#SVGID_116_);}
	.st119{clip-path:url(#SVGID_115_);fill:url(#SVGID_117_);}
	.st120{clip-path:url(#SVGID_119_);fill:url(#SVGID_120_);}
	.st121{clip-path:url(#SVGID_119_);fill:url(#SVGID_121_);}
	.st122{fill:url(#SVGID_122_);}
	.st123{fill:url(#SVGID_123_);}
	.st124{fill:url(#SVGID_124_);}
	.st125{fill:url(#SVGID_125_);}
	.st126{clip-path:url(#SVGID_127_);fill:url(#SVGID_128_);}
	.st127{clip-path:url(#SVGID_127_);fill:url(#SVGID_129_);}
	.st128{clip-path:url(#SVGID_131_);fill:url(#SVGID_132_);}
	.st129{clip-path:url(#SVGID_131_);fill:url(#SVGID_133_);}
	.st130{clip-path:url(#SVGID_135_);fill:url(#SVGID_136_);}
	.st131{clip-path:url(#SVGID_135_);fill:url(#SVGID_137_);}
	.st132{fill:url(#SVGID_138_);}
	.st133{clip-path:url(#SVGID_140_);fill:url(#SVGID_141_);}
	.st134{clip-path:url(#SVGID_140_);fill:url(#SVGID_142_);}
	.st135{fill:url(#SVGID_143_);}
	.st136{fill:url(#SVGID_144_);}
	.st137{fill:url(#SVGID_145_);}
	.st138{fill:url(#SVGID_146_);}
	.st139{fill:url(#SVGID_147_);}
	.st140{clip-path:url(#SVGID_149_);fill:url(#SVGID_150_);}
	.st141{clip-path:url(#SVGID_149_);fill:url(#SVGID_151_);}
	.st142{clip-path:url(#SVGID_153_);fill:url(#SVGID_154_);}
	.st143{clip-path:url(#SVGID_153_);fill:url(#SVGID_155_);}
	.st144{clip-path:url(#SVGID_157_);fill:url(#SVGID_158_);}
	.st145{clip-path:url(#SVGID_157_);fill:url(#SVGID_159_);}
	.st146{fill:url(#SVGID_160_);}
	.st147{fill:url(#SVGID_161_);}
	.st148{fill:url(#SVGID_162_);}
	.st149{fill:url(#SVGID_163_);}
	.st150{fill:url(#SVGID_164_);}
	.st151{fill:url(#SVGID_165_);}
	.st152{clip-path:url(#SVGID_167_);fill:url(#SVGID_168_);}
	.st153{clip-path:url(#SVGID_167_);fill:url(#SVGID_169_);}
	.st154{clip-path:url(#SVGID_171_);fill:url(#SVGID_172_);}
	.st155{clip-path:url(#SVGID_171_);fill:url(#SVGID_173_);}
	.st156{clip-path:url(#SVGID_175_);fill:url(#SVGID_176_);}
	.st157{clip-path:url(#SVGID_175_);fill:url(#SVGID_177_);}
	.st158{clip-path:url(#SVGID_179_);fill:url(#SVGID_180_);}
	.st159{clip-path:url(#SVGID_179_);fill:url(#SVGID_181_);}
	.st160{fill:url(#SVGID_182_);}
	.st161{fill:url(#SVGID_183_);}
	.st162{fill:url(#SVGID_184_);}
</style>
<linearGradient id="SVGID_1_" gradientUnits="userSpaceOnUse" x1="825.7117" y1="678.272" x2="825.7117" y2="607.1949">
	<stop  offset="0" style="stop-color:#80552E"/>
	<stop  offset="0.7396" style="stop-color:#A3693F"/>
	<stop  offset="1" style="stop-color:#B07145"/>
</linearGradient>
<path class="st0" d="M813.367,654c0,0,8.49-35.094,14.717-42.169s12.075-24.955,11.591-27.442s-4.729-1.355-5.295,0.06
	c-0.566,1.415-7.711,20.873-9.409,21.439c-1.698,0.566-8.49,17.547-9.339,21.226c-0.849,3.679-1.569,6.497-3.332,2.258
	C810.537,625.133,813.367,654,813.367,654z"/>
<linearGradient id="SVGID_2_" gradientUnits="userSpaceOnUse" x1="728.3217" y1="652.6288" x2="728.3217" y2="556.064" gradientTransform="matrix(0.0776 -0.997 0.997 0.0776 135.0167 1304.8607)">
	<stop  offset="0" style="stop-color:#80552E"/>
	<stop  offset="0.7396" style="stop-color:#A3693F"/>
	<stop  offset="1" style="stop-color:#B07145"/>
</linearGradient>
<path class="st1" d="M808,644c0,0-25.993-14.472-38.689-27.527c-12.696-13.055-46.262-27.003-51.125-26.445
	s-3.319,8.906-0.678,10.209c2.641,1.303,39.052,17.986,39.888,21.342C758.231,624.934,777,633,785,653
	c2.71,6.774,24.164-6.25,15.734-3.491C792.303,652.269,808,644,808,644z"/>
<g>
	<path class="st2" d="M340.65,469.475c0,0,18.486,96.937,59.966,75.295c0,0,11.046,71.012,35.393,47.116"/>
	<linearGradient id="SVGID_3_" gradientUnits="userSpaceOnUse" x1="441.4045" y1="689.3918" x2="441.4045" y2="590.0235">
		<stop  offset="0" style="stop-color:#80552E"/>
		<stop  offset="0.7396" style="stop-color:#A3693F"/>
		<stop  offset="1" style="stop-color:#B07145"/>
	</linearGradient>
	<path class="st3" d="M414.818,655.459c0,0,13.526-55.908,23.445-67.18c9.919-11.272,33.101-25.891,32.331-29.853
		c-0.77-3.962-7.533-2.158-8.435,0.096c-0.902,2.254-26.15,19.387-28.856,20.289c-2.705,0.902-13.526,27.954-14.879,33.815
		c-1.353,5.861-2.499,10.351-5.307,3.597C410.309,609.47,414.818,655.459,414.818,655.459z"/>
	<linearGradient id="SVGID_4_" gradientUnits="userSpaceOnUse" x1="420.7714" y1="1001.0644" x2="420.7714" y2="594.9257">
		<stop  offset="0" style="stop-color:#80552E"/>
		<stop  offset="0.7396" style="stop-color:#A3693F"/>
		<stop  offset="1" style="stop-color:#B07145"/>
	</linearGradient>
	<path class="st4" d="M418.876,844.373c0,0-36.52-193.423-27.503-240.314s14.147-110.951,16.682-128.949
		c4.509-32.012,10.821-16.231,10.821-4.058s-4.058,112.267-6.312,129.851c-2.254,17.584,25.7,216.418,36.971,243.47
		C460.806,871.426,422.483,865.113,418.876,844.373z"/>
	<path class="st2" d="M696.452,647.845c0,0,9.01,29.773,23.049,12.994c0,0,11.486,49.018,34.714,7.794
		c0,0,15.733,40.43,54.298,63.562"/>
	<linearGradient id="SVGID_5_" gradientUnits="userSpaceOnUse" x1="314.8532" y1="677.0476" x2="313.7899" y2="654.5043">
		<stop  offset="0" style="stop-color:#80552E"/>
		<stop  offset="0.7396" style="stop-color:#A3693F"/>
		<stop  offset="1" style="stop-color:#B07145"/>
	</linearGradient>
	<path class="st5" d="M322.617,668.966c0,0-1.219-4.09-3.489-5.604c-2.271-1.514-13.625-8.326-14.381-9.84
		c-0.757-1.514-0.757-7.569,0-6.055c0.757,1.514,0,4.542,1.514,5.298c1.514,0.757,12.868,7.569,13.625,8.326
		s3.785,3.785,3.785,3.785L322.617,668.966z"/>
	
		<linearGradient id="SVGID_6_" gradientUnits="userSpaceOnUse" x1="-197.1372" y1="945.7666" x2="-197.1372" y2="801.4629" gradientTransform="matrix(-0.9989 0.0471 0.0471 0.9989 86.4868 -110.8323)">
		<stop  offset="0" style="stop-color:#80552E"/>
		<stop  offset="0.7396" style="stop-color:#A3693F"/>
		<stop  offset="1" style="stop-color:#B07145"/>
	</linearGradient>
	<path class="st6" d="M326.013,768.953c0,0,9.724-69.26,5.738-85.751c-3.985-16.491-6.878-39.141-8.079-45.486
		c-2.136-11.286-4.112-5.58-3.908-1.259c0.204,4.321,3.319,39.777,4.414,45.98s-5.498,77.239-9.046,87.029
		C311.584,779.256,325.08,776.374,326.013,768.953z"/>
	
		<linearGradient id="SVGID_7_" gradientUnits="userSpaceOnUse" x1="-205.4426" y1="799.4963" x2="-205.4426" y2="737.9418" gradientTransform="matrix(-0.9989 0.0471 0.0471 0.9989 86.4868 -110.8323)">
		<stop  offset="0" style="stop-color:#4FA484"/>
		<stop  offset="0.4905" style="stop-color:#49A187"/>
		<stop  offset="0.9877" style="stop-color:#9DCF5B"/>
	</linearGradient>
	<path class="st7" d="M310.562,652.87c0,0-35.992-24.066-33.431-34.038s9.151-14.829,19.879-12.304
		c10.728,2.525,24.729,10.2,31.969,3.039s51.135-24.387,45.693-11.248c-5.442,13.139,7.696,18.581-10.992,24.009
		c-18.688,5.428,5.071,11.127-10.592,16.413c-15.664,5.285-4.037,10.799-13.795,12.775S323.914,662.849,310.562,652.87z"/>
	<g>
		<linearGradient id="SVGID_8_" gradientUnits="userSpaceOnUse" x1="557.9808" y1="725.0308" x2="557.9808" y2="547.1055">
			<stop  offset="0" style="stop-color:#4FA484"/>
			<stop  offset="0.4905" style="stop-color:#49A187"/>
			<stop  offset="0.9877" style="stop-color:#9DCF5B"/>
		</linearGradient>
		<path class="st8" d="M546.807,661.848c0,0-30.88-7.569-34.664-18.923c-3.785-11.354-26.492-13.625-22.708-29.52
			c3.785-15.895-10.597-26.492-5.298-40.117c5.298-13.625,20.437-30.277,31.034-62.067s22.708-30.277,26.492-11.354
			c3.785,18.923,15.138,22.708,19.68,26.492c4.542,3.785,46.929,13.625,48.443,33.304c1.514,19.68,6.812,27.249,11.354,29.52
			c4.542,2.271,16.652,21.194,9.84,29.52c-6.812,8.326-41.631,31.034-34.818,43.144
			C602.973,673.959,545.139,635.356,546.807,661.848z"/>
		
			<linearGradient id="SVGID_9_" gradientUnits="userSpaceOnUse" x1="392.6216" y1="529.0591" x2="392.6216" y2="458.3633" gradientTransform="matrix(-0.9258 -0.3781 -0.3781 0.9258 1083.9172 342.6548)">
			<stop  offset="0" style="stop-color:#80552E"/>
			<stop  offset="0.7396" style="stop-color:#A3693F"/>
			<stop  offset="1" style="stop-color:#B07145"/>
		</linearGradient>
		<path class="st9" d="M545.906,668.321c0,0,6.366-42.566,3.096-51.993c-3.27-9.427-13.859-24.247-12.39-26.491
			c1.469-2.244,5.177,0.565,5.165,2.179c-0.012,1.614,11.217,18.499,12.655,19.734c1.438,1.235,1.297,20.597,0.657,24.543
			c-0.641,3.946,1.068,8.451,4.493,5.002C563.007,637.845,545.906,668.321,545.906,668.321z"/>
		
			<linearGradient id="SVGID_10_" gradientUnits="userSpaceOnUse" x1="578.0108" y1="445.1272" x2="578.0108" y2="314.5902" gradientTransform="matrix(-0.6423 -0.7665 -0.7665 0.6423 1167.6825 877.3637)">
			<stop  offset="0" style="stop-color:#80552E"/>
			<stop  offset="0.7396" style="stop-color:#A3693F"/>
			<stop  offset="1" style="stop-color:#B07145"/>
		</linearGradient>
		<path class="st10" d="M511.864,718.355c0,0,44.882-60.79,47.863-80.288c2.981-19.498-1.858-55.175,2.781-57.742
			s8.529,5.764,7.02,8.574s2.542,42.689,3.917,46.173c1.374,3.485-16.735,37.205-21.495,43.512
			c-4.761,6.307-8.314,11.25,0.856,8.379C561.975,684.093,511.864,718.355,511.864,718.355z"/>
	</g>
	<g>
		<defs>
			<path id="SVGID_110_" d="M297.592,392.151c-0.884,3.749-38.324,34.266,0,57.26c38.324,22.994,20.74,41.48,41.931,49.596
				s53.654,8.567,59.064-10.821c5.41-19.387,21.191-9.919,24.798-3.156c3.607,6.763-0.451,21.191,34.717,19.838
				c35.168-1.353,73.943-21.642,73.943-66.729c0,0,41.029-8.567,35.619-41.48c-5.41-32.914-31.11-52.301-52.301-49.596
				c0,0-19.387-59.515-91.076-48.694c-71.688,10.821-73.492,65.376-73.492,65.376S308.863,344.358,297.592,392.151z"/>
		</defs>
		<clipPath id="SVGID_11_">
			<use xlink:href="#SVGID_110_"  style="overflow:visible;"/>
		</clipPath>
		<linearGradient id="SVGID_12_" gradientUnits="userSpaceOnUse" x1="424.2574" y1="575.9532" x2="424.2574" y2="368.0508">
			<stop  offset="0" style="stop-color:#9DCF5B"/>
			<stop  offset="0.1921" style="stop-color:#94CA60"/>
			<stop  offset="0.5054" style="stop-color:#7CBD6C"/>
			<stop  offset="0.8987" style="stop-color:#54A781"/>
			<stop  offset="1" style="stop-color:#49A187"/>
		</linearGradient>
		<path style="clip-path:url(#SVGID_11_);fill:url(#SVGID_12_);" d="M297.592,392.151c-0.884,3.749-38.324,34.266,0,57.26
			c38.324,22.994,20.74,41.48,41.931,49.596s53.654,8.567,59.064-10.821c5.41-19.387,21.191-9.919,24.798-3.156
			c3.607,6.763-0.451,21.191,34.717,19.838c35.168-1.353,73.943-21.642,73.943-66.729c0,0,41.029-8.567,35.619-41.48
			c-5.41-32.914-31.11-52.301-52.301-49.596c0,0-19.387-59.515-91.076-48.694c-71.688,10.821-73.492,65.376-73.492,65.376
			S308.863,344.358,297.592,392.151z"/>
		<linearGradient id="SVGID_13_" gradientUnits="userSpaceOnUse" x1="402.3794" y1="608.6404" x2="402.3794" y2="360.2109">
			<stop  offset="0" style="stop-color:#49A187"/>
			<stop  offset="0.1157" style="stop-color:#5BAB7E"/>
			<stop  offset="0.3413" style="stop-color:#78BB6F"/>
			<stop  offset="0.5658" style="stop-color:#8CC664"/>
			<stop  offset="0.7868" style="stop-color:#99CD5D"/>
			<stop  offset="1" style="stop-color:#9DCF5B"/>
		</linearGradient>
		<path style="clip-path:url(#SVGID_11_);fill:url(#SVGID_13_);" d="M522.576,316.855c0,0-173.134,2.254-153.296,84.313
			c19.838,82.058,72.59,4.058,117.226,26.15c44.636,22.093,76.648,96.486,76.648,96.486l-143.377-3.156l-150.14-15.78
			c0,0-29.757-110.463-27.954-112.717c1.803-2.254,66.729-95.134,66.729-95.134l200.186-21.642L522.576,316.855z"/>
	</g>
	<g>
		<defs>
			<path id="SVGID_114_" d="M440.968,548.234c0.791-1.186,12.173-22.994,28.856-17.584c0,0,29.757-16.682,30.659,5.861
				c0.902,22.543,15.33,9.919,18.035,22.543c2.705,12.624-13.977,31.561-33.815,18.486c-19.838-13.075-33.815-13.977-38.324-7.214
				C441.87,577.089,433.754,559.055,440.968,548.234z"/>
		</defs>
		<clipPath id="SVGID_14_">
			<use xlink:href="#SVGID_114_"  style="overflow:visible;"/>
		</clipPath>
		<linearGradient id="SVGID_15_" gradientUnits="userSpaceOnUse" x1="478.4521" y1="505.1604" x2="478.4521" y2="562.4046">
			<stop  offset="0" style="stop-color:#9DCF5B"/>
			<stop  offset="0.1921" style="stop-color:#94CA60"/>
			<stop  offset="0.5054" style="stop-color:#7CBD6C"/>
			<stop  offset="0.8987" style="stop-color:#54A781"/>
			<stop  offset="1" style="stop-color:#49A187"/>
		</linearGradient>
		<path style="clip-path:url(#SVGID_14_);fill:url(#SVGID_15_);" d="M440.968,548.234c0.791-1.186,12.173-22.994,28.856-17.584
			c0,0,29.757-16.682,30.659,5.861c0.902,22.543,15.33,9.919,18.035,22.543c2.705,12.624-13.977,31.561-33.815,18.486
			c-19.838-13.075-33.815-13.977-38.324-7.214C441.87,577.089,433.754,559.055,440.968,548.234z"/>
		<linearGradient id="SVGID_16_" gradientUnits="userSpaceOnUse" x1="454.9194" y1="622.4476" x2="454.9194" y2="519.3997">
			<stop  offset="0" style="stop-color:#9DCF5B"/>
			<stop  offset="0.1921" style="stop-color:#94CA60"/>
			<stop  offset="0.5054" style="stop-color:#7CBD6C"/>
			<stop  offset="0.8987" style="stop-color:#54A781"/>
			<stop  offset="1" style="stop-color:#49A187"/>
		</linearGradient>
		<path style="clip-path:url(#SVGID_14_);fill:url(#SVGID_16_);" d="M511.755,537.864c0,0-21.642,26.15-41.931,27.954
			c-20.289,1.804-26.649,21.44-26.649,21.44s-45.49-20.539-46.843-22.342c-1.353-1.803,24.347-80.706,26.601-80.706
			c2.254,0,90.625,34.717,90.625,36.52S511.755,537.864,511.755,537.864z"/>
	</g>
	<g>
		<defs>
			<path id="SVGID_118_" d="M288.001,640.472c0.355-0.532,5.46-10.313,12.942-7.887c0,0,13.346-7.482,13.751,2.629
				c0.404,10.111,6.875,4.449,8.089,10.111c1.213,5.662-6.269,14.155-15.167,8.291c-8.898-5.864-15.167-6.269-17.189-3.235
				C288.406,653.414,284.766,645.325,288.001,640.472z"/>
		</defs>
		<clipPath id="SVGID_17_">
			<use xlink:href="#SVGID_118_"  style="overflow:visible;"/>
		</clipPath>
		<linearGradient id="SVGID_18_" gradientUnits="userSpaceOnUse" x1="304.813" y1="664.3626" x2="304.813" y2="638.688">
			<stop  offset="0.0045" style="stop-color:#53AFA8"/>
			<stop  offset="1" style="stop-color:#A9CA54"/>
		</linearGradient>
		<path style="clip-path:url(#SVGID_17_);fill:url(#SVGID_18_);" d="M288.001,640.472c0.355-0.532,5.46-10.313,12.942-7.887
			c0,0,13.346-7.482,13.751,2.629c0.404,10.111,6.875,4.449,8.089,10.111c1.213,5.662-6.269,14.155-15.167,8.291
			c-8.898-5.864-15.167-6.269-17.189-3.235C288.406,653.414,284.766,645.325,288.001,640.472z"/>
		<linearGradient id="SVGID_19_" gradientUnits="userSpaceOnUse" x1="294.2584" y1="673.7573" x2="294.2584" y2="627.5393">
			<stop  offset="0.5899" style="stop-color:#A9CA54"/>
			<stop  offset="0.7054" style="stop-color:#C5D339"/>
			<stop  offset="0.9001" style="stop-color:#EFE010"/>
			<stop  offset="1" style="stop-color:#FFE500"/>
		</linearGradient>
		<path style="clip-path:url(#SVGID_17_);fill:url(#SVGID_19_);" d="M319.75,635.821c0,0-9.707,11.729-18.806,12.538
			c-9.1,0.809-11.952,9.616-11.952,9.616s-20.403-9.212-21.009-10.021c-0.607-0.809,10.92-36.197,11.931-36.197
			s40.646,15.571,40.646,16.38S319.75,635.821,319.75,635.821z"/>
	</g>
	<g>
		
			<linearGradient id="SVGID_20_" gradientUnits="userSpaceOnUse" x1="793.8109" y1="686.0367" x2="793.8109" y2="632.2211" gradientTransform="matrix(0.8844 0.4667 -0.4667 0.8844 463.6462 -279.2176)">
			<stop  offset="0" style="stop-color:#80552E"/>
			<stop  offset="0.7396" style="stop-color:#A3693F"/>
			<stop  offset="1" style="stop-color:#B07145"/>
		</linearGradient>
		<path class="st20" d="M842.159,675.473c0,0,21.723-24.525,28.823-27.226c7.099-2.701,20.923-3.768,21.514-5.723
			c0.591-1.954-2.861-2.744-3.797-1.949c-0.936,0.796-16.278,2.5-17.701,2.264c-1.423-0.235-12.652,9.313-14.641,11.616
			s-5.453,3.508-5.115-0.176S842.159,675.473,842.159,675.473z"/>
		<linearGradient id="SVGID_21_" gradientUnits="userSpaceOnUse" x1="856.1964" y1="753.73" x2="856.1964" y2="654.3616">
			<stop  offset="0" style="stop-color:#80552E"/>
			<stop  offset="0.7396" style="stop-color:#A3693F"/>
			<stop  offset="1" style="stop-color:#B07145"/>
		</linearGradient>
		<path style="fill:url(#SVGID_21_);" d="M829.61,719.797c0,0,13.526-55.908,23.445-67.18c9.919-11.272,33.101-25.891,32.331-29.853
			s-7.533-2.158-8.435,0.096c-0.902,2.254-26.151,19.387-28.856,20.289s-13.526,27.954-14.879,33.815s-2.499,10.351-5.307,3.597
			C825.101,673.808,829.61,719.797,829.61,719.797z"/>
		
			<linearGradient id="SVGID_22_" gradientUnits="userSpaceOnUse" x1="841.0051" y1="1441.7021" x2="841.0051" y2="1294.7787" gradientTransform="matrix(-0.2313 -0.9729 0.7644 -0.1817 -75.0397 1720.3546)">
			<stop  offset="0" style="stop-color:#80552E"/>
			<stop  offset="0.7396" style="stop-color:#A3693F"/>
			<stop  offset="1" style="stop-color:#B07145"/>
		</linearGradient>
		<path style="fill:url(#SVGID_22_);" d="M796.924,661.271c0,0-65.819-4.303-81.476-15.212
			c-15.657-10.909-37.12-15.241-41.21-13.132c-4.09,2.109,0.133,11.081,2.905,11.752s27.678,7.233,29.565,10.774
			c1.887,3.542,35.155,11.594,42.033,11.954c6.879,0.36,44.511,15.284,49.936,23.889
			C804.546,700.603,796.924,661.271,796.924,661.271z"/>
		
			<linearGradient id="SVGID_23_" gradientUnits="userSpaceOnUse" x1="207.7121" y1="1499.6162" x2="207.7121" y2="1008.0544" gradientTransform="matrix(-0.9897 0.143 -0.143 -0.9897 1169.6002 1791.4843)">
			<stop  offset="0" style="stop-color:#80552E"/>
			<stop  offset="0.7396" style="stop-color:#A3693F"/>
			<stop  offset="1" style="stop-color:#B07145"/>
		</linearGradient>
		<path style="fill:url(#SVGID_23_);" d="M779.004,524.343c0,0,77.218,225.381,74.531,283.112s2.252,135.356,2.33,157.354
			c0.138,39.127-10.154,21.316-12.26,6.733c-2.107-14.583-14.566-135.186-14.908-156.64
			c-0.342-21.454-68.235-254.799-86.419-285.254C724.094,499.193,771.095,500.122,779.004,524.343z"/>
		<g>
			<defs>
				<path id="SVGID_126_" d="M554.908,482.08c0,0,42.387-49.957,76.449-35.575c34.061,14.381,65.852-30.277,99.913-15.895
					c0,0,23.465-18.166,34.818-3.028c11.354,15.138,4.542,30.277,4.542,30.277s49.957-15.895,84.775,5.298
					c34.818,21.194,34.061,37.846,56.012,37.089c0,0,22.708-14.381,33.304,0c10.597,14.381,15.895,46.929,0,53.741
					c-15.895,6.812-43.901,6.812-52.227,27.249C884.168,601.673,811.161,626.064,804,601c-8-28-34.884-25.819-34.127-19.763
					s-9.083,33.304-49.2,19.68c-40.117-13.625-109.753-56.012-105.212-34.061c4.542,21.951-40.117,12.868-34.061-10.597
					c6.055-23.465-37.089-31.791-39.36-43.144C539.77,501.76,554.908,482.08,554.908,482.08z"/>
			</defs>
			<clipPath id="SVGID_24_">
				<use xlink:href="#SVGID_126_"  style="overflow:visible;"/>
			</clipPath>
			<linearGradient id="SVGID_25_" gradientUnits="userSpaceOnUse" x1="748.2811" y1="604.6844" x2="748.2811" y2="421.5579">
				<stop  offset="0" style="stop-color:#4FA484"/>
				<stop  offset="0.4905" style="stop-color:#49A187"/>
				<stop  offset="0.9877" style="stop-color:#9DCF5B"/>
			</linearGradient>
			<path style="clip-path:url(#SVGID_24_);fill:url(#SVGID_25_);" d="M554.908,482.08c0,0,42.387-49.957,76.449-35.575
				c34.061,14.381,65.852-30.277,99.913-15.895c0,0,23.465-18.166,34.818-3.028c11.354,15.138,4.542,30.277,4.542,30.277
				s49.957-15.895,84.775,5.298c34.818,21.194,34.061,37.846,56.012,37.089c0,0,22.708-14.381,33.304,0
				c10.597,14.381,15.895,46.929,0,53.741c-15.895,6.812-43.901,6.812-52.227,27.249C884.168,601.673,812.354,615.464,801,592
				s-31.884-16.819-31.127-10.763s-9.083,33.304-49.2,19.68c-40.117-13.625-109.753-56.012-105.212-34.061
				c4.542,21.951-40.117,12.868-34.061-10.597c6.055-23.465-37.089-31.791-39.36-43.144
				C539.77,501.76,554.908,482.08,554.908,482.08z"/>
			<linearGradient id="SVGID_26_" gradientUnits="userSpaceOnUse" x1="715.9734" y1="720.8265" x2="715.9734" y2="488.2709">
				<stop  offset="0" style="stop-color:#9DCF5B"/>
				<stop  offset="0.1921" style="stop-color:#94CA60"/>
				<stop  offset="0.5054" style="stop-color:#7CBD6C"/>
				<stop  offset="0.8987" style="stop-color:#54A781"/>
				<stop  offset="1" style="stop-color:#49A187"/>
			</linearGradient>
			<path style="clip-path:url(#SVGID_24_);fill:url(#SVGID_26_);" d="M877.084,447.686c0,0-232.069,2.11-205.478,78.925
				s97.3,3.799,157.13,24.48s102.739,90.321,102.739,90.321l-192.182-2.954l-201.247-14.772c0,0-39.887-103.405-37.469-105.515
				s89.443-89.055,89.443-89.055l268.33-20.259L877.084,447.686z"/>
		</g>
		<g>
			<defs>
				<path id="SVGID_130_" d="M631.275,630.818c0,0,14.94-20.213,31.638-8.788c0,0,18.455-21.092,38.668-9.667
					c20.213,11.425,17.576,21.092,32.516,18.455c14.94-2.636,29.001,0,29.001,7.031c0,7.031-11.425,24.607-29.001,16.698
					s-48.335-14.061-56.244-8.788C669.943,651.03,618.093,663.334,631.275,630.818z"/>
			</defs>
			<clipPath id="SVGID_27_">
				<use xlink:href="#SVGID_130_"  style="overflow:visible;"/>
			</clipPath>
			<linearGradient id="SVGID_28_" gradientUnits="userSpaceOnUse" x1="696.1187" y1="672.7981" x2="696.1187" y2="625.2177">
				<stop  offset="0" style="stop-color:#4FA484"/>
				<stop  offset="0.4335" style="stop-color:#9DCF5B"/>
				<stop  offset="0.5049" style="stop-color:#93CA60"/>
				<stop  offset="0.626" style="stop-color:#78BB6E"/>
				<stop  offset="0.7814" style="stop-color:#4DA385"/>
				<stop  offset="0.7944" style="stop-color:#49A187"/>
			</linearGradient>
			<path style="clip-path:url(#SVGID_27_);fill:url(#SVGID_28_);" d="M631.275,630.818c0,0,14.94-20.213,31.638-8.788
				c0,0,18.455-21.092,38.668-9.667c20.213,11.425,17.576,21.092,32.516,18.455c14.94-2.636,29.001,0,29.001,7.031
				c0,7.031-11.425,24.607-29.001,16.698s-48.335-14.061-56.244-8.788C669.943,651.03,618.093,663.334,631.275,630.818z"/>
			<linearGradient id="SVGID_29_" gradientUnits="userSpaceOnUse" x1="678.7137" y1="581.7065" x2="678.7137" y2="645.2878">
				<stop  offset="0" style="stop-color:#9DCF5B"/>
				<stop  offset="0.1921" style="stop-color:#94CA60"/>
				<stop  offset="0.5054" style="stop-color:#7CBD6C"/>
				<stop  offset="0.8987" style="stop-color:#54A781"/>
				<stop  offset="1" style="stop-color:#49A187"/>
			</linearGradient>
			<path style="clip-path:url(#SVGID_27_);fill:url(#SVGID_29_);" d="M719.176,614.035c0,0-58.284,0.577-51.605,21.578
				c6.678,21.001,24.437,1.039,39.463,6.693S732.837,667,732.837,667l-48.266-0.808l-50.543-4.039c0,0-10.018-28.271-9.41-28.848
				s22.464-24.348,22.464-24.348l67.391-5.539L719.176,614.035z"/>
		</g>
		<g>
			<defs>
				<path id="SVGID_134_" d="M831.822,618.731c0.563-1.31,7.805-24.82,25.192-22.521c0,0,26.242-21.798,31.214,0.209
					c4.972,22.007,24.308,3.149,29.256,15.074c4.948,11.925,3.349,46.543-18.53,37.279c-21.879-9.264-47.877-5.033-57.808-9.294
					C833.677,636.273,826.688,630.68,831.822,618.731z"/>
			</defs>
			<clipPath id="SVGID_30_">
				<use xlink:href="#SVGID_134_"  style="overflow:visible;"/>
			</clipPath>
			
				<linearGradient id="SVGID_31_" gradientUnits="userSpaceOnUse" x1="840.0308" y1="633.4931" x2="929.4123" y2="633.4931" gradientTransform="matrix(0.9834 -0.1812 0.1812 0.9834 -110.4294 158.931)">
				<stop  offset="0.0045" style="stop-color:#53AFA8"/>
				<stop  offset="1" style="stop-color:#A9CA54"/>
			</linearGradient>
			<path style="clip-path:url(#SVGID_30_);fill:url(#SVGID_31_);" d="M831.822,618.731c0.563-1.31,7.805-24.82,25.192-22.521
				c0,0,26.242-21.798,31.214,0.209c4.972,22.007,24.308,3.149,29.256,15.074c4.948,11.925,3.349,46.543-18.53,37.279
				c-21.879-9.264-47.877-5.033-57.808-9.294C833.677,636.273,826.688,630.68,831.822,618.731z"/>
			
				<linearGradient id="SVGID_32_" gradientUnits="userSpaceOnUse" x1="857.2907" y1="697.1366" x2="857.2907" y2="594.0888" gradientTransform="matrix(0.9834 -0.1812 0.1812 0.9834 -110.4294 158.931)">
				<stop  offset="0" style="stop-color:#9DCF5B"/>
				<stop  offset="0.1921" style="stop-color:#94CA60"/>
				<stop  offset="0.5054" style="stop-color:#7CBD6C"/>
				<stop  offset="0.8987" style="stop-color:#54A781"/>
				<stop  offset="1" style="stop-color:#49A187"/>
			</linearGradient>
			<path style="clip-path:url(#SVGID_30_);fill:url(#SVGID_32_);" d="M899.558,595.707c0,0-16.545,29.639-36.172,35.089
				s-22.323,25.914-22.323,25.914s-48.458-11.956-50.115-13.484c-1.657-1.529,9.32-83.781,11.537-84.19
				c2.217-0.408,95.415,17.721,95.742,19.495C898.554,580.304,899.558,595.707,899.558,595.707z"/>
		</g>
	</g>
	<linearGradient id="SVGID_33_" gradientUnits="userSpaceOnUse" x1="342.1261" y1="683.0874" x2="340.0912" y2="639.9434">
		<stop  offset="0" style="stop-color:#80552E"/>
		<stop  offset="0.7396" style="stop-color:#A3693F"/>
		<stop  offset="1" style="stop-color:#B07145"/>
	</linearGradient>
	<path style="fill:url(#SVGID_33_);" d="M325.94,664.119c0,0-0.757-8.326,1.514-11.354c2.271-3.028,21.951-17.409,24.221-20.437
		c2.271-3.028,1.514-6.812,1.514-6.812s1.514-2.271,1.514,0s0.757,6.055-0.757,7.569c-1.514,1.514-23.465,19.68-24.221,21.951
		c-0.757,2.271-1.521,9.093-1.139,12.873C328.968,671.688,325.94,664.119,325.94,664.119z"/>
</g>
<g>
	<defs>
		<path id="SVGID_139_" d="M-117.369,751.998c0,0,81.692-84.558,143.319-63.06s187.747,51.595,245.075,30.097
			c57.327-21.498,103.189-31.53,151.918,32.963c0,0,42.996-63.06,68.793-32.963c0,0,48.728-60.194,78.825-32.963
			c0,0,27.231,65.927,91.724,54.461c64.493-11.465,131.853,60.194,114.655,88.858c0,0,35.83-24.364,55.894,20.065
			c20.065,44.429,55.894,40.129,75.959,20.065c20.065-20.065,67.36,10.032,63.06,28.664c-4.3,18.631,96.023,47.295,120.388,113.222
			c24.364,65.927-1228.24,18.631-1228.24,18.631L-117.369,751.998z"/>
	</defs>
	<clipPath id="SVGID_34_">
		<use xlink:href="#SVGID_139_"  style="overflow:visible;"/>
	</clipPath>
	<linearGradient id="SVGID_35_" gradientUnits="userSpaceOnUse" x1="478.2955" y1="1171.9425" x2="478.2955" y2="804.483">
		<stop  offset="0" style="stop-color:#9DCF5B"/>
		<stop  offset="0.1921" style="stop-color:#94CA60"/>
		<stop  offset="0.5054" style="stop-color:#7CBD6C"/>
		<stop  offset="0.8987" style="stop-color:#54A781"/>
		<stop  offset="1" style="stop-color:#49A187"/>
	</linearGradient>
	<path style="clip-path:url(#SVGID_34_);fill:url(#SVGID_35_);" d="M-117.369,751.998c0,0,81.692-84.558,143.319-63.06
		s187.747,51.595,245.075,30.097c57.327-21.498,103.189-31.53,151.918,32.963c0,0,42.996-63.06,68.793-32.963
		c0,0,48.728-60.194,78.825-32.963c0,0,27.231,65.927,91.724,54.461c64.493-11.465,131.853,60.194,114.655,88.858
		c0,0,35.83-24.364,55.894,20.065c20.065,44.429,55.894,40.129,75.959,20.065c20.065-20.065,67.36,10.032,63.06,28.664
		c-4.3,18.631,96.023,47.295,120.388,113.222c24.364,65.927-1228.24,18.631-1228.24,18.631L-117.369,751.998z"/>
	<linearGradient id="SVGID_36_" gradientUnits="userSpaceOnUse" x1="436.1558" y1="1454.0757" x2="436.1558" y2="393.8405">
		<stop  offset="0" style="stop-color:#9DCF5B"/>
		<stop  offset="0.1921" style="stop-color:#94CA60"/>
		<stop  offset="0.5054" style="stop-color:#7CBD6C"/>
		<stop  offset="0.8987" style="stop-color:#54A781"/>
		<stop  offset="1" style="stop-color:#49A187"/>
	</linearGradient>
	<path style="clip-path:url(#SVGID_34_);fill:url(#SVGID_36_);" d="M1085.793,611.674c0,0-104.63,1.027-235.698,15.57
		c-112.586,12.492-89.045,110.039-191.086,150.39c-115.294,45.593-347.856,38.938-314.932,141.619
		c95.987,299.355,351.225,14.803,567.195,95.399S1149,1092,1149,1092l-693.723-11.514l-726.446-57.568
		c0,0-10.851-128.337-2.124-136.561C-264.567,878.133-127,529.018-127,529.018L930.815,31.783L1085.793,611.674z"/>
</g>
</svg>
