<?xml version="1.0" encoding="utf-8"?>
<!-- Generator: Adobe Illustrator 24.2.3, SVG Export Plug-In . SVG Version: 6.00 Build 0)  -->
<svg version="1.1" id="Ebene_1" xmlns="http://www.w3.org/2000/svg" xmlns:xlink="http://www.w3.org/1999/xlink" x="0px" y="0px"
	 viewBox="0 0 636 562" style="enable-background:new 0 0 636 562;" xml:space="preserve">
<style type="text/css">
	.st0{fill:#FFE500;}
	.st1{fill:#FCC202;}
	.st2{fill:#EE7B53;}
	.st3{fill:#272724;}
	.st4{fill:#6F7072;}
	.st5{fill:#F39209;}
	.st6{fill:#FFFFFF;}
	.st7{fill:#CCCCCC;}
	.st8{fill:#F2F2F2;}
	.st9{fill:#E6E6E6;}
	.st10{fill:#549D4C;}
	.st11{fill:#355A2D;}
	.st12{fill:#A9CA54;}
	.st13{fill:#507F3A;}
</style>
<path class="st0" d="M251.282,40.974C293.066,13.049,343.782-1.279,394,0.651c14.525,0.558,28.964,2.433,43.364,4.419
	c16.813,2.319,34.018,4.927,48.892,13.101c10.961,6.024,20.115,14.784,29.923,22.545c26.33,20.833,59.192,36.2,74.979,65.832
	c5.087,9.547,8.099,20.154,13.845,29.32c5.591,8.917,13.564,16.136,19.265,24.984c13.358,20.734,12.568,47.205,11.317,71.838
	c-1.35,26.57-2.774,53.542-11.339,78.73c-4.679,13.76-11.406,26.718-18.106,39.615c-8.905,17.141-17.945,34.48-30.813,48.885
	c-13.386,14.985-30.394,26.207-47.43,36.861c-27.731,17.342-56.38,33.781-87.521,43.78c-31.141,9.998-65.2,13.244-96.58,4.023
	c-13.64-4.008-26.539-10.278-40.219-14.149c-20.466-5.791-43.268-6.505-60.338-19.194c-13.025-9.682-20.55-24.824-29.557-38.324
	c-14.775-22.146-34.414-40.83-48.226-63.59c-18.847-31.059-25.801-69.139-19.148-104.855c3.124-16.77,9.034-32.855,12.53-49.537
	c3.006-14.347-0.986-30.321,2.983-43.715c8.336-28.13,29.695-55.919,49.654-76.78C223.482,61.891,236.839,50.626,251.282,40.974z"/>
<path class="st1" d="M418.805,115.672H263.276v87.327H535v-5.052C535,153.201,467.52,115.672,418.805,115.672z"/>
<path class="st2" d="M308.383,199.752c12.63,10.104,30.673,20.208,52.685,27.425c63.511,20.93,102.483,15.156,103.205,15.156
	c0.722,0,0.722,0.722,0,2.165c-3.609,7.578-20.93,33.56-81.553,30.312c-36.446-1.804-64.232-13.712-81.192-24.899
	C286.371,240.528,292.505,187.122,308.383,199.752z"/>
<path class="st3" d="M61.558,437.555c-0.361,16.599,29.951,18.764,72.532,6.495c42.581-12.269,82.275-34.642,82.275-34.642
	l-15.517-24.177c0,0-33.92,0.722-74.336,11.186C85.735,406.883,61.919,420.956,61.558,437.555z"/>
<path class="st4" d="M82.488,475.445c3.248,16.238,33.56,11.186,71.81-10.465s72.171-53.046,72.171-53.046l-20.93-20.208
	c0,0-32.838,8.661-69.645,28.147S78.879,459.207,82.488,475.445z"/>
<path class="st3" d="M117.13,503.231c8.3,14.434,35.364,0,64.954-32.838s51.602-73.254,51.602-73.254l-25.982-12.269
	c0,0-28.508,18.404-57.015,49.076S108.83,489.158,117.13,503.231z M4.182,165.47c-0.361,0.361-0.361,0.722-0.722,1.443
	c-18.404,43.303,31.394,105.731,111.143,139.29c79.749,33.199,159.137,25.26,177.541-18.043c0.361-0.361,0.361-0.722,0.361-1.443
	L4.182,165.47z"/>
<path class="st3" d="M143.833,224.29l-97.07,8.3l10.465,30.673l-47.633,5.413c16.96,32.838,47.633,62.067,87.688,79.027
	c79.749,33.56,167.076,7.217,194.862-58.459c0.361-0.722,0.722-1.443,0.722-2.165L143.833,224.29z"/>
<path class="st3" d="M180.279,239.446l6.495,74.697l-102.122,8.661c7.578,6.495,14.073,13.352,14.073,13.352
	s-29.951,12.63-49.437,20.93c10.465,8.3,22.012,15.156,35.003,20.569c79.749,33.56,172.85-6.135,207.492-88.41
	c0.361-0.722,0.722-1.804,1.083-2.526L180.279,239.446z"/>
<path class="st3" d="M295.392,165.47l16.599-49.798h-50.52c-59.541,0-108.617,44.385-116.195,101.761l-2.526,177.18
	c0,13.712,35.364,32.116,55.572,34.281c55.572,5.774,111.504-32.838,111.504-84.801C309.826,341.207,295.392,165.47,295.392,165.47z
	"/>
<path class="st5" d="M470.768,202.278l2.526-23.456l-17.682,21.29l2.887-28.868l-22.373,30.673l-11.547-38.612l-9.743,38.972h6.495
	H470.768z M403.649,183.152c-1.443-6.495-2.165-28.508-2.165-28.508s-10.104,11.908-11.186,22.373
	c-0.722,8.661-4.33,21.29-5.774,25.26h21.651C406.175,199.391,405.092,188.565,403.649,183.152z M360.707,166.192l-9.382,34.281
	c0,0-11.547-25.621-16.96-36.807c-4.691-10.104-22.373-37.168-28.868-42.22c-0.361-0.361-1.443,79.027-1.443,79.027l0.361,2.165
	h72.532L360.707,166.192z"/>
<path class="st6" d="M311.99,116.39v231.67h-0.72c-63.87,0-115.83-51.96-115.83-115.83s51.96-115.84,115.83-115.84H311.99z"/>
<path class="st3" d="M287.814,178.822c0,11.908-9.743,21.651-21.651,21.651c-11.908,0-21.651-9.743-21.651-21.651
	c0-11.908,9.743-21.651,21.651-21.651C278.071,157.171,287.814,166.914,287.814,178.822z"/>
<path class="st3" d="M464.994,125.055v77.945h69.645v-5.052C535,166.553,501.801,138.767,464.994,125.055z"/>
<rect x="399.342" y="205.785" transform="matrix(0.9985 0.0544 -0.0544 0.9985 14.8179 -24.0702)" class="st7" width="99.75" height="108.326"/>
<ellipse transform="matrix(0.0544 -0.9985 0.9985 0.0544 120.8202 642.0525)" class="st8" cx="399.416" cy="257.233" rx="54.163" ry="27.081"/>
<ellipse transform="matrix(0.0544 -0.9985 0.9985 0.0544 208.2709 744.2921)" class="st7" cx="497.124" cy="262.178" rx="54.163" ry="27.081"/>
<ellipse transform="matrix(0.0544 -0.9985 0.9985 0.0544 120.8202 642.0525)" cx="399.416" cy="257.233" rx="21.939" ry="6.856"/>
<path class="st2" d="M406.26,257.61c-0.38,7.05-1.77,13.28-3.6,17.19c-1.37,0.09-2.77,0.15-4.21,0.19
	c-1.27,0.05-2.57,0.08-3.89,0.09c-3.75,0.04-7.69-0.05-11.84-0.27c-3.33-0.16-6.58-0.41-9.76-0.74
	c-25.26-2.58-45.85-9.94-60.97-17.97v-53.58c12.36,9.17,29.09,18.1,49.08,24.66c5.31,1.75,10.46,3.32,15.42,4.71
	c7.48,2.11,14.56,3.83,21.19,5.24c0.95,0.2,1.88,0.39,2.8,0.57c1.13,0.23,2.24,0.45,3.34,0.66
	C405.7,242.24,406.71,249.44,406.26,257.61z"/>
<path class="st6" d="M526.07,265.42c0.02,8.54-0.89,20.01-2.16,31.8c-2.34,14.17-6.72,31.27-14.9,47.78l-76.08-70.78l0.06-1.13
	c0,0,0.11-2.35,0.17-6.09c0.22-12.28-0.03-39.57-6.16-48c-8-11,0-1,0-1s15,9,18,20c0,0,4-13,0-20s14,7,16,19c0,0,4-12.99-1.99-19.99
	c0.42,0.24,13.9,8.08,15.43,20.44c0,0,6.56-11.45,3.56-16.45s10,8,11,18c0,0,5-11,0-15c0,0,12,3,14,16c0,0,4-10,2-13c0,0,11,5,13,14
	c0,0,3.98-4.98,1.02-6.99c0.35,0.14,6.01,2.8,6.98,27.99C526.04,263.08,526.07,264.22,526.07,265.42z"/>
<path class="st9" d="M466.56,337.555c-4.65,10.633-34.68,83.281-126.05,53.445h-0.01c-8.95-4.219-18.17-8.91-27.68-14.095
	c-50.03-27.256-94.16-35.524-134.49-25.138l5.67-6.878l-8-3.091l7-5.409l-11-3.091l6-8.5l-11-3.091l5-6.955l-10-3.864l5-6.955
	l-8-3.091l4-6.955l-9-2.318l4-6.182l-7.93-2.512c51.83-13.013,126.6-14.103,216.65,34.945c35.11,19.126,57.94,26.073,70.92,28.531
	c9.16,1.739,16.6,1.855,20.39,0.332C461.36,345.345,464.24,341.937,466.56,337.555z"/>
<g>
	<path class="st6" d="M526.07,265.42c0.02,8.54-0.89,20.01-2.16,31.8c-2.34,14.17-6.72,31.27-14.9,47.78
		c-9.58,19.35-24.36,37.89-47.16,49.96c-15.47,8.19-32.59,12.3-51.18,12.3c-11.13,0-22.78-1.47-34.92-4.42
		c-23.17-5.63-47.98-16.55-75.24-33.17c91.37,38.61,121.4-55.4,126.05-69.16c0.01-0.02,0.01-0.04,0.02-0.06
		c4.07-9.93,6.41-23.65,6.42-33.45h1L526.07,265.42z"/>
</g>
<g>
	<path class="st10" d="M227.599,498.083c9.249-22.964,35.402-34.445,58.366-25.196c23.283,9.249,74.95,63.15,69.529,76.226
		c-4.784,11.801-79.735,16.904-103.017,7.654C229.831,547.519,218.668,521.366,227.599,498.083z"/>
	<path class="st11" d="M324.875,540.821c-0.638,0-0.957,0-1.595-0.319l-72.399-28.704c-1.914-0.957-2.87-3.189-2.233-5.103
		c0.957-1.914,3.189-2.87,5.103-2.233l72.718,29.023c1.914,0.957,2.87,3.189,2.233,5.103
		C328.064,539.864,326.469,540.821,324.875,540.821z"/>
	<path class="st11" d="M256.303,542.097c-1.914,0-3.508-1.276-3.827-3.189l-6.06-30.937c-0.319-1.595,0.319-3.189,1.914-4.146
		l28.386-17.223c1.914-1.276,4.146-0.638,5.422,1.276c1.276,1.914,0.638,4.146-1.276,5.422l-25.834,15.628l5.422,28.067
		c0.319,2.233-0.957,4.146-3.189,4.465C256.941,542.097,256.622,542.097,256.303,542.097z"/>
	<path class="st11" d="M278.629,545.286c-1.914,0-3.508-1.276-3.827-3.189l-5.103-24.877c-0.319-1.595,0.319-3.189,1.914-4.146
		l23.282-13.714c1.914-0.957,4.146-0.319,5.422,1.276c0.957,1.914,0.319,4.146-1.276,5.422l-20.731,12.12l4.465,22.326
		c0.319,2.233-0.957,4.146-3.189,4.784H278.629z M300.954,547.519c-1.914,0-3.508-1.276-3.827-2.87l-4.784-18.18
		c-0.319-1.914,0.319-3.508,1.914-4.465l17.861-9.249c1.914-0.957,4.465-0.319,5.422,1.595s0.319,4.146-1.595,5.422l-14.99,7.973
		l3.827,14.99c0.638,2.233-0.638,4.146-2.87,4.784C301.911,547.519,300.954,547.519,300.954,547.519z"/>
	<path class="st12" d="M297.765,449.605c-5.741-14.352,1.276-30.618,15.947-36.359c14.352-5.741,60.917-3.189,64.107,5.103
		c2.87,7.336-29.023,41.462-43.695,47.203C319.772,470.973,303.506,463.957,297.765,449.605z"/>
	<path class="st13" d="M313.074,445.777c-0.957,0-1.914-0.638-2.233-1.595c-0.319-1.276,0-2.552,1.276-2.87l45.289-17.861
		c1.276-0.319,2.552,0,2.87,1.276c0.319,1.276,0,2.552-1.276,2.87l-45.289,17.861C313.712,445.777,313.393,445.777,313.074,445.777z
		"/>
	<path class="st13" d="M327.745,457.578c-0.319,0-0.957,0-1.276-0.319l-15.947-11.482c-0.638-0.638-1.276-1.595-0.957-2.552
		l5.422-19.774c0.319-1.276,1.595-1.914,2.87-1.595c1.276,0.319,1.914,1.595,1.595,2.87l-5.103,18.179l14.352,10.525
		c0.957,0.638,1.276,2.233,0.638,3.189C329.021,457.259,328.383,457.578,327.745,457.578z"/>
	<path class="st13" d="M339.227,449.605c-0.319,0-0.957,0-1.276-0.319l-13.076-9.249c-0.957-0.638-1.276-1.595-0.957-2.552
		l4.784-16.266c0.319-1.276,1.595-1.914,2.87-1.595s1.914,1.595,1.595,2.87l-4.465,14.352l11.482,8.292
		c0.957,0.638,1.276,2.233,0.638,3.189C340.822,449.286,340.184,449.605,339.227,449.605z M350.39,441.312
		c-0.319,0-0.957,0-1.276-0.319l-9.887-6.379c-0.957-0.638-1.276-1.595-0.957-2.87l4.146-11.801c0.319-1.276,1.595-1.914,2.87-1.276
		c1.276,0.319,1.914,1.595,1.276,2.87l-3.508,9.887l8.292,5.422c0.957,0.638,1.276,2.233,0.638,3.189
		C351.984,440.993,351.347,441.312,350.39,441.312z"/>
</g>
</svg>
